<svg xmlns="http://www.w3.org/2000/svg" xmlns:xlink="http://www.w3.org/1999/xlink" width="600" height="400" viewBox="0 0 2400 1600">
<defs>
  <clipPath id="clip200">
    <rect x="0" y="0" width="2400" height="1600"></rect>
  </clipPath>
</defs>
<path clip-path="url(#clip200)" d="M0 1600 L2400 1600 L2400 0 L0 0  Z" fill="#ffffff" fill-rule="evenodd" fill-opacity="1"></path>
<defs>
  <clipPath id="clip201">
    <rect x="480" y="0" width="1681" height="1600"></rect>
  </clipPath>
</defs>
<path clip-path="url(#clip200)" d="M264.287 1423.18 L2352.76 1423.18 L2352.76 123.472 L264.287 123.472  Z" fill="#ffffff" fill-rule="evenodd" fill-opacity="1"></path>
<defs>
  <clipPath id="clip202">
    <rect x="264" y="123" width="2089" height="1301"></rect>
  </clipPath>
</defs>
<polyline clip-path="url(#clip202)" style="stroke:#000000; stroke-linecap:round; stroke-linejoin:round; stroke-width:2; stroke-opacity:0.1; fill:none" points="537.553,1423.18 537.553,123.472 "></polyline>
<polyline clip-path="url(#clip202)" style="stroke:#000000; stroke-linecap:round; stroke-linejoin:round; stroke-width:2; stroke-opacity:0.1; fill:none" points="965.869,1423.18 965.869,123.472 "></polyline>
<polyline clip-path="url(#clip202)" style="stroke:#000000; stroke-linecap:round; stroke-linejoin:round; stroke-width:2; stroke-opacity:0.1; fill:none" points="1394.18,1423.18 1394.18,123.472 "></polyline>
<polyline clip-path="url(#clip202)" style="stroke:#000000; stroke-linecap:round; stroke-linejoin:round; stroke-width:2; stroke-opacity:0.1; fill:none" points="1822.5,1423.18 1822.5,123.472 "></polyline>
<polyline clip-path="url(#clip202)" style="stroke:#000000; stroke-linecap:round; stroke-linejoin:round; stroke-width:2; stroke-opacity:0.1; fill:none" points="2250.82,1423.18 2250.82,123.472 "></polyline>
<polyline clip-path="url(#clip202)" style="stroke:#000000; stroke-linecap:round; stroke-linejoin:round; stroke-width:2; stroke-opacity:0.1; fill:none" points="264.287,1386.4 2352.76,1386.4 "></polyline>
<polyline clip-path="url(#clip202)" style="stroke:#000000; stroke-linecap:round; stroke-linejoin:round; stroke-width:2; stroke-opacity:0.1; fill:none" points="264.287,1165.78 2352.76,1165.78 "></polyline>
<polyline clip-path="url(#clip202)" style="stroke:#000000; stroke-linecap:round; stroke-linejoin:round; stroke-width:2; stroke-opacity:0.1; fill:none" points="264.287,945.158 2352.76,945.158 "></polyline>
<polyline clip-path="url(#clip202)" style="stroke:#000000; stroke-linecap:round; stroke-linejoin:round; stroke-width:2; stroke-opacity:0.1; fill:none" points="264.287,724.539 2352.76,724.539 "></polyline>
<polyline clip-path="url(#clip202)" style="stroke:#000000; stroke-linecap:round; stroke-linejoin:round; stroke-width:2; stroke-opacity:0.1; fill:none" points="264.287,503.92 2352.76,503.92 "></polyline>
<polyline clip-path="url(#clip202)" style="stroke:#000000; stroke-linecap:round; stroke-linejoin:round; stroke-width:2; stroke-opacity:0.1; fill:none" points="264.287,283.301 2352.76,283.301 "></polyline>
<polyline clip-path="url(#clip200)" style="stroke:#000000; stroke-linecap:round; stroke-linejoin:round; stroke-width:4; stroke-opacity:1; fill:none" points="264.287,1423.18 2352.76,1423.18 "></polyline>
<polyline clip-path="url(#clip200)" style="stroke:#000000; stroke-linecap:round; stroke-linejoin:round; stroke-width:4; stroke-opacity:1; fill:none" points="537.553,1423.18 537.553,1404.28 "></polyline>
<polyline clip-path="url(#clip200)" style="stroke:#000000; stroke-linecap:round; stroke-linejoin:round; stroke-width:4; stroke-opacity:1; fill:none" points="965.869,1423.18 965.869,1404.28 "></polyline>
<polyline clip-path="url(#clip200)" style="stroke:#000000; stroke-linecap:round; stroke-linejoin:round; stroke-width:4; stroke-opacity:1; fill:none" points="1394.18,1423.18 1394.18,1404.28 "></polyline>
<polyline clip-path="url(#clip200)" style="stroke:#000000; stroke-linecap:round; stroke-linejoin:round; stroke-width:4; stroke-opacity:1; fill:none" points="1822.5,1423.18 1822.5,1404.28 "></polyline>
<polyline clip-path="url(#clip200)" style="stroke:#000000; stroke-linecap:round; stroke-linejoin:round; stroke-width:4; stroke-opacity:1; fill:none" points="2250.82,1423.18 2250.82,1404.28 "></polyline>
<path clip-path="url(#clip200)" d="M512.241 1481.64 L519.879 1481.64 L519.879 1455.28 L511.569 1456.95 L511.569 1452.69 L519.833 1451.02 L524.509 1451.02 L524.509 1481.64 L532.148 1481.64 L532.148 1485.58 L512.241 1485.58 L512.241 1481.64 Z" fill="#000000" fill-rule="nonzero" fill-opacity="1"></path><path clip-path="url(#clip200)" d="M551.592 1454.1 Q547.981 1454.1 546.152 1457.66 Q544.347 1461.2 544.347 1468.33 Q544.347 1475.44 546.152 1479.01 Q547.981 1482.55 551.592 1482.55 Q555.226 1482.55 557.032 1479.01 Q558.861 1475.44 558.861 1468.33 Q558.861 1461.2 557.032 1457.66 Q555.226 1454.1 551.592 1454.1 M551.592 1450.39 Q557.402 1450.39 560.458 1455 Q563.537 1459.58 563.537 1468.33 Q563.537 1477.06 560.458 1481.67 Q557.402 1486.25 551.592 1486.25 Q545.782 1486.25 542.703 1481.67 Q539.648 1477.06 539.648 1468.33 Q539.648 1459.58 542.703 1455 Q545.782 1450.39 551.592 1450.39 Z" fill="#000000" fill-rule="nonzero" fill-opacity="1"></path><path clip-path="url(#clip200)" d="M944.642 1481.64 L960.961 1481.64 L960.961 1485.58 L939.017 1485.58 L939.017 1481.64 Q941.679 1478.89 946.262 1474.26 Q950.869 1469.61 952.049 1468.27 Q954.295 1465.74 955.174 1464.01 Q956.077 1462.25 956.077 1460.56 Q956.077 1457.8 954.133 1456.07 Q952.212 1454.33 949.11 1454.33 Q946.911 1454.33 944.457 1455.09 Q942.026 1455.86 939.249 1457.41 L939.249 1452.69 Q942.073 1451.55 944.526 1450.97 Q946.98 1450.39 949.017 1450.39 Q954.387 1450.39 957.582 1453.08 Q960.776 1455.77 960.776 1460.26 Q960.776 1462.39 959.966 1464.31 Q959.179 1466.2 957.073 1468.8 Q956.494 1469.47 953.392 1472.69 Q950.29 1475.88 944.642 1481.64 Z" fill="#000000" fill-rule="nonzero" fill-opacity="1"></path><path clip-path="url(#clip200)" d="M980.776 1454.1 Q977.165 1454.1 975.336 1457.66 Q973.531 1461.2 973.531 1468.33 Q973.531 1475.44 975.336 1479.01 Q977.165 1482.55 980.776 1482.55 Q984.41 1482.55 986.216 1479.01 Q988.045 1475.44 988.045 1468.33 Q988.045 1461.2 986.216 1457.66 Q984.41 1454.1 980.776 1454.1 M980.776 1450.39 Q986.586 1450.39 989.642 1455 Q992.721 1459.58 992.721 1468.33 Q992.721 1477.06 989.642 1481.67 Q986.586 1486.25 980.776 1486.25 Q974.966 1486.25 971.887 1481.67 Q968.832 1477.06 968.832 1468.33 Q968.832 1459.58 971.887 1455 Q974.966 1450.39 980.776 1450.39 Z" fill="#000000" fill-rule="nonzero" fill-opacity="1"></path><path clip-path="url(#clip200)" d="M1383.03 1466.95 Q1386.38 1467.66 1388.26 1469.93 Q1390.16 1472.2 1390.16 1475.53 Q1390.16 1480.65 1386.64 1483.45 Q1383.12 1486.25 1376.64 1486.25 Q1374.46 1486.25 1372.15 1485.81 Q1369.86 1485.39 1367.4 1484.54 L1367.4 1480.02 Q1369.35 1481.16 1371.66 1481.74 Q1373.98 1482.32 1376.5 1482.32 Q1380.9 1482.32 1383.19 1480.58 Q1385.5 1478.84 1385.5 1475.53 Q1385.5 1472.48 1383.35 1470.77 Q1381.22 1469.03 1377.4 1469.03 L1373.37 1469.03 L1373.37 1465.19 L1377.59 1465.19 Q1381.04 1465.19 1382.87 1463.82 Q1384.69 1462.43 1384.69 1459.84 Q1384.69 1457.18 1382.8 1455.77 Q1380.92 1454.33 1377.4 1454.33 Q1375.48 1454.33 1373.28 1454.75 Q1371.08 1455.16 1368.44 1456.04 L1368.44 1451.88 Q1371.11 1451.14 1373.42 1450.77 Q1375.76 1450.39 1377.82 1450.39 Q1383.14 1450.39 1386.25 1452.83 Q1389.35 1455.23 1389.35 1459.35 Q1389.35 1462.22 1387.7 1464.21 Q1386.06 1466.18 1383.03 1466.95 Z" fill="#000000" fill-rule="nonzero" fill-opacity="1"></path><path clip-path="url(#clip200)" d="M1409.02 1454.1 Q1405.41 1454.1 1403.58 1457.66 Q1401.78 1461.2 1401.78 1468.33 Q1401.78 1475.44 1403.58 1479.01 Q1405.41 1482.55 1409.02 1482.55 Q1412.66 1482.55 1414.46 1479.01 Q1416.29 1475.44 1416.29 1468.33 Q1416.29 1461.2 1414.46 1457.66 Q1412.66 1454.1 1409.02 1454.1 M1409.02 1450.39 Q1414.83 1450.39 1417.89 1455 Q1420.97 1459.58 1420.97 1468.33 Q1420.97 1477.06 1417.89 1481.67 Q1414.83 1486.25 1409.02 1486.25 Q1403.21 1486.25 1400.13 1481.67 Q1397.08 1477.06 1397.08 1468.33 Q1397.08 1459.58 1400.13 1455 Q1403.21 1450.39 1409.02 1450.39 Z" fill="#000000" fill-rule="nonzero" fill-opacity="1"></path><path clip-path="url(#clip200)" d="M1810.67 1455.09 L1798.87 1473.54 L1810.67 1473.54 L1810.67 1455.09 M1809.45 1451.02 L1815.32 1451.02 L1815.32 1473.54 L1820.26 1473.54 L1820.26 1477.43 L1815.32 1477.43 L1815.32 1485.58 L1810.67 1485.58 L1810.67 1477.43 L1795.07 1477.43 L1795.07 1472.92 L1809.45 1451.02 Z" fill="#000000" fill-rule="nonzero" fill-opacity="1"></path><path clip-path="url(#clip200)" d="M1837.99 1454.1 Q1834.38 1454.1 1832.55 1457.66 Q1830.74 1461.2 1830.74 1468.33 Q1830.74 1475.44 1832.55 1479.01 Q1834.38 1482.55 1837.99 1482.55 Q1841.62 1482.55 1843.43 1479.01 Q1845.26 1475.44 1845.26 1468.33 Q1845.26 1461.2 1843.43 1457.66 Q1841.62 1454.1 1837.99 1454.1 M1837.99 1450.39 Q1843.8 1450.39 1846.85 1455 Q1849.93 1459.58 1849.93 1468.33 Q1849.93 1477.06 1846.85 1481.67 Q1843.8 1486.25 1837.99 1486.25 Q1832.18 1486.25 1829.1 1481.67 Q1826.04 1477.06 1826.04 1468.33 Q1826.04 1459.58 1829.1 1455 Q1832.18 1450.39 1837.99 1450.39 Z" fill="#000000" fill-rule="nonzero" fill-opacity="1"></path><path clip-path="url(#clip200)" d="M2225.52 1451.02 L2243.87 1451.02 L2243.87 1454.96 L2229.8 1454.96 L2229.8 1463.43 Q2230.82 1463.08 2231.84 1462.92 Q2232.85 1462.73 2233.87 1462.73 Q2239.66 1462.73 2243.04 1465.9 Q2246.42 1469.08 2246.42 1474.49 Q2246.42 1480.07 2242.95 1483.17 Q2239.47 1486.25 2233.15 1486.25 Q2230.98 1486.25 2228.71 1485.88 Q2226.46 1485.51 2224.06 1484.77 L2224.06 1480.07 Q2226.14 1481.2 2228.36 1481.76 Q2230.59 1482.32 2233.06 1482.32 Q2237.07 1482.32 2239.4 1480.21 Q2241.74 1478.1 2241.74 1474.49 Q2241.74 1470.88 2239.4 1468.77 Q2237.07 1466.67 2233.06 1466.67 Q2231.19 1466.67 2229.31 1467.08 Q2227.46 1467.5 2225.52 1468.38 L2225.52 1451.02 Z" fill="#000000" fill-rule="nonzero" fill-opacity="1"></path><path clip-path="url(#clip200)" d="M2265.63 1454.1 Q2262.02 1454.1 2260.19 1457.66 Q2258.39 1461.2 2258.39 1468.33 Q2258.39 1475.44 2260.19 1479.01 Q2262.02 1482.55 2265.63 1482.55 Q2269.27 1482.55 2271.07 1479.01 Q2272.9 1475.44 2272.9 1468.33 Q2272.9 1461.2 2271.07 1457.66 Q2269.27 1454.1 2265.63 1454.1 M2265.63 1450.39 Q2271.44 1450.39 2274.5 1455 Q2277.58 1459.58 2277.58 1468.33 Q2277.58 1477.06 2274.5 1481.67 Q2271.44 1486.25 2265.63 1486.25 Q2259.82 1486.25 2256.74 1481.67 Q2253.69 1477.06 2253.69 1468.33 Q2253.69 1459.58 2256.74 1455 Q2259.82 1450.39 2265.63 1450.39 Z" fill="#000000" fill-rule="nonzero" fill-opacity="1"></path><path clip-path="url(#clip200)" d="M1139.58 1545.76 Q1141.64 1546.46 1143.59 1548.76 Q1145.56 1551.05 1147.53 1555.06 L1154.06 1568.04 L1147.15 1568.04 L1141.07 1555.85 Q1138.72 1551.08 1136.49 1549.52 Q1134.29 1547.96 1130.47 1547.96 L1123.47 1547.96 L1123.47 1568.04 L1117.04 1568.04 L1117.04 1520.52 L1131.55 1520.52 Q1139.7 1520.52 1143.71 1523.93 Q1147.72 1527.34 1147.72 1534.21 Q1147.72 1538.7 1145.62 1541.66 Q1143.55 1544.62 1139.58 1545.76 M1123.47 1525.81 L1123.47 1542.68 L1131.55 1542.68 Q1136.2 1542.68 1138.56 1540.54 Q1140.94 1538.38 1140.94 1534.21 Q1140.94 1530.04 1138.56 1527.94 Q1136.2 1525.81 1131.55 1525.81 L1123.47 1525.81 Z" fill="#000000" fill-rule="nonzero" fill-opacity="1"></path><path clip-path="url(#clip200)" d="M1176.85 1550.12 Q1169.75 1550.12 1167.01 1551.75 Q1164.27 1553.37 1164.27 1557.29 Q1164.27 1560.4 1166.31 1562.25 Q1168.38 1564.07 1171.91 1564.07 Q1176.78 1564.07 1179.71 1560.63 Q1182.67 1557.16 1182.67 1551.43 L1182.67 1550.12 L1176.85 1550.12 M1188.53 1547.71 L1188.53 1568.04 L1182.67 1568.04 L1182.67 1562.63 Q1180.67 1565.88 1177.67 1567.44 Q1174.68 1568.97 1170.35 1568.97 Q1164.88 1568.97 1161.63 1565.91 Q1158.42 1562.82 1158.42 1557.67 Q1158.42 1551.65 1162.43 1548.6 Q1166.47 1545.54 1174.46 1545.54 L1182.67 1545.54 L1182.67 1544.97 Q1182.67 1540.93 1180 1538.73 Q1177.36 1536.5 1172.55 1536.5 Q1169.49 1536.5 1166.6 1537.23 Q1163.7 1537.97 1161.03 1539.43 L1161.03 1534.02 Q1164.24 1532.78 1167.27 1532.17 Q1170.29 1531.54 1173.15 1531.54 Q1180.89 1531.54 1184.71 1535.55 Q1188.53 1539.56 1188.53 1547.71 Z" fill="#000000" fill-rule="nonzero" fill-opacity="1"></path><path clip-path="url(#clip200)" d="M1224.05 1537.81 L1224.05 1518.52 L1229.91 1518.52 L1229.91 1568.04 L1224.05 1568.04 L1224.05 1562.7 Q1222.2 1565.88 1219.37 1567.44 Q1216.57 1568.97 1212.62 1568.97 Q1206.16 1568.97 1202.09 1563.81 Q1198.04 1558.65 1198.04 1550.25 Q1198.04 1541.85 1202.09 1536.69 Q1206.16 1531.54 1212.62 1531.54 Q1216.57 1531.54 1219.37 1533.1 Q1222.2 1534.62 1224.05 1537.81 M1204.09 1550.25 Q1204.09 1556.71 1206.73 1560.4 Q1209.41 1564.07 1214.05 1564.07 Q1218.7 1564.07 1221.38 1560.4 Q1224.05 1556.71 1224.05 1550.25 Q1224.05 1543.79 1221.38 1540.13 Q1218.7 1536.44 1214.05 1536.44 Q1209.41 1536.44 1206.73 1540.13 Q1204.09 1543.79 1204.09 1550.25 Z" fill="#000000" fill-rule="nonzero" fill-opacity="1"></path><path clip-path="url(#clip200)" d="M1241.97 1532.4 L1247.82 1532.4 L1247.82 1568.04 L1241.97 1568.04 L1241.97 1532.4 M1241.97 1518.52 L1247.82 1518.52 L1247.82 1525.93 L1241.97 1525.93 L1241.97 1518.52 Z" fill="#000000" fill-rule="nonzero" fill-opacity="1"></path><path clip-path="url(#clip200)" d="M1259.47 1553.98 L1259.47 1532.4 L1265.33 1532.4 L1265.33 1553.75 Q1265.33 1558.81 1267.3 1561.36 Q1269.28 1563.87 1273.22 1563.87 Q1277.97 1563.87 1280.7 1560.85 Q1283.47 1557.83 1283.47 1552.61 L1283.47 1532.4 L1289.33 1532.4 L1289.33 1568.04 L1283.47 1568.04 L1283.47 1562.57 Q1281.34 1565.82 1278.51 1567.41 Q1275.71 1568.97 1271.98 1568.97 Q1265.84 1568.97 1262.66 1565.15 Q1259.47 1561.33 1259.47 1553.98 M1274.21 1531.54 L1274.21 1531.54 Z" fill="#000000" fill-rule="nonzero" fill-opacity="1"></path><path clip-path="url(#clip200)" d="M1324.12 1533.45 L1324.12 1538.98 Q1321.63 1537.71 1318.96 1537.07 Q1316.29 1536.44 1313.42 1536.44 Q1309.06 1536.44 1306.87 1537.77 Q1304.7 1539.11 1304.7 1541.79 Q1304.7 1543.82 1306.26 1545 Q1307.82 1546.15 1312.53 1547.2 L1314.54 1547.64 Q1320.78 1548.98 1323.39 1551.43 Q1326.03 1553.85 1326.03 1558.21 Q1326.03 1563.17 1322.08 1566.07 Q1318.17 1568.97 1311.29 1568.97 Q1308.43 1568.97 1305.31 1568.39 Q1302.22 1567.85 1298.78 1566.74 L1298.78 1560.69 Q1302.03 1562.38 1305.18 1563.24 Q1308.33 1564.07 1311.42 1564.07 Q1315.56 1564.07 1317.78 1562.66 Q1320.01 1561.23 1320.01 1558.65 Q1320.01 1556.27 1318.39 1554.99 Q1316.8 1553.72 1311.35 1552.54 L1309.32 1552.07 Q1303.87 1550.92 1301.46 1548.56 Q1299.04 1546.18 1299.04 1542.04 Q1299.04 1537.01 1302.6 1534.27 Q1306.17 1531.54 1312.72 1531.54 Q1315.97 1531.54 1318.83 1532.01 Q1321.7 1532.49 1324.12 1533.45 Z" fill="#000000" fill-rule="nonzero" fill-opacity="1"></path><path clip-path="url(#clip200)" d="M1370.14 1518.58 Q1365.88 1525.9 1363.81 1533.06 Q1361.74 1540.23 1361.74 1547.58 Q1361.74 1554.93 1363.81 1562.16 Q1365.91 1569.35 1370.14 1576.64 L1365.05 1576.64 Q1360.27 1569.16 1357.89 1561.93 Q1355.53 1554.71 1355.53 1547.58 Q1355.53 1540.48 1357.89 1533.29 Q1360.24 1526.09 1365.05 1518.58 L1370.14 1518.58 Z" fill="#000000" fill-rule="nonzero" fill-opacity="1"></path><path clip-path="url(#clip200)" d="M1411.14 1546.53 L1411.14 1568.04 L1405.28 1568.04 L1405.28 1546.72 Q1405.28 1541.66 1403.31 1539.14 Q1401.33 1536.63 1397.39 1536.63 Q1392.64 1536.63 1389.91 1539.65 Q1387.17 1542.68 1387.17 1547.9 L1387.17 1568.04 L1381.28 1568.04 L1381.28 1532.4 L1387.17 1532.4 L1387.17 1537.93 Q1389.27 1534.72 1392.1 1533.13 Q1394.97 1531.54 1398.69 1531.54 Q1404.83 1531.54 1407.99 1535.36 Q1411.14 1539.14 1411.14 1546.53 Z" fill="#000000" fill-rule="nonzero" fill-opacity="1"></path><path clip-path="url(#clip200)" d="M1450.57 1539.24 Q1452.77 1535.29 1455.82 1533.41 Q1458.88 1531.54 1463.02 1531.54 Q1468.59 1531.54 1471.61 1535.45 Q1474.63 1539.33 1474.63 1546.53 L1474.63 1568.04 L1468.75 1568.04 L1468.75 1546.72 Q1468.75 1541.59 1466.93 1539.11 Q1465.12 1536.63 1461.39 1536.63 Q1456.84 1536.63 1454.2 1539.65 Q1451.56 1542.68 1451.56 1547.9 L1451.56 1568.04 L1445.67 1568.04 L1445.67 1546.72 Q1445.67 1541.56 1443.86 1539.11 Q1442.04 1536.63 1438.25 1536.63 Q1433.77 1536.63 1431.13 1539.68 Q1428.48 1542.71 1428.48 1547.9 L1428.48 1568.04 L1422.6 1568.04 L1422.6 1532.4 L1428.48 1532.4 L1428.48 1537.93 Q1430.49 1534.66 1433.29 1533.1 Q1436.09 1531.54 1439.94 1531.54 Q1443.82 1531.54 1446.53 1533.51 Q1449.27 1535.48 1450.57 1539.24 Z" fill="#000000" fill-rule="nonzero" fill-opacity="1"></path><path clip-path="url(#clip200)" d="M1485.39 1518.58 L1490.49 1518.58 Q1495.26 1526.09 1497.61 1533.29 Q1500 1540.48 1500 1547.58 Q1500 1554.71 1497.61 1561.93 Q1495.26 1569.16 1490.49 1576.64 L1485.39 1576.64 Q1489.63 1569.35 1491.69 1562.16 Q1493.8 1554.93 1493.8 1547.58 Q1493.8 1540.23 1491.69 1533.06 Q1489.63 1525.9 1485.39 1518.58 Z" fill="#000000" fill-rule="nonzero" fill-opacity="1"></path><polyline clip-path="url(#clip200)" style="stroke:#000000; stroke-linecap:round; stroke-linejoin:round; stroke-width:4; stroke-opacity:1; fill:none" points="264.287,1423.18 264.287,123.472 "></polyline>
<polyline clip-path="url(#clip200)" style="stroke:#000000; stroke-linecap:round; stroke-linejoin:round; stroke-width:4; stroke-opacity:1; fill:none" points="264.287,1386.4 283.185,1386.4 "></polyline>
<polyline clip-path="url(#clip200)" style="stroke:#000000; stroke-linecap:round; stroke-linejoin:round; stroke-width:4; stroke-opacity:1; fill:none" points="264.287,1165.78 283.185,1165.78 "></polyline>
<polyline clip-path="url(#clip200)" style="stroke:#000000; stroke-linecap:round; stroke-linejoin:round; stroke-width:4; stroke-opacity:1; fill:none" points="264.287,945.158 283.185,945.158 "></polyline>
<polyline clip-path="url(#clip200)" style="stroke:#000000; stroke-linecap:round; stroke-linejoin:round; stroke-width:4; stroke-opacity:1; fill:none" points="264.287,724.539 283.185,724.539 "></polyline>
<polyline clip-path="url(#clip200)" style="stroke:#000000; stroke-linecap:round; stroke-linejoin:round; stroke-width:4; stroke-opacity:1; fill:none" points="264.287,503.92 283.185,503.92 "></polyline>
<polyline clip-path="url(#clip200)" style="stroke:#000000; stroke-linecap:round; stroke-linejoin:round; stroke-width:4; stroke-opacity:1; fill:none" points="264.287,283.301 283.185,283.301 "></polyline>
<path clip-path="url(#clip200)" d="M216.343 1372.2 Q212.732 1372.2 210.903 1375.76 Q209.098 1379.3 209.098 1386.43 Q209.098 1393.54 210.903 1397.1 Q212.732 1400.64 216.343 1400.64 Q219.977 1400.64 221.783 1397.1 Q223.611 1393.54 223.611 1386.43 Q223.611 1379.3 221.783 1375.76 Q219.977 1372.2 216.343 1372.2 M216.343 1368.49 Q222.153 1368.49 225.209 1373.1 Q228.287 1377.68 228.287 1386.43 Q228.287 1395.16 225.209 1399.76 Q222.153 1404.35 216.343 1404.35 Q210.533 1404.35 207.454 1399.76 Q204.399 1395.16 204.399 1386.43 Q204.399 1377.68 207.454 1373.1 Q210.533 1368.49 216.343 1368.49 Z" fill="#000000" fill-rule="nonzero" fill-opacity="1"></path><path clip-path="url(#clip200)" d="M146.066 1148.5 L164.422 1148.5 L164.422 1152.43 L150.348 1152.43 L150.348 1160.9 Q151.366 1160.56 152.385 1160.4 Q153.403 1160.21 154.422 1160.21 Q160.209 1160.21 163.589 1163.38 Q166.968 1166.55 166.968 1171.97 Q166.968 1177.55 163.496 1180.65 Q160.024 1183.73 153.704 1183.73 Q151.528 1183.73 149.26 1183.36 Q147.015 1182.99 144.607 1182.25 L144.607 1177.55 Q146.691 1178.68 148.913 1179.24 Q151.135 1179.79 153.612 1179.79 Q157.616 1179.79 159.954 1177.69 Q162.292 1175.58 162.292 1171.97 Q162.292 1168.36 159.954 1166.25 Q157.616 1164.15 153.612 1164.15 Q151.737 1164.15 149.862 1164.56 Q148.01 1164.98 146.066 1165.86 L146.066 1148.5 Z" fill="#000000" fill-rule="nonzero" fill-opacity="1"></path><path clip-path="url(#clip200)" d="M186.181 1151.58 Q182.57 1151.58 180.741 1155.14 Q178.936 1158.68 178.936 1165.81 Q178.936 1172.92 180.741 1176.48 Q182.57 1180.03 186.181 1180.03 Q189.815 1180.03 191.621 1176.48 Q193.45 1172.92 193.45 1165.81 Q193.45 1158.68 191.621 1155.14 Q189.815 1151.58 186.181 1151.58 M186.181 1147.87 Q191.991 1147.87 195.047 1152.48 Q198.125 1157.06 198.125 1165.81 Q198.125 1174.54 195.047 1179.15 Q191.991 1183.73 186.181 1183.73 Q180.371 1183.73 177.292 1179.15 Q174.237 1174.54 174.237 1165.81 Q174.237 1157.06 177.292 1152.48 Q180.371 1147.87 186.181 1147.87 Z" fill="#000000" fill-rule="nonzero" fill-opacity="1"></path><path clip-path="url(#clip200)" d="M216.343 1151.58 Q212.732 1151.58 210.903 1155.14 Q209.098 1158.68 209.098 1165.81 Q209.098 1172.92 210.903 1176.48 Q212.732 1180.03 216.343 1180.03 Q219.977 1180.03 221.783 1176.48 Q223.611 1172.92 223.611 1165.81 Q223.611 1158.68 221.783 1155.14 Q219.977 1151.58 216.343 1151.58 M216.343 1147.87 Q222.153 1147.87 225.209 1152.48 Q228.287 1157.06 228.287 1165.81 Q228.287 1174.54 225.209 1179.15 Q222.153 1183.73 216.343 1183.73 Q210.533 1183.73 207.454 1179.15 Q204.399 1174.54 204.399 1165.81 Q204.399 1157.06 207.454 1152.48 Q210.533 1147.87 216.343 1147.87 Z" fill="#000000" fill-rule="nonzero" fill-opacity="1"></path><path clip-path="url(#clip200)" d="M116.668 958.503 L124.306 958.503 L124.306 932.138 L115.996 933.804 L115.996 929.545 L124.26 927.878 L128.936 927.878 L128.936 958.503 L136.575 958.503 L136.575 962.438 L116.668 962.438 L116.668 958.503 Z" fill="#000000" fill-rule="nonzero" fill-opacity="1"></path><path clip-path="url(#clip200)" d="M156.019 930.957 Q152.408 930.957 150.579 934.522 Q148.774 938.064 148.774 945.193 Q148.774 952.3 150.579 955.864 Q152.408 959.406 156.019 959.406 Q159.653 959.406 161.459 955.864 Q163.288 952.3 163.288 945.193 Q163.288 938.064 161.459 934.522 Q159.653 930.957 156.019 930.957 M156.019 927.253 Q161.829 927.253 164.885 931.86 Q167.964 936.443 167.964 945.193 Q167.964 953.92 164.885 958.526 Q161.829 963.11 156.019 963.11 Q150.209 963.11 147.13 958.526 Q144.075 953.92 144.075 945.193 Q144.075 936.443 147.13 931.86 Q150.209 927.253 156.019 927.253 Z" fill="#000000" fill-rule="nonzero" fill-opacity="1"></path><path clip-path="url(#clip200)" d="M186.181 930.957 Q182.57 930.957 180.741 934.522 Q178.936 938.064 178.936 945.193 Q178.936 952.3 180.741 955.864 Q182.57 959.406 186.181 959.406 Q189.815 959.406 191.621 955.864 Q193.45 952.3 193.45 945.193 Q193.45 938.064 191.621 934.522 Q189.815 930.957 186.181 930.957 M186.181 927.253 Q191.991 927.253 195.047 931.86 Q198.125 936.443 198.125 945.193 Q198.125 953.92 195.047 958.526 Q191.991 963.11 186.181 963.11 Q180.371 963.11 177.292 958.526 Q174.237 953.92 174.237 945.193 Q174.237 936.443 177.292 931.86 Q180.371 927.253 186.181 927.253 Z" fill="#000000" fill-rule="nonzero" fill-opacity="1"></path><path clip-path="url(#clip200)" d="M216.343 930.957 Q212.732 930.957 210.903 934.522 Q209.098 938.064 209.098 945.193 Q209.098 952.3 210.903 955.864 Q212.732 959.406 216.343 959.406 Q219.977 959.406 221.783 955.864 Q223.611 952.3 223.611 945.193 Q223.611 938.064 221.783 934.522 Q219.977 930.957 216.343 930.957 M216.343 927.253 Q222.153 927.253 225.209 931.86 Q228.287 936.443 228.287 945.193 Q228.287 953.92 225.209 958.526 Q222.153 963.11 216.343 963.11 Q210.533 963.11 207.454 958.526 Q204.399 953.92 204.399 945.193 Q204.399 936.443 207.454 931.86 Q210.533 927.253 216.343 927.253 Z" fill="#000000" fill-rule="nonzero" fill-opacity="1"></path><path clip-path="url(#clip200)" d="M116.668 737.884 L124.306 737.884 L124.306 711.518 L115.996 713.185 L115.996 708.926 L124.26 707.259 L128.936 707.259 L128.936 737.884 L136.575 737.884 L136.575 741.819 L116.668 741.819 L116.668 737.884 Z" fill="#000000" fill-rule="nonzero" fill-opacity="1"></path><path clip-path="url(#clip200)" d="M146.066 707.259 L164.422 707.259 L164.422 711.194 L150.348 711.194 L150.348 719.667 Q151.366 719.319 152.385 719.157 Q153.403 718.972 154.422 718.972 Q160.209 718.972 163.589 722.143 Q166.968 725.315 166.968 730.731 Q166.968 736.31 163.496 739.412 Q160.024 742.49 153.704 742.49 Q151.528 742.49 149.26 742.12 Q147.015 741.75 144.607 741.009 L144.607 736.31 Q146.691 737.444 148.913 738 Q151.135 738.555 153.612 738.555 Q157.616 738.555 159.954 736.449 Q162.292 734.342 162.292 730.731 Q162.292 727.12 159.954 725.014 Q157.616 722.907 153.612 722.907 Q151.737 722.907 149.862 723.324 Q148.01 723.741 146.066 724.62 L146.066 707.259 Z" fill="#000000" fill-rule="nonzero" fill-opacity="1"></path><path clip-path="url(#clip200)" d="M186.181 710.338 Q182.57 710.338 180.741 713.903 Q178.936 717.444 178.936 724.574 Q178.936 731.68 180.741 735.245 Q182.57 738.787 186.181 738.787 Q189.815 738.787 191.621 735.245 Q193.45 731.68 193.45 724.574 Q193.45 717.444 191.621 713.903 Q189.815 710.338 186.181 710.338 M186.181 706.634 Q191.991 706.634 195.047 711.241 Q198.125 715.824 198.125 724.574 Q198.125 733.301 195.047 737.907 Q191.991 742.49 186.181 742.49 Q180.371 742.49 177.292 737.907 Q174.237 733.301 174.237 724.574 Q174.237 715.824 177.292 711.241 Q180.371 706.634 186.181 706.634 Z" fill="#000000" fill-rule="nonzero" fill-opacity="1"></path><path clip-path="url(#clip200)" d="M216.343 710.338 Q212.732 710.338 210.903 713.903 Q209.098 717.444 209.098 724.574 Q209.098 731.68 210.903 735.245 Q212.732 738.787 216.343 738.787 Q219.977 738.787 221.783 735.245 Q223.611 731.68 223.611 724.574 Q223.611 717.444 221.783 713.903 Q219.977 710.338 216.343 710.338 M216.343 706.634 Q222.153 706.634 225.209 711.241 Q228.287 715.824 228.287 724.574 Q228.287 733.301 225.209 737.907 Q222.153 742.49 216.343 742.49 Q210.533 742.49 207.454 737.907 Q204.399 733.301 204.399 724.574 Q204.399 715.824 207.454 711.241 Q210.533 706.634 216.343 706.634 Z" fill="#000000" fill-rule="nonzero" fill-opacity="1"></path><path clip-path="url(#clip200)" d="M119.885 517.265 L136.204 517.265 L136.204 521.2 L114.26 521.2 L114.26 517.265 Q116.922 514.51 121.505 509.881 Q126.112 505.228 127.292 503.885 Q129.538 501.362 130.417 499.626 Q131.32 497.867 131.32 496.177 Q131.32 493.422 129.376 491.686 Q127.455 489.95 124.353 489.95 Q122.154 489.95 119.7 490.714 Q117.269 491.478 114.492 493.029 L114.492 488.307 Q117.316 487.172 119.769 486.594 Q122.223 486.015 124.26 486.015 Q129.63 486.015 132.825 488.7 Q136.019 491.385 136.019 495.876 Q136.019 498.006 135.209 499.927 Q134.422 501.825 132.316 504.418 Q131.737 505.089 128.635 508.307 Q125.533 511.501 119.885 517.265 Z" fill="#000000" fill-rule="nonzero" fill-opacity="1"></path><path clip-path="url(#clip200)" d="M156.019 489.719 Q152.408 489.719 150.579 493.283 Q148.774 496.825 148.774 503.955 Q148.774 511.061 150.579 514.626 Q152.408 518.168 156.019 518.168 Q159.653 518.168 161.459 514.626 Q163.288 511.061 163.288 503.955 Q163.288 496.825 161.459 493.283 Q159.653 489.719 156.019 489.719 M156.019 486.015 Q161.829 486.015 164.885 490.621 Q167.964 495.205 167.964 503.955 Q167.964 512.682 164.885 517.288 Q161.829 521.871 156.019 521.871 Q150.209 521.871 147.13 517.288 Q144.075 512.682 144.075 503.955 Q144.075 495.205 147.13 490.621 Q150.209 486.015 156.019 486.015 Z" fill="#000000" fill-rule="nonzero" fill-opacity="1"></path><path clip-path="url(#clip200)" d="M186.181 489.719 Q182.57 489.719 180.741 493.283 Q178.936 496.825 178.936 503.955 Q178.936 511.061 180.741 514.626 Q182.57 518.168 186.181 518.168 Q189.815 518.168 191.621 514.626 Q193.45 511.061 193.45 503.955 Q193.45 496.825 191.621 493.283 Q189.815 489.719 186.181 489.719 M186.181 486.015 Q191.991 486.015 195.047 490.621 Q198.125 495.205 198.125 503.955 Q198.125 512.682 195.047 517.288 Q191.991 521.871 186.181 521.871 Q180.371 521.871 177.292 517.288 Q174.237 512.682 174.237 503.955 Q174.237 495.205 177.292 490.621 Q180.371 486.015 186.181 486.015 Z" fill="#000000" fill-rule="nonzero" fill-opacity="1"></path><path clip-path="url(#clip200)" d="M216.343 489.719 Q212.732 489.719 210.903 493.283 Q209.098 496.825 209.098 503.955 Q209.098 511.061 210.903 514.626 Q212.732 518.168 216.343 518.168 Q219.977 518.168 221.783 514.626 Q223.611 511.061 223.611 503.955 Q223.611 496.825 221.783 493.283 Q219.977 489.719 216.343 489.719 M216.343 486.015 Q222.153 486.015 225.209 490.621 Q228.287 495.205 228.287 503.955 Q228.287 512.682 225.209 517.288 Q222.153 521.871 216.343 521.871 Q210.533 521.871 207.454 517.288 Q204.399 512.682 204.399 503.955 Q204.399 495.205 207.454 490.621 Q210.533 486.015 216.343 486.015 Z" fill="#000000" fill-rule="nonzero" fill-opacity="1"></path><path clip-path="url(#clip200)" d="M119.885 296.646 L136.204 296.646 L136.204 300.581 L114.26 300.581 L114.26 296.646 Q116.922 293.891 121.505 289.261 Q126.112 284.609 127.292 283.266 Q129.538 280.743 130.417 279.007 Q131.32 277.248 131.32 275.558 Q131.32 272.803 129.376 271.067 Q127.455 269.331 124.353 269.331 Q122.154 269.331 119.7 270.095 Q117.269 270.859 114.492 272.41 L114.492 267.687 Q117.316 266.553 119.769 265.975 Q122.223 265.396 124.26 265.396 Q129.63 265.396 132.825 268.081 Q136.019 270.766 136.019 275.257 Q136.019 277.386 135.209 279.308 Q134.422 281.206 132.316 283.799 Q131.737 284.47 128.635 287.687 Q125.533 290.882 119.885 296.646 Z" fill="#000000" fill-rule="nonzero" fill-opacity="1"></path><path clip-path="url(#clip200)" d="M146.066 266.021 L164.422 266.021 L164.422 269.956 L150.348 269.956 L150.348 278.428 Q151.366 278.081 152.385 277.919 Q153.403 277.734 154.422 277.734 Q160.209 277.734 163.589 280.905 Q166.968 284.076 166.968 289.493 Q166.968 295.072 163.496 298.173 Q160.024 301.252 153.704 301.252 Q151.528 301.252 149.26 300.882 Q147.015 300.511 144.607 299.771 L144.607 295.072 Q146.691 296.206 148.913 296.761 Q151.135 297.317 153.612 297.317 Q157.616 297.317 159.954 295.21 Q162.292 293.104 162.292 289.493 Q162.292 285.882 159.954 283.775 Q157.616 281.669 153.612 281.669 Q151.737 281.669 149.862 282.086 Q148.01 282.502 146.066 283.382 L146.066 266.021 Z" fill="#000000" fill-rule="nonzero" fill-opacity="1"></path><path clip-path="url(#clip200)" d="M186.181 269.1 Q182.57 269.1 180.741 272.664 Q178.936 276.206 178.936 283.336 Q178.936 290.442 180.741 294.007 Q182.57 297.548 186.181 297.548 Q189.815 297.548 191.621 294.007 Q193.45 290.442 193.45 283.336 Q193.45 276.206 191.621 272.664 Q189.815 269.1 186.181 269.1 M186.181 265.396 Q191.991 265.396 195.047 270.002 Q198.125 274.586 198.125 283.336 Q198.125 292.062 195.047 296.669 Q191.991 301.252 186.181 301.252 Q180.371 301.252 177.292 296.669 Q174.237 292.062 174.237 283.336 Q174.237 274.586 177.292 270.002 Q180.371 265.396 186.181 265.396 Z" fill="#000000" fill-rule="nonzero" fill-opacity="1"></path><path clip-path="url(#clip200)" d="M216.343 269.1 Q212.732 269.1 210.903 272.664 Q209.098 276.206 209.098 283.336 Q209.098 290.442 210.903 294.007 Q212.732 297.548 216.343 297.548 Q219.977 297.548 221.783 294.007 Q223.611 290.442 223.611 283.336 Q223.611 276.206 221.783 272.664 Q219.977 269.1 216.343 269.1 M216.343 265.396 Q222.153 265.396 225.209 270.002 Q228.287 274.586 228.287 283.336 Q228.287 292.062 225.209 296.669 Q222.153 301.252 216.343 301.252 Q210.533 301.252 207.454 296.669 Q204.399 292.062 204.399 283.336 Q204.399 274.586 207.454 270.002 Q210.533 265.396 216.343 265.396 Z" fill="#000000" fill-rule="nonzero" fill-opacity="1"></path><path clip-path="url(#clip200)" d="M18.0438 1238.2 L24.314 1238.2 Q22.5634 1241.86 21.704 1245.1 Q20.8447 1248.35 20.8447 1251.37 Q20.8447 1256.63 22.8817 1259.49 Q24.9187 1262.32 28.6745 1262.32 Q31.8255 1262.32 33.4488 1260.45 Q35.0402 1258.54 36.0269 1253.25 L36.8226 1249.37 Q38.1912 1242.18 41.6605 1238.77 Q45.098 1235.33 50.8908 1235.33 Q57.7976 1235.33 61.3624 1239.98 Q64.9272 1244.6 64.9272 1253.54 Q64.9272 1256.91 64.1633 1260.73 Q63.3994 1264.52 61.9035 1268.59 L55.2831 1268.59 Q57.4793 1264.68 58.5933 1260.92 Q59.7073 1257.17 59.7073 1253.54 Q59.7073 1248.03 57.543 1245.04 Q55.3786 1242.05 51.3682 1242.05 Q47.8671 1242.05 45.8937 1244.21 Q43.9204 1246.35 42.9337 1251.25 L42.1698 1255.16 Q40.7375 1262.36 37.682 1265.57 Q34.6264 1268.78 29.1837 1268.78 Q22.8817 1268.78 19.2532 1264.36 Q15.6248 1259.9 15.6248 1252.11 Q15.6248 1248.76 16.2295 1245.3 Q16.8343 1241.83 18.0438 1238.2 Z" fill="#000000" fill-rule="nonzero" fill-opacity="1"></path><path clip-path="url(#clip200)" d="M29.7248 1199.91 L35.1993 1199.91 Q33.8307 1202.39 33.1623 1204.9 Q32.4621 1207.39 32.4621 1209.93 Q32.4621 1215.63 36.0905 1218.78 Q39.6872 1221.93 46.212 1221.93 Q52.7369 1221.93 56.3653 1218.78 Q59.9619 1215.63 59.9619 1209.93 Q59.9619 1207.39 59.2935 1204.9 Q58.5933 1202.39 57.2247 1199.91 L62.6355 1199.91 Q63.7814 1202.36 64.3543 1205 Q64.9272 1207.61 64.9272 1210.57 Q64.9272 1218.62 59.8664 1223.37 Q54.8057 1228.11 46.212 1228.11 Q37.491 1228.11 32.4939 1223.33 Q27.4968 1218.53 27.4968 1210.19 Q27.4968 1207.48 28.0697 1204.9 Q28.6108 1202.33 29.7248 1199.91 Z" fill="#000000" fill-rule="nonzero" fill-opacity="1"></path><path clip-path="url(#clip200)" d="M46.0847 1173.52 Q46.0847 1180.62 47.7079 1183.36 Q49.3312 1186.09 53.2461 1186.09 Q56.3653 1186.09 58.2114 1184.06 Q60.0256 1181.99 60.0256 1178.46 Q60.0256 1173.59 56.5881 1170.66 Q53.1188 1167.7 47.3897 1167.7 L46.0847 1167.7 L46.0847 1173.52 M43.6657 1161.84 L64.0042 1161.84 L64.0042 1167.7 L58.5933 1167.7 Q61.8398 1169.7 63.3994 1172.69 Q64.9272 1175.69 64.9272 1180.02 Q64.9272 1185.49 61.8716 1188.74 Q58.7843 1191.95 53.6281 1191.95 Q47.6125 1191.95 44.5569 1187.94 Q41.5014 1183.9 41.5014 1175.91 L41.5014 1167.7 L40.9285 1167.7 Q36.8862 1167.7 34.6901 1170.37 Q32.4621 1173.01 32.4621 1177.82 Q32.4621 1180.87 33.1941 1183.77 Q33.9262 1186.67 35.3903 1189.34 L29.9795 1189.34 Q28.7381 1186.13 28.1334 1183.1 Q27.4968 1180.08 27.4968 1177.21 Q27.4968 1169.48 31.5072 1165.66 Q35.5176 1161.84 43.6657 1161.84 Z" fill="#000000" fill-rule="nonzero" fill-opacity="1"></path><path clip-path="url(#clip200)" d="M18.2347 1143.99 L28.3562 1143.99 L28.3562 1131.92 L32.9077 1131.92 L32.9077 1143.99 L52.2594 1143.99 Q56.6199 1143.99 57.8613 1142.81 Q59.1026 1141.6 59.1026 1137.94 L59.1026 1131.92 L64.0042 1131.92 L64.0042 1137.94 Q64.0042 1144.72 61.4897 1147.3 Q58.9434 1149.87 52.2594 1149.87 L32.9077 1149.87 L32.9077 1154.17 L28.3562 1154.17 L28.3562 1149.87 L18.2347 1149.87 L18.2347 1143.99 Z" fill="#000000" fill-rule="nonzero" fill-opacity="1"></path><path clip-path="url(#clip200)" d="M18.2347 1118.43 L28.3562 1118.43 L28.3562 1106.36 L32.9077 1106.36 L32.9077 1118.43 L52.2594 1118.43 Q56.6199 1118.43 57.8613 1117.25 Q59.1026 1116.04 59.1026 1112.38 L59.1026 1106.36 L64.0042 1106.36 L64.0042 1112.38 Q64.0042 1119.16 61.4897 1121.74 Q58.9434 1124.32 52.2594 1124.32 L32.9077 1124.32 L32.9077 1128.61 L28.3562 1128.61 L28.3562 1124.32 L18.2347 1124.32 L18.2347 1118.43 Z" fill="#000000" fill-rule="nonzero" fill-opacity="1"></path><path clip-path="url(#clip200)" d="M44.7161 1068.17 L47.5806 1068.17 L47.5806 1095.1 Q53.6281 1094.71 56.8109 1091.47 Q59.9619 1088.19 59.9619 1082.37 Q59.9619 1078.99 59.1344 1075.84 Q58.3069 1072.66 56.6518 1069.54 L62.1899 1069.54 Q63.5267 1072.69 64.227 1076 Q64.9272 1079.31 64.9272 1082.72 Q64.9272 1091.25 59.9619 1096.24 Q54.9967 1101.21 46.5303 1101.21 Q37.7774 1101.21 32.6531 1096.5 Q27.4968 1091.75 27.4968 1083.73 Q27.4968 1076.54 32.1438 1072.37 Q36.7589 1068.17 44.7161 1068.17 M42.9973 1074.03 Q38.1912 1074.09 35.3266 1076.73 Q32.4621 1079.34 32.4621 1083.67 Q32.4621 1088.57 35.2312 1091.53 Q38.0002 1094.46 43.0292 1094.91 L42.9973 1074.03 Z" fill="#000000" fill-rule="nonzero" fill-opacity="1"></path><path clip-path="url(#clip200)" d="M33.8307 1037.9 Q33.2578 1038.89 33.0032 1040.07 Q32.7167 1041.21 32.7167 1042.61 Q32.7167 1047.58 35.9632 1050.25 Q39.1779 1052.89 45.2253 1052.89 L64.0042 1052.89 L64.0042 1058.78 L28.3562 1058.78 L28.3562 1052.89 L33.8944 1052.89 Q30.6479 1051.05 29.0883 1048.09 Q27.4968 1045.13 27.4968 1040.89 Q27.4968 1040.29 27.5923 1039.56 Q27.656 1038.82 27.8151 1037.93 L33.8307 1037.9 Z" fill="#000000" fill-rule="nonzero" fill-opacity="1"></path><path clip-path="url(#clip200)" d="M28.3562 1031.76 L28.3562 1025.9 L64.0042 1025.9 L64.0042 1031.76 L28.3562 1031.76 M14.479 1031.76 L14.479 1025.9 L21.895 1025.9 L21.895 1031.76 L14.479 1031.76 Z" fill="#000000" fill-rule="nonzero" fill-opacity="1"></path><path clip-path="url(#clip200)" d="M42.4881 984.015 L64.0042 984.015 L64.0042 989.871 L42.679 989.871 Q37.6183 989.871 35.1038 991.845 Q32.5894 993.818 32.5894 997.765 Q32.5894 1002.51 35.6131 1005.24 Q38.6368 1007.98 43.8567 1007.98 L64.0042 1007.98 L64.0042 1013.87 L28.3562 1013.87 L28.3562 1007.98 L33.8944 1007.98 Q30.6797 1005.88 29.0883 1003.05 Q27.4968 1000.18 27.4968 996.46 Q27.4968 990.317 31.3163 987.166 Q35.1038 984.015 42.4881 984.015 Z" fill="#000000" fill-rule="nonzero" fill-opacity="1"></path><path clip-path="url(#clip200)" d="M45.7664 948.876 Q39.4007 948.876 35.8996 951.518 Q32.3984 954.128 32.3984 958.87 Q32.3984 963.581 35.8996 966.223 Q39.4007 968.833 45.7664 968.833 Q52.1003 968.833 55.6014 966.223 Q59.1026 963.581 59.1026 958.87 Q59.1026 954.128 55.6014 951.518 Q52.1003 948.876 45.7664 948.876 M59.58 943.02 Q68.683 943.02 73.1071 947.062 Q77.5631 951.104 77.5631 959.443 Q77.5631 962.531 77.0857 965.268 Q76.6401 968.005 75.6852 970.583 L69.9879 970.583 Q71.3884 968.005 72.0568 965.491 Q72.7252 962.976 72.7252 960.366 Q72.7252 954.605 69.7015 951.741 Q66.7096 948.876 60.6303 948.876 L57.7339 948.876 Q60.885 950.69 62.4446 953.523 Q64.0042 956.356 64.0042 960.303 Q64.0042 966.859 59.0071 970.87 Q54.01 974.88 45.7664 974.88 Q37.491 974.88 32.4939 970.87 Q27.4968 966.859 27.4968 960.303 Q27.4968 956.356 29.0564 953.523 Q30.616 950.69 33.7671 948.876 L28.3562 948.876 L28.3562 943.02 L59.58 943.02 Z" fill="#000000" fill-rule="nonzero" fill-opacity="1"></path><path clip-path="url(#clip200)" d="M20.1444 874.397 L26.9239 874.397 Q23.9002 877.644 22.4043 881.336 Q20.9083 884.996 20.9083 889.134 Q20.9083 897.282 25.9054 901.611 Q30.8707 905.94 40.2919 905.94 Q49.6813 905.94 54.6784 901.611 Q59.6436 897.282 59.6436 889.134 Q59.6436 884.996 58.1477 881.336 Q56.6518 877.644 53.6281 874.397 L60.3439 874.397 Q62.6355 877.771 63.7814 881.559 Q64.9272 885.315 64.9272 889.516 Q64.9272 900.306 58.3387 906.512 Q51.7183 912.719 40.2919 912.719 Q28.8336 912.719 22.2451 906.512 Q15.6248 900.306 15.6248 889.516 Q15.6248 885.251 16.7706 881.495 Q17.8846 877.708 20.1444 874.397 Z" fill="#000000" fill-rule="nonzero" fill-opacity="1"></path><path clip-path="url(#clip200)" d="M33.8307 844.065 Q33.2578 845.052 33.0032 846.229 Q32.7167 847.375 32.7167 848.776 Q32.7167 853.741 35.9632 856.414 Q39.1779 859.056 45.2253 859.056 L64.0042 859.056 L64.0042 864.944 L28.3562 864.944 L28.3562 859.056 L33.8944 859.056 Q30.6479 857.21 29.0883 854.25 Q27.4968 851.29 27.4968 847.057 Q27.4968 846.452 27.5923 845.72 Q27.656 844.988 27.8151 844.097 L33.8307 844.065 Z" fill="#000000" fill-rule="nonzero" fill-opacity="1"></path><path clip-path="url(#clip200)" d="M32.4621 825.541 Q32.4621 830.251 36.1542 832.989 Q39.8145 835.726 46.212 835.726 Q52.6095 835.726 56.3017 833.02 Q59.9619 830.283 59.9619 825.541 Q59.9619 820.862 56.2698 818.125 Q52.5777 815.387 46.212 815.387 Q39.8781 815.387 36.186 818.125 Q32.4621 820.862 32.4621 825.541 M27.4968 825.541 Q27.4968 817.902 32.4621 813.541 Q37.4273 809.181 46.212 809.181 Q54.9649 809.181 59.9619 813.541 Q64.9272 817.902 64.9272 825.541 Q64.9272 833.211 59.9619 837.572 Q54.9649 841.901 46.212 841.901 Q37.4273 841.901 32.4621 837.572 Q27.4968 833.211 27.4968 825.541 Z" fill="#000000" fill-rule="nonzero" fill-opacity="1"></path><path clip-path="url(#clip200)" d="M29.4065 776.748 L34.9447 776.748 Q33.6716 779.23 33.035 781.904 Q32.3984 784.577 32.3984 787.442 Q32.3984 791.802 33.7352 793.999 Q35.072 796.163 37.7456 796.163 Q39.7826 796.163 40.9603 794.603 Q42.1061 793.044 43.1565 788.333 L43.6021 786.328 Q44.9389 780.09 47.3897 777.48 Q49.8086 774.838 54.1691 774.838 Q59.1344 774.838 62.0308 778.785 Q64.9272 782.699 64.9272 789.574 Q64.9272 792.439 64.3543 795.558 Q63.8132 798.646 62.6992 802.083 L56.6518 802.083 Q58.3387 798.837 59.198 795.686 Q60.0256 792.535 60.0256 789.447 Q60.0256 785.309 58.6251 783.081 Q57.1929 780.853 54.6147 780.853 Q52.2276 780.853 50.9545 782.477 Q49.6813 784.068 48.5037 789.511 L48.0262 791.548 Q46.8804 796.99 44.5251 799.409 Q42.138 801.828 38.0002 801.828 Q32.9713 801.828 30.2341 798.264 Q27.4968 794.699 27.4968 788.142 Q27.4968 784.896 27.9743 782.031 Q28.4517 779.167 29.4065 776.748 Z" fill="#000000" fill-rule="nonzero" fill-opacity="1"></path><path clip-path="url(#clip200)" d="M29.4065 742.787 L34.9447 742.787 Q33.6716 745.269 33.035 747.943 Q32.3984 750.616 32.3984 753.481 Q32.3984 757.841 33.7352 760.038 Q35.072 762.202 37.7456 762.202 Q39.7826 762.202 40.9603 760.642 Q42.1061 759.083 43.1565 754.372 L43.6021 752.367 Q44.9389 746.129 47.3897 743.519 Q49.8086 740.877 54.1691 740.877 Q59.1344 740.877 62.0308 744.824 Q64.9272 748.738 64.9272 755.613 Q64.9272 758.478 64.3543 761.597 Q63.8132 764.685 62.6992 768.122 L56.6518 768.122 Q58.3387 764.876 59.198 761.724 Q60.0256 758.573 60.0256 755.486 Q60.0256 751.348 58.6251 749.12 Q57.1929 746.892 54.6147 746.892 Q52.2276 746.892 50.9545 748.516 Q49.6813 750.107 48.5037 755.55 L48.0262 757.587 Q46.8804 763.029 44.5251 765.448 Q42.138 767.867 38.0002 767.867 Q32.9713 767.867 30.2341 764.303 Q27.4968 760.738 27.4968 754.181 Q27.4968 750.935 27.9743 748.07 Q28.4517 745.205 29.4065 742.787 Z" fill="#000000" fill-rule="nonzero" fill-opacity="1"></path><path clip-path="url(#clip200)" d="M18.0438 682.089 L24.314 682.089 Q22.5634 685.75 21.704 688.996 Q20.8447 692.243 20.8447 695.267 Q20.8447 700.518 22.8817 703.383 Q24.9187 706.216 28.6745 706.216 Q31.8255 706.216 33.4488 704.338 Q35.0402 702.428 36.0269 697.144 L36.8226 693.261 Q38.1912 686.068 41.6605 682.662 Q45.098 679.225 50.8908 679.225 Q57.7976 679.225 61.3624 683.872 Q64.9272 688.487 64.9272 697.431 Q64.9272 700.805 64.1633 704.624 Q63.3994 708.412 61.9035 712.486 L55.2831 712.486 Q57.4793 708.571 58.5933 704.815 Q59.7073 701.059 59.7073 697.431 Q59.7073 691.925 57.543 688.933 Q55.3786 685.941 51.3682 685.941 Q47.8671 685.941 45.8937 688.105 Q43.9204 690.238 42.9337 695.139 L42.1698 699.054 Q40.7375 706.247 37.682 709.462 Q34.6264 712.677 29.1837 712.677 Q22.8817 712.677 19.2532 708.253 Q15.6248 703.797 15.6248 695.999 Q15.6248 692.657 16.2295 689.187 Q16.8343 685.718 18.0438 682.089 Z" fill="#000000" fill-rule="nonzero" fill-opacity="1"></path><path clip-path="url(#clip200)" d="M44.7161 638.962 L47.5806 638.962 L47.5806 665.889 Q53.6281 665.507 56.8109 662.26 Q59.9619 658.982 59.9619 653.157 Q59.9619 649.784 59.1344 646.633 Q58.3069 643.45 56.6518 640.33 L62.1899 640.33 Q63.5267 643.481 64.227 646.792 Q64.9272 650.102 64.9272 653.507 Q64.9272 662.038 59.9619 667.035 Q54.9967 672 46.5303 672 Q37.7774 672 32.6531 667.289 Q27.4968 662.547 27.4968 654.526 Q27.4968 647.333 32.1438 643.163 Q36.7589 638.962 44.7161 638.962 M42.9973 644.818 Q38.1912 644.882 35.3266 647.524 Q32.4621 650.134 32.4621 654.462 Q32.4621 659.364 35.2312 662.324 Q38.0002 665.252 43.0292 665.698 L42.9973 644.818 Z" fill="#000000" fill-rule="nonzero" fill-opacity="1"></path><path clip-path="url(#clip200)" d="M29.7248 603.696 L35.1993 603.696 Q33.8307 606.178 33.1623 608.693 Q32.4621 611.176 32.4621 613.722 Q32.4621 619.419 36.0905 622.57 Q39.6872 625.721 46.212 625.721 Q52.7369 625.721 56.3653 622.57 Q59.9619 619.419 59.9619 613.722 Q59.9619 611.176 59.2935 608.693 Q58.5933 606.178 57.2247 603.696 L62.6355 603.696 Q63.7814 606.147 64.3543 608.788 Q64.9272 611.398 64.9272 614.358 Q64.9272 622.411 59.8664 627.153 Q54.8057 631.896 46.212 631.896 Q37.491 631.896 32.4939 627.122 Q27.4968 622.316 27.4968 613.976 Q27.4968 611.271 28.0697 608.693 Q28.6108 606.115 29.7248 603.696 Z" fill="#000000" fill-rule="nonzero" fill-opacity="1"></path><path clip-path="url(#clip200)" d="M18.2347 587.718 L28.3562 587.718 L28.3562 575.655 L32.9077 575.655 L32.9077 587.718 L52.2594 587.718 Q56.6199 587.718 57.8613 586.54 Q59.1026 585.331 59.1026 581.67 L59.1026 575.655 L64.0042 575.655 L64.0042 581.67 Q64.0042 588.45 61.4897 591.028 Q58.9434 593.606 52.2594 593.606 L32.9077 593.606 L32.9077 597.903 L28.3562 597.903 L28.3562 593.606 L18.2347 593.606 L18.2347 587.718 Z" fill="#000000" fill-rule="nonzero" fill-opacity="1"></path><path clip-path="url(#clip200)" d="M28.3562 567.952 L28.3562 562.096 L64.0042 562.096 L64.0042 567.952 L28.3562 567.952 M14.479 567.952 L14.479 562.096 L21.895 562.096 L21.895 567.952 L14.479 567.952 Z" fill="#000000" fill-rule="nonzero" fill-opacity="1"></path><path clip-path="url(#clip200)" d="M32.4621 536.028 Q32.4621 540.739 36.1542 543.476 Q39.8145 546.213 46.212 546.213 Q52.6095 546.213 56.3017 543.508 Q59.9619 540.771 59.9619 536.028 Q59.9619 531.35 56.2698 528.612 Q52.5777 525.875 46.212 525.875 Q39.8781 525.875 36.186 528.612 Q32.4621 531.35 32.4621 536.028 M27.4968 536.028 Q27.4968 528.39 32.4621 524.029 Q37.4273 519.668 46.212 519.668 Q54.9649 519.668 59.9619 524.029 Q64.9272 528.39 64.9272 536.028 Q64.9272 543.699 59.9619 548.06 Q54.9649 552.388 46.212 552.388 Q37.4273 552.388 32.4621 548.06 Q27.4968 543.699 27.4968 536.028 Z" fill="#000000" fill-rule="nonzero" fill-opacity="1"></path><path clip-path="url(#clip200)" d="M42.4881 480.328 L64.0042 480.328 L64.0042 486.185 L42.679 486.185 Q37.6183 486.185 35.1038 488.158 Q32.5894 490.132 32.5894 494.078 Q32.5894 498.821 35.6131 501.558 Q38.6368 504.295 43.8567 504.295 L64.0042 504.295 L64.0042 510.184 L28.3562 510.184 L28.3562 504.295 L33.8944 504.295 Q30.6797 502.195 29.0883 499.362 Q27.4968 496.497 27.4968 492.773 Q27.4968 486.63 31.3163 483.479 Q35.1038 480.328 42.4881 480.328 Z" fill="#000000" fill-rule="nonzero" fill-opacity="1"></path><path clip-path="url(#clip200)" d="M14.5426 433.859 Q21.8632 438.124 29.0246 440.193 Q36.186 442.261 43.5384 442.261 Q50.8908 442.261 58.1159 440.193 Q65.3091 438.092 72.5979 433.859 L72.5979 438.951 Q65.1182 443.726 57.8931 446.113 Q50.668 448.468 43.5384 448.468 Q36.4406 448.468 29.2474 446.113 Q22.0542 443.757 14.5426 438.951 L14.5426 433.859 Z" fill="#000000" fill-rule="nonzero" fill-opacity="1"></path><path clip-path="url(#clip200)" d="M42.4881 392.864 L64.0042 392.864 L64.0042 398.72 L42.679 398.72 Q37.6183 398.72 35.1038 400.693 Q32.5894 402.667 32.5894 406.614 Q32.5894 411.356 35.6131 414.093 Q38.6368 416.83 43.8567 416.83 L64.0042 416.83 L64.0042 422.719 L28.3562 422.719 L28.3562 416.83 L33.8944 416.83 Q30.6797 414.73 29.0883 411.897 Q27.4968 409.033 27.4968 405.309 Q27.4968 399.166 31.3163 396.015 Q35.1038 392.864 42.4881 392.864 Z" fill="#000000" fill-rule="nonzero" fill-opacity="1"></path><path clip-path="url(#clip200)" d="M35.1993 353.428 Q31.2526 351.232 29.3747 348.176 Q27.4968 345.121 27.4968 340.983 Q27.4968 335.413 31.4117 332.389 Q35.2948 329.366 42.4881 329.366 L64.0042 329.366 L64.0042 335.254 L42.679 335.254 Q37.5546 335.254 35.072 337.068 Q32.5894 338.882 32.5894 342.606 Q32.5894 347.158 35.6131 349.8 Q38.6368 352.441 43.8567 352.441 L64.0042 352.441 L64.0042 358.33 L42.679 358.33 Q37.5228 358.33 35.072 360.144 Q32.5894 361.958 32.5894 365.746 Q32.5894 370.234 35.6449 372.875 Q38.6686 375.517 43.8567 375.517 L64.0042 375.517 L64.0042 381.405 L28.3562 381.405 L28.3562 375.517 L33.8944 375.517 Q30.616 373.512 29.0564 370.711 Q27.4968 367.91 27.4968 364.059 Q27.4968 360.176 29.4702 357.47 Q31.4436 354.733 35.1993 353.428 Z" fill="#000000" fill-rule="nonzero" fill-opacity="1"></path><path clip-path="url(#clip200)" d="M39.1142 315.297 L39.1142 301.802 L42.7427 301.802 L42.7427 320.836 L39.2416 320.836 Q38.2549 319.753 36.4725 317.748 Q26.7648 306.799 23.7729 306.799 Q21.6722 306.799 20.3991 308.454 Q19.0941 310.109 19.0941 312.815 Q19.0941 314.47 19.667 316.411 Q20.2081 318.353 21.3221 320.645 L17.4072 320.645 Q16.516 318.194 16.0704 316.093 Q15.6248 313.961 15.6248 312.146 Q15.6248 307.531 17.7255 304.762 Q19.8262 301.993 23.2636 301.993 Q27.6878 301.993 36.7271 312.528 Q38.2549 314.311 39.1142 315.297 Z" fill="#000000" fill-rule="nonzero" fill-opacity="1"></path><path clip-path="url(#clip200)" d="M14.5426 292.476 L14.5426 287.384 Q22.0542 282.61 29.2474 280.254 Q36.4406 277.867 43.5384 277.867 Q50.668 277.867 57.8931 280.254 Q65.1182 282.61 72.5979 287.384 L72.5979 292.476 Q65.3091 288.243 58.1159 286.174 Q50.8908 284.074 43.5384 284.074 Q36.186 284.074 29.0246 286.174 Q21.8632 288.243 14.5426 292.476 Z" fill="#000000" fill-rule="nonzero" fill-opacity="1"></path><path clip-path="url(#clip200)" d="M589.891 14.0809 L589.891 22.0612 Q585.233 19.8332 581.101 18.7395 Q576.969 17.6457 573.12 17.6457 Q566.436 17.6457 562.791 20.2383 Q559.185 22.8309 559.185 27.611 Q559.185 31.6214 561.575 33.6873 Q564.006 35.7128 570.73 36.9686 L575.673 37.9813 Q584.828 39.7232 589.162 44.1387 Q593.537 48.5136 593.537 55.8863 Q593.537 64.6767 587.623 69.2137 Q581.749 73.7508 570.366 73.7508 Q566.072 73.7508 561.211 72.7785 Q556.39 71.8063 551.205 69.9024 L551.205 61.4765 Q556.188 64.2716 560.968 65.6895 Q565.748 67.1073 570.366 67.1073 Q577.374 67.1073 581.182 64.3527 Q584.99 61.598 584.99 56.4939 Q584.99 52.0379 582.235 49.5264 Q579.521 47.0148 573.282 45.759 L568.3 44.7868 Q559.145 42.9639 555.053 39.075 Q550.962 35.1862 550.962 28.2591 Q550.962 20.2383 556.593 15.6203 Q562.264 11.0023 572.189 11.0023 Q576.442 11.0023 580.858 11.7719 Q585.273 12.5416 589.891 14.0809 Z" fill="#000000" fill-rule="nonzero" fill-opacity="1"></path><path clip-path="url(#clip200)" d="M638.624 28.9478 L638.624 35.9153 Q635.464 34.1734 632.264 33.3227 Q629.104 32.4315 625.863 32.4315 Q618.612 32.4315 614.602 37.0496 Q610.591 41.6271 610.591 49.9314 Q610.591 58.2358 614.602 62.8538 Q618.612 67.4314 625.863 67.4314 Q629.104 67.4314 632.264 66.5807 Q635.464 65.6895 638.624 63.9476 L638.624 70.8341 Q635.504 72.2924 632.142 73.0216 Q628.82 73.7508 625.053 73.7508 Q614.804 73.7508 608.768 67.3098 Q602.733 60.8689 602.733 49.9314 Q602.733 38.832 608.809 32.472 Q614.926 26.1121 625.539 26.1121 Q628.982 26.1121 632.264 26.8413 Q635.545 27.5299 638.624 28.9478 Z" fill="#000000" fill-rule="nonzero" fill-opacity="1"></path><path clip-path="url(#clip200)" d="M672.206 49.7694 Q663.172 49.7694 659.688 51.8354 Q656.205 53.9013 656.205 58.8839 Q656.205 62.8538 658.797 65.2034 Q661.43 67.5124 665.927 67.5124 Q672.125 67.5124 675.851 63.1374 Q679.619 58.7219 679.619 51.4303 L679.619 49.7694 L672.206 49.7694 M687.072 46.6907 L687.072 72.576 L679.619 72.576 L679.619 65.6895 Q677.067 69.8214 673.259 71.8063 Q669.451 73.7508 663.942 73.7508 Q656.974 73.7508 652.842 69.8619 Q648.751 65.9325 648.751 59.3701 Q648.751 51.7138 653.855 47.825 Q659 43.9361 669.167 43.9361 L679.619 43.9361 L679.619 43.2069 Q679.619 38.0623 676.216 35.2672 Q672.854 32.4315 666.737 32.4315 Q662.848 32.4315 659.162 33.3632 Q655.475 34.295 652.073 36.1584 L652.073 29.2718 Q656.164 27.692 660.012 26.9223 Q663.861 26.1121 667.507 26.1121 Q677.35 26.1121 682.211 31.2163 Q687.072 36.3204 687.072 46.6907 Z" fill="#000000" fill-rule="nonzero" fill-opacity="1"></path><path clip-path="url(#clip200)" d="M709.798 14.324 L709.798 27.2059 L725.151 27.2059 L725.151 32.9987 L709.798 32.9987 L709.798 57.6282 Q709.798 63.1779 711.297 64.7578 Q712.836 66.3376 717.495 66.3376 L725.151 66.3376 L725.151 72.576 L717.495 72.576 Q708.866 72.576 705.585 69.3758 Q702.304 66.1351 702.304 57.6282 L702.304 32.9987 L696.835 32.9987 L696.835 27.2059 L702.304 27.2059 L702.304 14.324 L709.798 14.324 Z" fill="#000000" fill-rule="nonzero" fill-opacity="1"></path><path clip-path="url(#clip200)" d="M742.327 14.324 L742.327 27.2059 L757.68 27.2059 L757.68 32.9987 L742.327 32.9987 L742.327 57.6282 Q742.327 63.1779 743.826 64.7578 Q745.365 66.3376 750.023 66.3376 L757.68 66.3376 L757.68 72.576 L750.023 72.576 Q741.395 72.576 738.114 69.3758 Q734.833 66.1351 734.833 57.6282 L734.833 32.9987 L729.364 32.9987 L729.364 27.2059 L734.833 27.2059 L734.833 14.324 L742.327 14.324 Z" fill="#000000" fill-rule="nonzero" fill-opacity="1"></path><path clip-path="url(#clip200)" d="M806.291 48.0275 L806.291 51.6733 L772.02 51.6733 Q772.506 59.3701 776.638 63.421 Q780.81 67.4314 788.223 67.4314 Q792.517 67.4314 796.528 66.3781 Q800.579 65.3249 804.549 63.2184 L804.549 70.267 Q800.538 71.9684 796.325 72.8596 Q792.112 73.7508 787.778 73.7508 Q776.921 73.7508 770.562 67.4314 Q764.242 61.1119 764.242 50.3365 Q764.242 39.1965 770.237 32.6746 Q776.273 26.1121 786.482 26.1121 Q795.637 26.1121 800.943 32.0264 Q806.291 37.9003 806.291 48.0275 M798.837 45.84 Q798.756 39.7232 795.394 36.0774 Q792.072 32.4315 786.563 32.4315 Q780.324 32.4315 776.557 35.9558 Q772.83 39.4801 772.263 45.8805 L798.837 45.84 Z" fill="#000000" fill-rule="nonzero" fill-opacity="1"></path><path clip-path="url(#clip200)" d="M844.815 34.1734 Q843.559 33.4443 842.06 33.1202 Q840.602 32.7556 838.819 32.7556 Q832.5 32.7556 829.097 36.8875 Q825.735 40.9789 825.735 48.6757 L825.735 72.576 L818.241 72.576 L818.241 27.2059 L825.735 27.2059 L825.735 34.2544 Q828.084 30.1225 831.852 28.1376 Q835.619 26.1121 841.007 26.1121 Q841.776 26.1121 842.708 26.2337 Q843.64 26.3147 844.774 26.5172 L844.815 34.1734 Z" fill="#000000" fill-rule="nonzero" fill-opacity="1"></path><path clip-path="url(#clip200)" d="M852.633 27.2059 L860.087 27.2059 L860.087 72.576 L852.633 72.576 L852.633 27.2059 M852.633 9.54393 L860.087 9.54393 L860.087 18.9825 L852.633 18.9825 L852.633 9.54393 Z" fill="#000000" fill-rule="nonzero" fill-opacity="1"></path><path clip-path="url(#clip200)" d="M913.396 45.1919 L913.396 72.576 L905.943 72.576 L905.943 45.4349 Q905.943 38.994 903.431 35.7938 Q900.92 32.5936 895.897 32.5936 Q889.861 32.5936 886.377 36.4419 Q882.893 40.2903 882.893 46.9338 L882.893 72.576 L875.399 72.576 L875.399 27.2059 L882.893 27.2059 L882.893 34.2544 Q885.567 30.163 889.172 28.1376 Q892.818 26.1121 897.557 26.1121 Q905.376 26.1121 909.386 30.9732 Q913.396 35.7938 913.396 45.1919 Z" fill="#000000" fill-rule="nonzero" fill-opacity="1"></path><path clip-path="url(#clip200)" d="M958.118 49.3643 Q958.118 41.2625 954.756 36.8065 Q951.434 32.3505 945.399 32.3505 Q939.403 32.3505 936.041 36.8065 Q932.719 41.2625 932.719 49.3643 Q932.719 57.4256 936.041 61.8816 Q939.403 66.3376 945.399 66.3376 Q951.434 66.3376 954.756 61.8816 Q958.118 57.4256 958.118 49.3643 M965.572 66.9452 Q965.572 78.5308 960.427 84.1616 Q955.283 89.8329 944.669 89.8329 Q940.74 89.8329 937.256 89.2252 Q933.772 88.6581 930.491 87.4428 L930.491 80.1917 Q933.772 81.9741 936.973 82.8248 Q940.173 83.6755 943.495 83.6755 Q950.827 83.6755 954.473 79.8271 Q958.118 76.0193 958.118 68.282 L958.118 64.5957 Q955.809 68.6061 952.204 70.5911 Q948.599 72.576 943.576 72.576 Q935.231 72.576 930.127 66.2161 Q925.023 59.8562 925.023 49.3643 Q925.023 38.832 930.127 32.472 Q935.231 26.1121 943.576 26.1121 Q948.599 26.1121 952.204 28.0971 Q955.809 30.082 958.118 34.0924 L958.118 27.2059 L965.572 27.2059 L965.572 66.9452 Z" fill="#000000" fill-rule="nonzero" fill-opacity="1"></path><path clip-path="url(#clip200)" d="M1039.95 28.9478 L1039.95 35.9153 Q1036.79 34.1734 1033.59 33.3227 Q1030.43 32.4315 1027.19 32.4315 Q1019.94 32.4315 1015.92 37.0496 Q1011.91 41.6271 1011.91 49.9314 Q1011.91 58.2358 1015.92 62.8538 Q1019.94 67.4314 1027.19 67.4314 Q1030.43 67.4314 1033.59 66.5807 Q1036.79 65.6895 1039.95 63.9476 L1039.95 70.8341 Q1036.83 72.2924 1033.47 73.0216 Q1030.14 73.7508 1026.38 73.7508 Q1016.13 73.7508 1010.09 67.3098 Q1004.06 60.8689 1004.06 49.9314 Q1004.06 38.832 1010.13 32.472 Q1016.25 26.1121 1026.86 26.1121 Q1030.31 26.1121 1033.59 26.8413 Q1036.87 27.5299 1039.95 28.9478 Z" fill="#000000" fill-rule="nonzero" fill-opacity="1"></path><path clip-path="url(#clip200)" d="M1079.2 34.1734 Q1077.94 33.4443 1076.45 33.1202 Q1074.99 32.7556 1073.2 32.7556 Q1066.89 32.7556 1063.48 36.8875 Q1060.12 40.9789 1060.12 48.6757 L1060.12 72.576 L1052.63 72.576 L1052.63 27.2059 L1060.12 27.2059 L1060.12 34.2544 Q1062.47 30.1225 1066.24 28.1376 Q1070 26.1121 1075.39 26.1121 Q1076.16 26.1121 1077.09 26.2337 Q1078.03 26.3147 1079.16 26.5172 L1079.2 34.1734 Z" fill="#000000" fill-rule="nonzero" fill-opacity="1"></path><path clip-path="url(#clip200)" d="M1102.78 32.4315 Q1096.78 32.4315 1093.3 37.1306 Q1089.81 41.7891 1089.81 49.9314 Q1089.81 58.0738 1093.26 62.7728 Q1096.74 67.4314 1102.78 67.4314 Q1108.73 67.4314 1112.21 62.7323 Q1115.7 58.0333 1115.7 49.9314 Q1115.7 41.8701 1112.21 37.1711 Q1108.73 32.4315 1102.78 32.4315 M1102.78 26.1121 Q1112.5 26.1121 1118.05 32.4315 Q1123.6 38.7509 1123.6 49.9314 Q1123.6 61.0714 1118.05 67.4314 Q1112.5 73.7508 1102.78 73.7508 Q1093.01 73.7508 1087.46 67.4314 Q1081.95 61.0714 1081.95 49.9314 Q1081.95 38.7509 1087.46 32.4315 Q1093.01 26.1121 1102.78 26.1121 Z" fill="#000000" fill-rule="nonzero" fill-opacity="1"></path><path clip-path="url(#clip200)" d="M1164.88 28.5427 L1164.88 35.5912 Q1161.72 33.9709 1158.31 33.1607 Q1154.91 32.3505 1151.27 32.3505 Q1145.72 32.3505 1142.92 34.0519 Q1140.17 35.7533 1140.17 39.156 Q1140.17 41.7486 1142.15 43.2475 Q1144.14 44.7058 1150.13 46.0426 L1152.68 46.6097 Q1160.62 48.3111 1163.94 51.4303 Q1167.31 54.509 1167.31 60.0587 Q1167.31 66.3781 1162.28 70.0644 Q1157.3 73.7508 1148.55 73.7508 Q1144.91 73.7508 1140.94 73.0216 Q1137.01 72.3329 1132.63 70.9151 L1132.63 63.2184 Q1136.76 65.3654 1140.77 66.4591 Q1144.78 67.5124 1148.71 67.5124 Q1153.98 67.5124 1156.82 65.73 Q1159.65 63.9071 1159.65 60.6258 Q1159.65 57.5877 1157.58 55.9673 Q1155.56 54.3469 1148.63 52.8481 L1146.04 52.2405 Q1139.11 50.7821 1136.03 47.7845 Q1132.96 44.7463 1132.96 39.4801 Q1132.96 33.0797 1137.49 29.5959 Q1142.03 26.1121 1150.37 26.1121 Q1154.51 26.1121 1158.15 26.7198 Q1161.8 27.3274 1164.88 28.5427 Z" fill="#000000" fill-rule="nonzero" fill-opacity="1"></path><path clip-path="url(#clip200)" d="M1208.1 28.5427 L1208.1 35.5912 Q1204.94 33.9709 1201.54 33.1607 Q1198.13 32.3505 1194.49 32.3505 Q1188.94 32.3505 1186.14 34.0519 Q1183.39 35.7533 1183.39 39.156 Q1183.39 41.7486 1185.37 43.2475 Q1187.36 44.7058 1193.35 46.0426 L1195.91 46.6097 Q1203.85 48.3111 1207.17 51.4303 Q1210.53 54.509 1210.53 60.0587 Q1210.53 66.3781 1205.51 70.0644 Q1200.52 73.7508 1191.77 73.7508 Q1188.13 73.7508 1184.16 73.0216 Q1180.23 72.3329 1175.85 70.9151 L1175.85 63.2184 Q1179.99 65.3654 1184 66.4591 Q1188.01 67.5124 1191.94 67.5124 Q1197.2 67.5124 1200.04 65.73 Q1202.87 63.9071 1202.87 60.6258 Q1202.87 57.5877 1200.81 55.9673 Q1198.78 54.3469 1191.86 52.8481 L1189.26 52.2405 Q1182.34 50.7821 1179.26 47.7845 Q1176.18 44.7463 1176.18 39.4801 Q1176.18 33.0797 1180.72 29.5959 Q1185.25 26.1121 1193.6 26.1121 Q1197.73 26.1121 1201.38 26.7198 Q1205.02 27.3274 1208.1 28.5427 Z" fill="#000000" fill-rule="nonzero" fill-opacity="1"></path><path clip-path="url(#clip200)" d="M1277.69 28.5427 L1277.69 35.5912 Q1274.53 33.9709 1271.13 33.1607 Q1267.73 32.3505 1264.08 32.3505 Q1258.53 32.3505 1255.74 34.0519 Q1252.98 35.7533 1252.98 39.156 Q1252.98 41.7486 1254.97 43.2475 Q1256.95 44.7058 1262.95 46.0426 L1265.5 46.6097 Q1273.44 48.3111 1276.76 51.4303 Q1280.12 54.509 1280.12 60.0587 Q1280.12 66.3781 1275.1 70.0644 Q1270.12 73.7508 1261.37 73.7508 Q1257.72 73.7508 1253.75 73.0216 Q1249.82 72.3329 1245.45 70.9151 L1245.45 63.2184 Q1249.58 65.3654 1253.59 66.4591 Q1257.6 67.5124 1261.53 67.5124 Q1266.8 67.5124 1269.63 65.73 Q1272.47 63.9071 1272.47 60.6258 Q1272.47 57.5877 1270.4 55.9673 Q1268.38 54.3469 1261.45 52.8481 L1258.86 52.2405 Q1251.93 50.7821 1248.85 47.7845 Q1245.77 44.7463 1245.77 39.4801 Q1245.77 33.0797 1250.31 29.5959 Q1254.85 26.1121 1263.19 26.1121 Q1267.32 26.1121 1270.97 26.7198 Q1274.62 27.3274 1277.69 28.5427 Z" fill="#000000" fill-rule="nonzero" fill-opacity="1"></path><path clip-path="url(#clip200)" d="M1330.8 48.0275 L1330.8 51.6733 L1296.53 51.6733 Q1297.02 59.3701 1301.15 63.421 Q1305.32 67.4314 1312.73 67.4314 Q1317.03 67.4314 1321.04 66.3781 Q1325.09 65.3249 1329.06 63.2184 L1329.06 70.267 Q1325.05 71.9684 1320.84 72.8596 Q1316.62 73.7508 1312.29 73.7508 Q1301.43 73.7508 1295.07 67.4314 Q1288.75 61.1119 1288.75 50.3365 Q1288.75 39.1965 1294.75 32.6746 Q1300.78 26.1121 1310.99 26.1121 Q1320.15 26.1121 1325.45 32.0264 Q1330.8 37.9003 1330.8 48.0275 M1323.35 45.84 Q1323.27 39.7232 1319.9 36.0774 Q1316.58 32.4315 1311.07 32.4315 Q1304.84 32.4315 1301.07 35.9558 Q1297.34 39.4801 1296.77 45.8805 L1323.35 45.84 Z" fill="#000000" fill-rule="nonzero" fill-opacity="1"></path><path clip-path="url(#clip200)" d="M1375.69 28.9478 L1375.69 35.9153 Q1372.53 34.1734 1369.33 33.3227 Q1366.17 32.4315 1362.93 32.4315 Q1355.67 32.4315 1351.66 37.0496 Q1347.65 41.6271 1347.65 49.9314 Q1347.65 58.2358 1351.66 62.8538 Q1355.67 67.4314 1362.93 67.4314 Q1366.17 67.4314 1369.33 66.5807 Q1372.53 65.6895 1375.69 63.9476 L1375.69 70.8341 Q1372.57 72.2924 1369.2 73.0216 Q1365.88 73.7508 1362.12 73.7508 Q1351.87 73.7508 1345.83 67.3098 Q1339.79 60.8689 1339.79 49.9314 Q1339.79 38.832 1345.87 32.472 Q1351.99 26.1121 1362.6 26.1121 Q1366.04 26.1121 1369.33 26.8413 Q1372.61 27.5299 1375.69 28.9478 Z" fill="#000000" fill-rule="nonzero" fill-opacity="1"></path><path clip-path="url(#clip200)" d="M1396.02 14.324 L1396.02 27.2059 L1411.37 27.2059 L1411.37 32.9987 L1396.02 32.9987 L1396.02 57.6282 Q1396.02 63.1779 1397.52 64.7578 Q1399.06 66.3376 1403.72 66.3376 L1411.37 66.3376 L1411.37 72.576 L1403.72 72.576 Q1395.09 72.576 1391.81 69.3758 Q1388.53 66.1351 1388.53 57.6282 L1388.53 32.9987 L1383.06 32.9987 L1383.06 27.2059 L1388.53 27.2059 L1388.53 14.324 L1396.02 14.324 Z" fill="#000000" fill-rule="nonzero" fill-opacity="1"></path><path clip-path="url(#clip200)" d="M1421.18 27.2059 L1428.63 27.2059 L1428.63 72.576 L1421.18 72.576 L1421.18 27.2059 M1421.18 9.54393 L1428.63 9.54393 L1428.63 18.9825 L1421.18 18.9825 L1421.18 9.54393 Z" fill="#000000" fill-rule="nonzero" fill-opacity="1"></path><path clip-path="url(#clip200)" d="M1461.81 32.4315 Q1455.81 32.4315 1452.33 37.1306 Q1448.84 41.7891 1448.84 49.9314 Q1448.84 58.0738 1452.29 62.7728 Q1455.77 67.4314 1461.81 67.4314 Q1467.76 67.4314 1471.25 62.7323 Q1474.73 58.0333 1474.73 49.9314 Q1474.73 41.8701 1471.25 37.1711 Q1467.76 32.4315 1461.81 32.4315 M1461.81 26.1121 Q1471.53 26.1121 1477.08 32.4315 Q1482.63 38.7509 1482.63 49.9314 Q1482.63 61.0714 1477.08 67.4314 Q1471.53 73.7508 1461.81 73.7508 Q1452.05 73.7508 1446.5 67.4314 Q1440.99 61.0714 1440.99 49.9314 Q1440.99 38.7509 1446.5 32.4315 Q1452.05 26.1121 1461.81 26.1121 Z" fill="#000000" fill-rule="nonzero" fill-opacity="1"></path><path clip-path="url(#clip200)" d="M1532.7 45.1919 L1532.7 72.576 L1525.24 72.576 L1525.24 45.4349 Q1525.24 38.994 1522.73 35.7938 Q1520.22 32.5936 1515.2 32.5936 Q1509.16 32.5936 1505.68 36.4419 Q1502.2 40.2903 1502.2 46.9338 L1502.2 72.576 L1494.7 72.576 L1494.7 27.2059 L1502.2 27.2059 L1502.2 34.2544 Q1504.87 30.163 1508.47 28.1376 Q1512.12 26.1121 1516.86 26.1121 Q1524.68 26.1121 1528.69 30.9732 Q1532.7 35.7938 1532.7 45.1919 Z" fill="#000000" fill-rule="nonzero" fill-opacity="1"></path><path clip-path="url(#clip200)" d="M1594.56 49.7694 Q1585.52 49.7694 1582.04 51.8354 Q1578.55 53.9013 1578.55 58.8839 Q1578.55 62.8538 1581.15 65.2034 Q1583.78 67.5124 1588.28 67.5124 Q1594.47 67.5124 1598.2 63.1374 Q1601.97 58.7219 1601.97 51.4303 L1601.97 49.7694 L1594.56 49.7694 M1609.42 46.6907 L1609.42 72.576 L1601.97 72.576 L1601.97 65.6895 Q1599.42 69.8214 1595.61 71.8063 Q1591.8 73.7508 1586.29 73.7508 Q1579.32 73.7508 1575.19 69.8619 Q1571.1 65.9325 1571.1 59.3701 Q1571.1 51.7138 1576.21 47.825 Q1581.35 43.9361 1591.52 43.9361 L1601.97 43.9361 L1601.97 43.2069 Q1601.97 38.0623 1598.57 35.2672 Q1595.2 32.4315 1589.09 32.4315 Q1585.2 32.4315 1581.51 33.3632 Q1577.83 34.295 1574.42 36.1584 L1574.42 29.2718 Q1578.51 27.692 1582.36 26.9223 Q1586.21 26.1121 1589.86 26.1121 Q1599.7 26.1121 1604.56 31.2163 Q1609.42 36.3204 1609.42 46.6907 Z" fill="#000000" fill-rule="nonzero" fill-opacity="1"></path><path clip-path="url(#clip200)" d="M1632.15 14.324 L1632.15 27.2059 L1647.5 27.2059 L1647.5 32.9987 L1632.15 32.9987 L1632.15 57.6282 Q1632.15 63.1779 1633.65 64.7578 Q1635.19 66.3376 1639.85 66.3376 L1647.5 66.3376 L1647.5 72.576 L1639.85 72.576 Q1631.22 72.576 1627.94 69.3758 Q1624.65 66.1351 1624.65 57.6282 L1624.65 32.9987 L1619.19 32.9987 L1619.19 27.2059 L1624.65 27.2059 L1624.65 14.324 L1632.15 14.324 Z" fill="#000000" fill-rule="nonzero" fill-opacity="1"></path><path clip-path="url(#clip200)" d="M1702.23 43.8551 Q1696.4 43.8551 1693.03 46.9743 Q1689.71 50.0935 1689.71 55.5622 Q1689.71 61.0309 1693.03 64.1501 Q1696.4 67.2693 1702.23 67.2693 Q1708.06 67.2693 1711.42 64.1501 Q1714.79 60.9904 1714.79 55.5622 Q1714.79 50.0935 1711.42 46.9743 Q1708.1 43.8551 1702.23 43.8551 M1694.05 40.3713 Q1688.78 39.075 1685.82 35.4697 Q1682.91 31.8644 1682.91 26.6793 Q1682.91 19.4281 1688.05 15.2152 Q1693.24 11.0023 1702.23 11.0023 Q1711.26 11.0023 1716.41 15.2152 Q1721.55 19.4281 1721.55 26.6793 Q1721.55 31.8644 1718.59 35.4697 Q1715.68 39.075 1710.45 40.3713 Q1716.37 41.7486 1719.65 45.759 Q1722.97 49.7694 1722.97 55.5622 Q1722.97 64.3527 1717.58 69.0517 Q1712.23 73.7508 1702.23 73.7508 Q1692.22 73.7508 1686.84 69.0517 Q1681.49 64.3527 1681.49 55.5622 Q1681.49 49.7694 1684.81 45.759 Q1688.13 41.7486 1694.05 40.3713 M1691.05 27.4489 Q1691.05 32.148 1693.97 34.7811 Q1696.92 37.4142 1702.23 37.4142 Q1707.5 37.4142 1710.45 34.7811 Q1713.45 32.148 1713.45 27.4489 Q1713.45 22.7499 1710.45 20.1168 Q1707.5 17.4837 1702.23 17.4837 Q1696.92 17.4837 1693.97 20.1168 Q1691.05 22.7499 1691.05 27.4489 Z" fill="#000000" fill-rule="nonzero" fill-opacity="1"></path><path clip-path="url(#clip200)" d="M1755.01 17.4837 Q1748.69 17.4837 1745.49 23.7221 Q1742.33 29.92 1742.33 42.3968 Q1742.33 54.833 1745.49 61.0714 Q1748.69 67.2693 1755.01 67.2693 Q1761.37 67.2693 1764.53 61.0714 Q1767.73 54.833 1767.73 42.3968 Q1767.73 29.92 1764.53 23.7221 Q1761.37 17.4837 1755.01 17.4837 M1755.01 11.0023 Q1765.18 11.0023 1770.53 19.0636 Q1775.91 27.0843 1775.91 42.3968 Q1775.91 57.6687 1770.53 65.73 Q1765.18 73.7508 1755.01 73.7508 Q1744.84 73.7508 1739.46 65.73 Q1734.11 57.6687 1734.11 42.3968 Q1734.11 27.0843 1739.46 19.0636 Q1744.84 11.0023 1755.01 11.0023 Z" fill="#000000" fill-rule="nonzero" fill-opacity="1"></path><path clip-path="url(#clip200)" d="M1807.8 17.4837 Q1801.48 17.4837 1798.28 23.7221 Q1795.12 29.92 1795.12 42.3968 Q1795.12 54.833 1798.28 61.0714 Q1801.48 67.2693 1807.8 67.2693 Q1814.16 67.2693 1817.32 61.0714 Q1820.52 54.833 1820.52 42.3968 Q1820.52 29.92 1817.32 23.7221 Q1814.16 17.4837 1807.8 17.4837 M1807.8 11.0023 Q1817.96 11.0023 1823.31 19.0636 Q1828.7 27.0843 1828.7 42.3968 Q1828.7 57.6687 1823.31 65.73 Q1817.96 73.7508 1807.8 73.7508 Q1797.63 73.7508 1792.24 65.73 Q1786.89 57.6687 1786.89 42.3968 Q1786.89 27.0843 1792.24 19.0636 Q1797.63 11.0023 1807.8 11.0023 Z" fill="#000000" fill-rule="nonzero" fill-opacity="1"></path><path clip-path="url(#clip200)" d="M1843.08 62.2867 L1851.63 62.2867 L1851.63 72.576 L1843.08 72.576 L1843.08 62.2867 Z" fill="#000000" fill-rule="nonzero" fill-opacity="1"></path><path clip-path="url(#clip200)" d="M1886.95 17.4837 Q1880.63 17.4837 1877.43 23.7221 Q1874.27 29.92 1874.27 42.3968 Q1874.27 54.833 1877.43 61.0714 Q1880.63 67.2693 1886.95 67.2693 Q1893.31 67.2693 1896.47 61.0714 Q1899.67 54.833 1899.67 42.3968 Q1899.67 29.92 1896.47 23.7221 Q1893.31 17.4837 1886.95 17.4837 M1886.95 11.0023 Q1897.12 11.0023 1902.47 19.0636 Q1907.85 27.0843 1907.85 42.3968 Q1907.85 57.6687 1902.47 65.73 Q1897.12 73.7508 1886.95 73.7508 Q1876.78 73.7508 1871.39 65.73 Q1866.05 57.6687 1866.05 42.3968 Q1866.05 27.0843 1871.39 19.0636 Q1876.78 11.0023 1886.95 11.0023 Z" fill="#000000" fill-rule="nonzero" fill-opacity="1"></path><path clip-path="url(#clip200)" d="M1985.27 45.1919 L1985.27 72.576 L1977.81 72.576 L1977.81 45.4349 Q1977.81 38.994 1975.3 35.7938 Q1972.79 32.5936 1967.77 32.5936 Q1961.73 32.5936 1958.25 36.4419 Q1954.76 40.2903 1954.76 46.9338 L1954.76 72.576 L1947.27 72.576 L1947.27 27.2059 L1954.76 27.2059 L1954.76 34.2544 Q1957.44 30.163 1961.04 28.1376 Q1964.69 26.1121 1969.43 26.1121 Q1977.24 26.1121 1981.26 30.9732 Q1985.27 35.7938 1985.27 45.1919 Z" fill="#000000" fill-rule="nonzero" fill-opacity="1"></path><path clip-path="url(#clip200)" d="M2035.46 35.9153 Q2038.25 30.8922 2042.14 28.5022 Q2046.03 26.1121 2051.3 26.1121 Q2058.38 26.1121 2062.23 31.0947 Q2066.08 36.0368 2066.08 45.1919 L2066.08 72.576 L2058.59 72.576 L2058.59 45.4349 Q2058.59 38.913 2056.28 35.7533 Q2053.97 32.5936 2049.23 32.5936 Q2043.44 32.5936 2040.07 36.4419 Q2036.71 40.2903 2036.71 46.9338 L2036.71 72.576 L2029.22 72.576 L2029.22 45.4349 Q2029.22 38.8725 2026.91 35.7533 Q2024.6 32.5936 2019.78 32.5936 Q2014.07 32.5936 2010.71 36.4824 Q2007.34 40.3308 2007.34 46.9338 L2007.34 72.576 L1999.85 72.576 L1999.85 27.2059 L2007.34 27.2059 L2007.34 34.2544 Q2009.9 30.082 2013.46 28.0971 Q2017.02 26.1121 2021.93 26.1121 Q2026.87 26.1121 2030.31 28.6237 Q2033.8 31.1352 2035.46 35.9153 Z" fill="#000000" fill-rule="nonzero" fill-opacity="1"></path><polyline clip-path="url(#clip202)" style="stroke:#009af9; stroke-linecap:round; stroke-linejoin:round; stroke-width:4; stroke-opacity:1; fill:none" points="323.395,1386.4 366.227,1386.39 409.058,1386.39 451.89,1386.38 494.721,1386.36 537.553,1386.33 580.384,1386.27 623.216,1386.19 666.048,1386.06 708.879,1385.87 751.711,1385.6 794.542,1385.23 837.374,1384.71 880.206,1384.03 923.037,1383.12 965.869,1381.94 1008.7,1380.42 1051.53,1378.5 1094.36,1376.08 1137.2,1373.08 1180.03,1369.38 1222.86,1364.87 1265.69,1359.4 1308.52,1352.82 1351.35,1344.95 1394.18,1335.6 1437.02,1324.55 1479.85,1311.58 1522.68,1296.4 1565.51,1278.75 1608.34,1258.3 1651.17,1234.71 1694.01,1207.61 1736.84,1176.59 1779.67,1141.2 1822.5,1100.98 1865.33,1055.4 1908.16,1003.91 1951,945.913 1993.83,880.764 2036.66,807.776 2079.49,726.211 2122.32,635.282 2165.15,534.148 2207.99,421.911 2250.82,297.619 2293.65,160.256 "></polyline>
<circle clip-path="url(#clip202)" cx="965.869" cy="1381.94" r="14.4" fill="#ff0000" fill-rule="evenodd" fill-opacity="1" stroke="#000000" stroke-opacity="1" stroke-width="3.2"></circle>
<circle clip-path="url(#clip202)" cx="1394.18" cy="1335.6" r="14.4" fill="#008000" fill-rule="evenodd" fill-opacity="1" stroke="#000000" stroke-opacity="1" stroke-width="3.2"></circle>
<circle clip-path="url(#clip202)" cx="2250.82" cy="297.619" r="14.4" fill="#0000ff" fill-rule="evenodd" fill-opacity="1" stroke="#000000" stroke-opacity="1" stroke-width="3.2"></circle>
<path clip-path="url(#clip200)" d="M333.903 425.996 L994.946 425.996 L994.946 166.796 L333.903 166.796  Z" fill="#ffffff" fill-rule="evenodd" fill-opacity="1"></path>
<polyline clip-path="url(#clip200)" style="stroke:#000000; stroke-linecap:round; stroke-linejoin:round; stroke-width:4; stroke-opacity:1; fill:none" points="333.903,425.996 994.946,425.996 994.946,166.796 333.903,166.796 333.903,425.996 "></polyline>
<polyline clip-path="url(#clip200)" style="stroke:#009af9; stroke-linecap:round; stroke-linejoin:round; stroke-width:4; stroke-opacity:1; fill:none" points="357.108,218.636 496.339,218.636 "></polyline>
<path clip-path="url(#clip200)" d="M535.378 205.962 L529.035 223.161 L541.744 223.161 L535.378 205.962 M532.739 201.356 L538.04 201.356 L551.211 235.916 L546.35 235.916 L543.202 227.05 L527.623 227.05 L524.475 235.916 L519.545 235.916 L532.739 201.356 Z" fill="#000000" fill-rule="nonzero" fill-opacity="1"></path><path clip-path="url(#clip200)" d="M556.072 199.897 L560.331 199.897 L560.331 235.916 L556.072 235.916 L556.072 199.897 Z" fill="#000000" fill-rule="nonzero" fill-opacity="1"></path><path clip-path="url(#clip200)" d="M569.243 199.897 L573.503 199.897 L573.503 235.916 L569.243 235.916 L569.243 199.897 Z" fill="#000000" fill-rule="nonzero" fill-opacity="1"></path><path clip-path="url(#clip200)" d="M612.507 213.971 Q611.789 213.555 610.933 213.37 Q610.1 213.161 609.081 213.161 Q605.47 213.161 603.526 215.522 Q601.604 217.86 601.604 222.258 L601.604 235.916 L597.322 235.916 L597.322 209.99 L601.604 209.99 L601.604 214.018 Q602.947 211.657 605.1 210.522 Q607.252 209.365 610.331 209.365 Q610.771 209.365 611.303 209.434 Q611.836 209.481 612.484 209.596 L612.507 213.971 Z" fill="#000000" fill-rule="nonzero" fill-opacity="1"></path><path clip-path="url(#clip200)" d="M628.757 222.883 Q623.595 222.883 621.604 224.064 Q619.614 225.244 619.614 228.092 Q619.614 230.36 621.095 231.703 Q622.6 233.022 625.169 233.022 Q628.711 233.022 630.84 230.522 Q632.993 227.999 632.993 223.832 L632.993 222.883 L628.757 222.883 M637.252 221.124 L637.252 235.916 L632.993 235.916 L632.993 231.981 Q631.535 234.342 629.359 235.476 Q627.183 236.587 624.035 236.587 Q620.053 236.587 617.692 234.365 Q615.354 232.119 615.354 228.369 Q615.354 223.994 618.271 221.772 Q621.211 219.55 627.021 219.55 L632.993 219.55 L632.993 219.133 Q632.993 216.194 631.049 214.596 Q629.127 212.976 625.632 212.976 Q623.41 212.976 621.303 213.508 Q619.197 214.041 617.252 215.106 L617.252 211.17 Q619.59 210.268 621.789 209.828 Q623.988 209.365 626.072 209.365 Q631.697 209.365 634.475 212.282 Q637.252 215.198 637.252 221.124 Z" fill="#000000" fill-rule="nonzero" fill-opacity="1"></path><path clip-path="url(#clip200)" d="M663.085 213.925 L663.085 199.897 L667.345 199.897 L667.345 235.916 L663.085 235.916 L663.085 232.027 Q661.743 234.342 659.683 235.476 Q657.646 236.587 654.775 236.587 Q650.076 236.587 647.113 232.837 Q644.174 229.087 644.174 222.976 Q644.174 216.865 647.113 213.115 Q650.076 209.365 654.775 209.365 Q657.646 209.365 659.683 210.499 Q661.743 211.61 663.085 213.925 M648.572 222.976 Q648.572 227.675 650.493 230.36 Q652.437 233.022 655.817 233.022 Q659.197 233.022 661.141 230.36 Q663.085 227.675 663.085 222.976 Q663.085 218.277 661.141 215.615 Q659.197 212.93 655.817 212.93 Q652.437 212.93 650.493 215.615 Q648.572 218.277 648.572 222.976 Z" fill="#000000" fill-rule="nonzero" fill-opacity="1"></path><path clip-path="url(#clip200)" d="M676.118 209.99 L680.377 209.99 L680.377 235.916 L676.118 235.916 L676.118 209.99 M676.118 199.897 L680.377 199.897 L680.377 205.291 L676.118 205.291 L676.118 199.897 Z" fill="#000000" fill-rule="nonzero" fill-opacity="1"></path><path clip-path="url(#clip200)" d="M689.289 209.99 L693.548 209.99 L693.548 235.916 L689.289 235.916 L689.289 209.99 M689.289 199.897 L693.548 199.897 L693.548 205.291 L689.289 205.291 L689.289 199.897 Z" fill="#000000" fill-rule="nonzero" fill-opacity="1"></path><circle clip-path="url(#clip200)" cx="426.724" cy="270.476" r="20.48" fill="#ff0000" fill-rule="evenodd" fill-opacity="1" stroke="#000000" stroke-opacity="1" stroke-width="4.55111"></circle>
<path clip-path="url(#clip200)" d="M525.17 283.821 L541.489 283.821 L541.489 287.756 L519.545 287.756 L519.545 283.821 Q522.207 281.066 526.79 276.436 Q531.396 271.784 532.577 270.441 Q534.822 267.918 535.702 266.182 Q536.605 264.423 536.605 262.733 Q536.605 259.978 534.66 258.242 Q532.739 256.506 529.637 256.506 Q527.438 256.506 524.984 257.27 Q522.554 258.034 519.776 259.585 L519.776 254.862 Q522.6 253.728 525.054 253.149 Q527.508 252.571 529.545 252.571 Q534.915 252.571 538.109 255.256 Q541.304 257.941 541.304 262.432 Q541.304 264.561 540.494 266.483 Q539.707 268.381 537.6 270.973 Q537.021 271.645 533.92 274.862 Q530.818 278.057 525.17 283.821 Z" fill="#000000" fill-rule="nonzero" fill-opacity="1"></path><path clip-path="url(#clip200)" d="M561.304 256.274 Q557.693 256.274 555.864 259.839 Q554.058 263.381 554.058 270.51 Q554.058 277.617 555.864 281.182 Q557.693 284.723 561.304 284.723 Q564.938 284.723 566.743 281.182 Q568.572 277.617 568.572 270.51 Q568.572 263.381 566.743 259.839 Q564.938 256.274 561.304 256.274 M561.304 252.571 Q567.114 252.571 570.169 257.177 Q573.248 261.76 573.248 270.51 Q573.248 279.237 570.169 283.844 Q567.114 288.427 561.304 288.427 Q555.493 288.427 552.415 283.844 Q549.359 279.237 549.359 270.51 Q549.359 261.76 552.415 257.177 Q555.493 252.571 561.304 252.571 Z" fill="#000000" fill-rule="nonzero" fill-opacity="1"></path><path clip-path="url(#clip200)" d="M617.484 272.108 L617.484 287.756 L613.225 287.756 L613.225 272.247 Q613.225 268.566 611.789 266.737 Q610.354 264.909 607.484 264.909 Q604.035 264.909 602.044 267.108 Q600.053 269.307 600.053 273.103 L600.053 287.756 L595.771 287.756 L595.771 261.83 L600.053 261.83 L600.053 265.858 Q601.581 263.52 603.641 262.362 Q605.725 261.205 608.433 261.205 Q612.901 261.205 615.192 263.983 Q617.484 266.737 617.484 272.108 Z" fill="#000000" fill-rule="nonzero" fill-opacity="1"></path><path clip-path="url(#clip200)" d="M646.164 266.807 Q647.762 263.936 649.984 262.571 Q652.206 261.205 655.215 261.205 Q659.266 261.205 661.465 264.052 Q663.664 266.876 663.664 272.108 L663.664 287.756 L659.382 287.756 L659.382 272.247 Q659.382 268.52 658.062 266.714 Q656.743 264.909 654.035 264.909 Q650.724 264.909 648.803 267.108 Q646.882 269.307 646.882 273.103 L646.882 287.756 L642.599 287.756 L642.599 272.247 Q642.599 268.497 641.28 266.714 Q639.961 264.909 637.206 264.909 Q633.942 264.909 632.021 267.131 Q630.1 269.33 630.1 273.103 L630.1 287.756 L625.817 287.756 L625.817 261.83 L630.1 261.83 L630.1 265.858 Q631.558 263.473 633.595 262.339 Q635.632 261.205 638.433 261.205 Q641.257 261.205 643.224 262.64 Q645.215 264.075 646.164 266.807 Z" fill="#000000" fill-rule="nonzero" fill-opacity="1"></path><path clip-path="url(#clip200)" d="M673.247 281.876 L678.132 281.876 L678.132 287.756 L673.247 287.756 L673.247 281.876 M673.247 263.242 L678.132 263.242 L678.132 269.122 L673.247 269.122 L673.247 263.242 Z" fill="#000000" fill-rule="nonzero" fill-opacity="1"></path><path clip-path="url(#clip200)" d="M704.613 283.821 L712.252 283.821 L712.252 257.455 L703.942 259.122 L703.942 254.862 L712.206 253.196 L716.882 253.196 L716.882 283.821 L724.52 283.821 L724.52 287.756 L704.613 287.756 L704.613 283.821 Z" fill="#000000" fill-rule="nonzero" fill-opacity="1"></path><path clip-path="url(#clip200)" d="M743.965 256.274 Q740.354 256.274 738.525 259.839 Q736.719 263.381 736.719 270.51 Q736.719 277.617 738.525 281.182 Q740.354 284.723 743.965 284.723 Q747.599 284.723 749.404 281.182 Q751.233 277.617 751.233 270.51 Q751.233 263.381 749.404 259.839 Q747.599 256.274 743.965 256.274 M743.965 252.571 Q749.775 252.571 752.83 257.177 Q755.909 261.76 755.909 270.51 Q755.909 279.237 752.83 283.844 Q749.775 288.427 743.965 288.427 Q738.155 288.427 735.076 283.844 Q732.02 279.237 732.02 270.51 Q732.02 261.76 735.076 257.177 Q738.155 252.571 743.965 252.571 Z" fill="#000000" fill-rule="nonzero" fill-opacity="1"></path><path clip-path="url(#clip200)" d="M764.127 281.876 L769.011 281.876 L769.011 287.756 L764.127 287.756 L764.127 281.876 Z" fill="#000000" fill-rule="nonzero" fill-opacity="1"></path><path clip-path="url(#clip200)" d="M780.006 283.821 L787.645 283.821 L787.645 257.455 L779.335 259.122 L779.335 254.862 L787.599 253.196 L792.275 253.196 L792.275 283.821 L799.913 283.821 L799.913 287.756 L780.006 287.756 L780.006 283.821 Z" fill="#000000" fill-rule="nonzero" fill-opacity="1"></path><path clip-path="url(#clip200)" d="M845.376 272.108 L845.376 287.756 L841.117 287.756 L841.117 272.247 Q841.117 268.566 839.682 266.737 Q838.247 264.909 835.376 264.909 Q831.927 264.909 829.936 267.108 Q827.946 269.307 827.946 273.103 L827.946 287.756 L823.663 287.756 L823.663 261.83 L827.946 261.83 L827.946 265.858 Q829.473 263.52 831.534 262.362 Q833.617 261.205 836.325 261.205 Q840.793 261.205 843.085 263.983 Q845.376 266.737 845.376 272.108 Z" fill="#000000" fill-rule="nonzero" fill-opacity="1"></path><path clip-path="url(#clip200)" d="M874.057 266.807 Q875.654 263.936 877.876 262.571 Q880.098 261.205 883.107 261.205 Q887.158 261.205 889.357 264.052 Q891.556 266.876 891.556 272.108 L891.556 287.756 L887.274 287.756 L887.274 272.247 Q887.274 268.52 885.955 266.714 Q884.635 264.909 881.927 264.909 Q878.617 264.909 876.695 267.108 Q874.774 269.307 874.774 273.103 L874.774 287.756 L870.492 287.756 L870.492 272.247 Q870.492 268.497 869.172 266.714 Q867.853 264.909 865.098 264.909 Q861.834 264.909 859.913 267.131 Q857.992 269.33 857.992 273.103 L857.992 287.756 L853.709 287.756 L853.709 261.83 L857.992 261.83 L857.992 265.858 Q859.45 263.473 861.487 262.339 Q863.524 261.205 866.325 261.205 Q869.149 261.205 871.117 262.64 Q873.108 264.075 874.057 266.807 Z" fill="#000000" fill-rule="nonzero" fill-opacity="1"></path><path clip-path="url(#clip200)" d="M901.788 269.654 L911.603 269.654 L911.603 272.293 L897.76 272.293 L897.76 269.747 Q898.547 269.029 900.006 267.733 Q907.968 260.673 907.968 258.497 Q907.968 256.969 906.765 256.043 Q905.561 255.094 903.593 255.094 Q902.39 255.094 900.978 255.511 Q899.566 255.904 897.899 256.714 L897.899 253.867 Q899.681 253.219 901.209 252.895 Q902.76 252.571 904.08 252.571 Q907.436 252.571 909.45 254.098 Q911.464 255.626 911.464 258.126 Q911.464 261.344 903.802 267.918 Q902.506 269.029 901.788 269.654 Z" fill="#000000" fill-rule="nonzero" fill-opacity="1"></path><circle clip-path="url(#clip200)" cx="426.724" cy="322.316" r="20.48" fill="#008000" fill-rule="evenodd" fill-opacity="1" stroke="#000000" stroke-opacity="1" stroke-width="4.55111"></circle>
<path clip-path="url(#clip200)" d="M535.17 320.962 Q538.526 321.679 540.401 323.948 Q542.299 326.216 542.299 329.549 Q542.299 334.665 538.781 337.466 Q535.262 340.267 528.781 340.267 Q526.605 340.267 524.29 339.827 Q521.998 339.411 519.545 338.554 L519.545 334.04 Q521.489 335.174 523.804 335.753 Q526.119 336.332 528.642 336.332 Q533.04 336.332 535.332 334.596 Q537.646 332.86 537.646 329.549 Q537.646 326.494 535.494 324.781 Q533.364 323.045 529.545 323.045 L525.517 323.045 L525.517 319.202 L529.73 319.202 Q533.179 319.202 535.007 317.837 Q536.836 316.448 536.836 313.855 Q536.836 311.193 534.938 309.781 Q533.063 308.346 529.545 308.346 Q527.623 308.346 525.424 308.763 Q523.225 309.179 520.586 310.059 L520.586 305.892 Q523.248 305.151 525.563 304.781 Q527.901 304.411 529.961 304.411 Q535.285 304.411 538.387 306.841 Q541.489 309.249 541.489 313.369 Q541.489 316.239 539.845 318.23 Q538.202 320.198 535.17 320.962 Z" fill="#000000" fill-rule="nonzero" fill-opacity="1"></path><path clip-path="url(#clip200)" d="M561.165 308.114 Q557.554 308.114 555.725 311.679 Q553.919 315.221 553.919 322.35 Q553.919 329.457 555.725 333.022 Q557.554 336.563 561.165 336.563 Q564.799 336.563 566.605 333.022 Q568.433 329.457 568.433 322.35 Q568.433 315.221 566.605 311.679 Q564.799 308.114 561.165 308.114 M561.165 304.411 Q566.975 304.411 570.03 309.017 Q573.109 313.6 573.109 322.35 Q573.109 331.077 570.03 335.684 Q566.975 340.267 561.165 340.267 Q555.355 340.267 552.276 335.684 Q549.22 331.077 549.22 322.35 Q549.22 313.6 552.276 309.017 Q555.355 304.411 561.165 304.411 Z" fill="#000000" fill-rule="nonzero" fill-opacity="1"></path><path clip-path="url(#clip200)" d="M617.345 323.948 L617.345 339.596 L613.086 339.596 L613.086 324.087 Q613.086 320.406 611.651 318.577 Q610.215 316.749 607.345 316.749 Q603.896 316.749 601.905 318.948 Q599.915 321.147 599.915 324.943 L599.915 339.596 L595.632 339.596 L595.632 313.67 L599.915 313.67 L599.915 317.698 Q601.442 315.36 603.502 314.202 Q605.586 313.045 608.294 313.045 Q612.762 313.045 615.053 315.823 Q617.345 318.577 617.345 323.948 Z" fill="#000000" fill-rule="nonzero" fill-opacity="1"></path><path clip-path="url(#clip200)" d="M646.025 318.647 Q647.623 315.776 649.845 314.411 Q652.067 313.045 655.076 313.045 Q659.127 313.045 661.326 315.892 Q663.525 318.716 663.525 323.948 L663.525 339.596 L659.243 339.596 L659.243 324.087 Q659.243 320.36 657.923 318.554 Q656.604 316.749 653.896 316.749 Q650.586 316.749 648.664 318.948 Q646.743 321.147 646.743 324.943 L646.743 339.596 L642.461 339.596 L642.461 324.087 Q642.461 320.337 641.141 318.554 Q639.822 316.749 637.067 316.749 Q633.803 316.749 631.882 318.971 Q629.961 321.17 629.961 324.943 L629.961 339.596 L625.678 339.596 L625.678 313.67 L629.961 313.67 L629.961 317.698 Q631.419 315.313 633.456 314.179 Q635.493 313.045 638.294 313.045 Q641.118 313.045 643.086 314.48 Q645.076 315.915 646.025 318.647 Z" fill="#000000" fill-rule="nonzero" fill-opacity="1"></path><path clip-path="url(#clip200)" d="M673.109 333.716 L677.993 333.716 L677.993 339.596 L673.109 339.596 L673.109 333.716 M673.109 315.082 L677.993 315.082 L677.993 320.962 L673.109 320.962 L673.109 315.082 Z" fill="#000000" fill-rule="nonzero" fill-opacity="1"></path><path clip-path="url(#clip200)" d="M704.474 335.661 L712.113 335.661 L712.113 309.295 L703.803 310.962 L703.803 306.702 L712.067 305.036 L716.743 305.036 L716.743 335.661 L724.381 335.661 L724.381 339.596 L704.474 339.596 L704.474 335.661 Z" fill="#000000" fill-rule="nonzero" fill-opacity="1"></path><path clip-path="url(#clip200)" d="M734.636 335.661 L742.275 335.661 L742.275 309.295 L733.965 310.962 L733.965 306.702 L742.229 305.036 L746.904 305.036 L746.904 335.661 L754.543 335.661 L754.543 339.596 L734.636 339.596 L734.636 335.661 Z" fill="#000000" fill-rule="nonzero" fill-opacity="1"></path><path clip-path="url(#clip200)" d="M764.034 305.036 L782.39 305.036 L782.39 308.971 L768.316 308.971 L768.316 317.443 Q769.335 317.096 770.353 316.934 Q771.372 316.749 772.39 316.749 Q778.177 316.749 781.557 319.92 Q784.937 323.091 784.937 328.508 Q784.937 334.086 781.464 337.188 Q777.992 340.267 771.673 340.267 Q769.497 340.267 767.228 339.897 Q764.983 339.526 762.576 338.786 L762.576 334.086 Q764.659 335.221 766.881 335.776 Q769.103 336.332 771.58 336.332 Q775.585 336.332 777.923 334.225 Q780.261 332.119 780.261 328.508 Q780.261 324.897 777.923 322.79 Q775.585 320.684 771.58 320.684 Q769.705 320.684 767.83 321.1 Q765.978 321.517 764.034 322.397 L764.034 305.036 Z" fill="#000000" fill-rule="nonzero" fill-opacity="1"></path><path clip-path="url(#clip200)" d="M794.15 333.716 L799.034 333.716 L799.034 339.596 L794.15 339.596 L794.15 333.716 Z" fill="#000000" fill-rule="nonzero" fill-opacity="1"></path><path clip-path="url(#clip200)" d="M819.219 308.114 Q815.608 308.114 813.779 311.679 Q811.974 315.221 811.974 322.35 Q811.974 329.457 813.779 333.022 Q815.608 336.563 819.219 336.563 Q822.853 336.563 824.659 333.022 Q826.487 329.457 826.487 322.35 Q826.487 315.221 824.659 311.679 Q822.853 308.114 819.219 308.114 M819.219 304.411 Q825.029 304.411 828.085 309.017 Q831.163 313.6 831.163 322.35 Q831.163 331.077 828.085 335.684 Q825.029 340.267 819.219 340.267 Q813.409 340.267 810.33 335.684 Q807.275 331.077 807.275 322.35 Q807.275 313.6 810.33 309.017 Q813.409 304.411 819.219 304.411 Z" fill="#000000" fill-rule="nonzero" fill-opacity="1"></path><path clip-path="url(#clip200)" d="M875.399 323.948 L875.399 339.596 L871.14 339.596 L871.14 324.087 Q871.14 320.406 869.705 318.577 Q868.27 316.749 865.399 316.749 Q861.95 316.749 859.959 318.948 Q857.969 321.147 857.969 324.943 L857.969 339.596 L853.686 339.596 L853.686 313.67 L857.969 313.67 L857.969 317.698 Q859.496 315.36 861.557 314.202 Q863.64 313.045 866.348 313.045 Q870.816 313.045 873.108 315.823 Q875.399 318.577 875.399 323.948 Z" fill="#000000" fill-rule="nonzero" fill-opacity="1"></path><path clip-path="url(#clip200)" d="M904.08 318.647 Q905.677 315.776 907.899 314.411 Q910.121 313.045 913.13 313.045 Q917.181 313.045 919.38 315.892 Q921.579 318.716 921.579 323.948 L921.579 339.596 L917.297 339.596 L917.297 324.087 Q917.297 320.36 915.978 318.554 Q914.658 316.749 911.95 316.749 Q908.64 316.749 906.718 318.948 Q904.797 321.147 904.797 324.943 L904.797 339.596 L900.515 339.596 L900.515 324.087 Q900.515 320.337 899.195 318.554 Q897.876 316.749 895.121 316.749 Q891.857 316.749 889.936 318.971 Q888.015 321.17 888.015 324.943 L888.015 339.596 L883.732 339.596 L883.732 313.67 L888.015 313.67 L888.015 317.698 Q889.473 315.313 891.51 314.179 Q893.547 313.045 896.348 313.045 Q899.172 313.045 901.14 314.48 Q903.131 315.915 904.08 318.647 Z" fill="#000000" fill-rule="nonzero" fill-opacity="1"></path><path clip-path="url(#clip200)" d="M931.811 321.494 L941.626 321.494 L941.626 324.133 L927.783 324.133 L927.783 321.587 Q928.57 320.869 930.029 319.573 Q937.991 312.513 937.991 310.337 Q937.991 308.809 936.788 307.883 Q935.584 306.934 933.616 306.934 Q932.413 306.934 931.001 307.351 Q929.589 307.744 927.922 308.554 L927.922 305.707 Q929.704 305.059 931.232 304.735 Q932.783 304.411 934.103 304.411 Q937.459 304.411 939.473 305.938 Q941.487 307.466 941.487 309.966 Q941.487 313.184 933.825 319.758 Q932.528 320.869 931.811 321.494 Z" fill="#000000" fill-rule="nonzero" fill-opacity="1"></path><circle clip-path="url(#clip200)" cx="426.724" cy="374.156" r="20.48" fill="#0000ff" fill-rule="evenodd" fill-opacity="1" stroke="#000000" stroke-opacity="1" stroke-width="4.55111"></circle>
<path clip-path="url(#clip200)" d="M521.003 356.876 L539.359 356.876 L539.359 360.811 L525.285 360.811 L525.285 369.283 Q526.304 368.936 527.322 368.774 Q528.341 368.589 529.359 368.589 Q535.146 368.589 538.526 371.76 Q541.906 374.931 541.906 380.348 Q541.906 385.926 538.433 389.028 Q534.961 392.107 528.642 392.107 Q526.466 392.107 524.197 391.737 Q521.952 391.366 519.545 390.626 L519.545 385.926 Q521.628 387.061 523.85 387.616 Q526.072 388.172 528.549 388.172 Q532.554 388.172 534.892 386.065 Q537.23 383.959 537.23 380.348 Q537.23 376.737 534.892 374.63 Q532.554 372.524 528.549 372.524 Q526.674 372.524 524.799 372.94 Q522.947 373.357 521.003 374.237 L521.003 356.876 Z" fill="#000000" fill-rule="nonzero" fill-opacity="1"></path><path clip-path="url(#clip200)" d="M561.118 359.954 Q557.507 359.954 555.679 363.519 Q553.873 367.061 553.873 374.19 Q553.873 381.297 555.679 384.862 Q557.507 388.403 561.118 388.403 Q564.753 388.403 566.558 384.862 Q568.387 381.297 568.387 374.19 Q568.387 367.061 566.558 363.519 Q564.753 359.954 561.118 359.954 M561.118 356.251 Q566.929 356.251 569.984 360.857 Q573.063 365.44 573.063 374.19 Q573.063 382.917 569.984 387.524 Q566.929 392.107 561.118 392.107 Q555.308 392.107 552.23 387.524 Q549.174 382.917 549.174 374.19 Q549.174 365.44 552.23 360.857 Q555.308 356.251 561.118 356.251 Z" fill="#000000" fill-rule="nonzero" fill-opacity="1"></path><path clip-path="url(#clip200)" d="M617.299 375.788 L617.299 391.436 L613.039 391.436 L613.039 375.927 Q613.039 372.246 611.604 370.417 Q610.169 368.589 607.299 368.589 Q603.85 368.589 601.859 370.788 Q599.868 372.987 599.868 376.783 L599.868 391.436 L595.586 391.436 L595.586 365.51 L599.868 365.51 L599.868 369.538 Q601.396 367.2 603.456 366.042 Q605.54 364.885 608.248 364.885 Q612.715 364.885 615.007 367.663 Q617.299 370.417 617.299 375.788 Z" fill="#000000" fill-rule="nonzero" fill-opacity="1"></path><path clip-path="url(#clip200)" d="M645.979 370.487 Q647.576 367.616 649.799 366.251 Q652.021 364.885 655.03 364.885 Q659.081 364.885 661.28 367.732 Q663.479 370.556 663.479 375.788 L663.479 391.436 L659.197 391.436 L659.197 375.927 Q659.197 372.2 657.877 370.394 Q656.558 368.589 653.849 368.589 Q650.539 368.589 648.618 370.788 Q646.697 372.987 646.697 376.783 L646.697 391.436 L642.414 391.436 L642.414 375.927 Q642.414 372.177 641.095 370.394 Q639.775 368.589 637.021 368.589 Q633.757 368.589 631.836 370.811 Q629.914 373.01 629.914 376.783 L629.914 391.436 L625.632 391.436 L625.632 365.51 L629.914 365.51 L629.914 369.538 Q631.373 367.153 633.41 366.019 Q635.447 364.885 638.248 364.885 Q641.072 364.885 643.039 366.32 Q645.03 367.755 645.979 370.487 Z" fill="#000000" fill-rule="nonzero" fill-opacity="1"></path><path clip-path="url(#clip200)" d="M673.062 385.556 L677.947 385.556 L677.947 391.436 L673.062 391.436 L673.062 385.556 M673.062 366.922 L677.947 366.922 L677.947 372.802 L673.062 372.802 L673.062 366.922 Z" fill="#000000" fill-rule="nonzero" fill-opacity="1"></path><path clip-path="url(#clip200)" d="M707.645 387.501 L723.965 387.501 L723.965 391.436 L702.02 391.436 L702.02 387.501 Q704.682 384.746 709.266 380.116 Q713.872 375.464 715.053 374.121 Q717.298 371.598 718.178 369.862 Q719.081 368.103 719.081 366.413 Q719.081 363.658 717.136 361.922 Q715.215 360.186 712.113 360.186 Q709.914 360.186 707.46 360.95 Q705.03 361.714 702.252 363.265 L702.252 358.542 Q705.076 357.408 707.53 356.829 Q709.983 356.251 712.02 356.251 Q717.391 356.251 720.585 358.936 Q723.78 361.621 723.78 366.112 Q723.78 368.241 722.969 370.163 Q722.182 372.061 720.076 374.653 Q719.497 375.325 716.395 378.542 Q713.294 381.737 707.645 387.501 Z" fill="#000000" fill-rule="nonzero" fill-opacity="1"></path><path clip-path="url(#clip200)" d="M746.627 360.95 L734.821 379.399 L746.627 379.399 L746.627 360.95 M745.4 356.876 L751.279 356.876 L751.279 379.399 L756.21 379.399 L756.21 383.288 L751.279 383.288 L751.279 391.436 L746.627 391.436 L746.627 383.288 L731.025 383.288 L731.025 378.774 L745.4 356.876 Z" fill="#000000" fill-rule="nonzero" fill-opacity="1"></path><path clip-path="url(#clip200)" d="M762.761 356.876 L784.983 356.876 L784.983 358.866 L772.437 391.436 L767.553 391.436 L779.358 360.811 L762.761 360.811 L762.761 356.876 Z" fill="#000000" fill-rule="nonzero" fill-opacity="1"></path><path clip-path="url(#clip200)" d="M804.103 359.954 Q800.492 359.954 798.663 363.519 Q796.858 367.061 796.858 374.19 Q796.858 381.297 798.663 384.862 Q800.492 388.403 804.103 388.403 Q807.737 388.403 809.543 384.862 Q811.372 381.297 811.372 374.19 Q811.372 367.061 809.543 363.519 Q807.737 359.954 804.103 359.954 M804.103 356.251 Q809.913 356.251 812.969 360.857 Q816.048 365.44 816.048 374.19 Q816.048 382.917 812.969 387.524 Q809.913 392.107 804.103 392.107 Q798.293 392.107 795.214 387.524 Q792.159 382.917 792.159 374.19 Q792.159 365.44 795.214 360.857 Q798.293 356.251 804.103 356.251 Z" fill="#000000" fill-rule="nonzero" fill-opacity="1"></path><path clip-path="url(#clip200)" d="M824.265 385.556 L829.149 385.556 L829.149 391.436 L824.265 391.436 L824.265 385.556 Z" fill="#000000" fill-rule="nonzero" fill-opacity="1"></path><path clip-path="url(#clip200)" d="M849.334 359.954 Q845.723 359.954 843.895 363.519 Q842.089 367.061 842.089 374.19 Q842.089 381.297 843.895 384.862 Q845.723 388.403 849.334 388.403 Q852.969 388.403 854.774 384.862 Q856.603 381.297 856.603 374.19 Q856.603 367.061 854.774 363.519 Q852.969 359.954 849.334 359.954 M849.334 356.251 Q855.145 356.251 858.2 360.857 Q861.279 365.44 861.279 374.19 Q861.279 382.917 858.2 387.524 Q855.145 392.107 849.334 392.107 Q843.524 392.107 840.446 387.524 Q837.39 382.917 837.39 374.19 Q837.39 365.44 840.446 360.857 Q843.524 356.251 849.334 356.251 Z" fill="#000000" fill-rule="nonzero" fill-opacity="1"></path><path clip-path="url(#clip200)" d="M905.515 375.788 L905.515 391.436 L901.256 391.436 L901.256 375.927 Q901.256 372.246 899.82 370.417 Q898.385 368.589 895.515 368.589 Q892.066 368.589 890.075 370.788 Q888.084 372.987 888.084 376.783 L888.084 391.436 L883.802 391.436 L883.802 365.51 L888.084 365.51 L888.084 369.538 Q889.612 367.2 891.672 366.042 Q893.756 364.885 896.464 364.885 Q900.931 364.885 903.223 367.663 Q905.515 370.417 905.515 375.788 Z" fill="#000000" fill-rule="nonzero" fill-opacity="1"></path><path clip-path="url(#clip200)" d="M934.195 370.487 Q935.792 367.616 938.015 366.251 Q940.237 364.885 943.246 364.885 Q947.297 364.885 949.496 367.732 Q951.695 370.556 951.695 375.788 L951.695 391.436 L947.413 391.436 L947.413 375.927 Q947.413 372.2 946.093 370.394 Q944.774 368.589 942.065 368.589 Q938.755 368.589 936.834 370.788 Q934.913 372.987 934.913 376.783 L934.913 391.436 L930.63 391.436 L930.63 375.927 Q930.63 372.177 929.311 370.394 Q927.991 368.589 925.237 368.589 Q921.973 368.589 920.052 370.811 Q918.13 373.01 918.13 376.783 L918.13 391.436 L913.848 391.436 L913.848 365.51 L918.13 365.51 L918.13 369.538 Q919.589 367.153 921.626 366.019 Q923.663 364.885 926.464 364.885 Q929.288 364.885 931.255 366.32 Q933.246 367.755 934.195 370.487 Z" fill="#000000" fill-rule="nonzero" fill-opacity="1"></path><path clip-path="url(#clip200)" d="M961.926 373.334 L971.741 373.334 L971.741 375.973 L957.899 375.973 L957.899 373.427 Q958.686 372.709 960.144 371.413 Q968.107 364.353 968.107 362.177 Q968.107 360.649 966.903 359.723 Q965.7 358.774 963.732 358.774 Q962.528 358.774 961.116 359.191 Q959.704 359.584 958.038 360.394 L958.038 357.547 Q959.82 356.899 961.348 356.575 Q962.899 356.251 964.218 356.251 Q967.575 356.251 969.588 357.778 Q971.602 359.306 971.602 361.806 Q971.602 365.024 963.94 371.598 Q962.644 372.709 961.926 373.334 Z" fill="#000000" fill-rule="nonzero" fill-opacity="1"></path></svg>