<svg xmlns="http://www.w3.org/2000/svg" xmlns:xlink="http://www.w3.org/1999/xlink" width="600" height="400" viewBox="0 0 2400 1600">
<defs>
  <clipPath id="clip280">
    <rect x="0" y="0" width="2400" height="1600"></rect>
  </clipPath>
</defs>
<path clip-path="url(#clip280)" d="M0 1600 L2400 1600 L2400 0 L0 0  Z" fill="#ffffff" fill-rule="evenodd" fill-opacity="1"></path>
<defs>
  <clipPath id="clip281">
    <rect x="480" y="0" width="1681" height="1600"></rect>
  </clipPath>
</defs>
<path clip-path="url(#clip280)" d="M339.542 1423.18 L2352.76 1423.18 L2352.76 123.472 L339.542 123.472  Z" fill="#ffffff" fill-rule="evenodd" fill-opacity="1"></path>
<defs>
  <clipPath id="clip282">
    <rect x="339" y="123" width="2014" height="1301"></rect>
  </clipPath>
</defs>
<polyline clip-path="url(#clip282)" style="stroke:#000000; stroke-linecap:round; stroke-linejoin:round; stroke-width:2; stroke-opacity:0.1; fill:none" points="602.96,1423.18 602.96,123.472 "></polyline>
<polyline clip-path="url(#clip282)" style="stroke:#000000; stroke-linecap:round; stroke-linejoin:round; stroke-width:2; stroke-opacity:0.1; fill:none" points="1015.84,1423.18 1015.84,123.472 "></polyline>
<polyline clip-path="url(#clip282)" style="stroke:#000000; stroke-linecap:round; stroke-linejoin:round; stroke-width:2; stroke-opacity:0.1; fill:none" points="1428.73,1423.18 1428.73,123.472 "></polyline>
<polyline clip-path="url(#clip282)" style="stroke:#000000; stroke-linecap:round; stroke-linejoin:round; stroke-width:2; stroke-opacity:0.1; fill:none" points="1841.61,1423.18 1841.61,123.472 "></polyline>
<polyline clip-path="url(#clip282)" style="stroke:#000000; stroke-linecap:round; stroke-linejoin:round; stroke-width:2; stroke-opacity:0.1; fill:none" points="2254.49,1423.18 2254.49,123.472 "></polyline>
<polyline clip-path="url(#clip282)" style="stroke:#000000; stroke-linecap:round; stroke-linejoin:round; stroke-width:2; stroke-opacity:0.1; fill:none" points="339.542,1386.4 2352.76,1386.4 "></polyline>
<polyline clip-path="url(#clip282)" style="stroke:#000000; stroke-linecap:round; stroke-linejoin:round; stroke-width:2; stroke-opacity:0.1; fill:none" points="339.542,1030.5 2352.76,1030.5 "></polyline>
<polyline clip-path="url(#clip282)" style="stroke:#000000; stroke-linecap:round; stroke-linejoin:round; stroke-width:2; stroke-opacity:0.1; fill:none" points="339.542,674.599 2352.76,674.599 "></polyline>
<polyline clip-path="url(#clip282)" style="stroke:#000000; stroke-linecap:round; stroke-linejoin:round; stroke-width:2; stroke-opacity:0.1; fill:none" points="339.542,318.701 2352.76,318.701 "></polyline>
<polyline clip-path="url(#clip280)" style="stroke:#000000; stroke-linecap:round; stroke-linejoin:round; stroke-width:4; stroke-opacity:1; fill:none" points="339.542,1423.18 2352.76,1423.18 "></polyline>
<polyline clip-path="url(#clip280)" style="stroke:#000000; stroke-linecap:round; stroke-linejoin:round; stroke-width:4; stroke-opacity:1; fill:none" points="602.96,1423.18 602.96,1404.28 "></polyline>
<polyline clip-path="url(#clip280)" style="stroke:#000000; stroke-linecap:round; stroke-linejoin:round; stroke-width:4; stroke-opacity:1; fill:none" points="1015.84,1423.18 1015.84,1404.28 "></polyline>
<polyline clip-path="url(#clip280)" style="stroke:#000000; stroke-linecap:round; stroke-linejoin:round; stroke-width:4; stroke-opacity:1; fill:none" points="1428.73,1423.18 1428.73,1404.28 "></polyline>
<polyline clip-path="url(#clip280)" style="stroke:#000000; stroke-linecap:round; stroke-linejoin:round; stroke-width:4; stroke-opacity:1; fill:none" points="1841.61,1423.18 1841.61,1404.28 "></polyline>
<polyline clip-path="url(#clip280)" style="stroke:#000000; stroke-linecap:round; stroke-linejoin:round; stroke-width:4; stroke-opacity:1; fill:none" points="2254.49,1423.18 2254.49,1404.28 "></polyline>
<path clip-path="url(#clip280)" d="M577.648 1481.64 L585.287 1481.64 L585.287 1455.28 L576.977 1456.95 L576.977 1452.69 L585.241 1451.02 L589.917 1451.02 L589.917 1481.64 L597.555 1481.64 L597.555 1485.58 L577.648 1485.58 L577.648 1481.64 Z" fill="#000000" fill-rule="nonzero" fill-opacity="1"></path><path clip-path="url(#clip280)" d="M617 1454.1 Q613.389 1454.1 611.56 1457.66 Q609.754 1461.2 609.754 1468.33 Q609.754 1475.44 611.56 1479.01 Q613.389 1482.55 617 1482.55 Q620.634 1482.55 622.44 1479.01 Q624.268 1475.44 624.268 1468.33 Q624.268 1461.2 622.44 1457.66 Q620.634 1454.1 617 1454.1 M617 1450.39 Q622.81 1450.39 625.865 1455 Q628.944 1459.58 628.944 1468.33 Q628.944 1477.06 625.865 1481.67 Q622.81 1486.25 617 1486.25 Q611.19 1486.25 608.111 1481.67 Q605.055 1477.06 605.055 1468.33 Q605.055 1459.58 608.111 1455 Q611.19 1450.39 617 1450.39 Z" fill="#000000" fill-rule="nonzero" fill-opacity="1"></path><path clip-path="url(#clip280)" d="M994.616 1481.64 L1010.94 1481.64 L1010.94 1485.58 L988.991 1485.58 L988.991 1481.64 Q991.653 1478.89 996.236 1474.26 Q1000.84 1469.61 1002.02 1468.27 Q1004.27 1465.74 1005.15 1464.01 Q1006.05 1462.25 1006.05 1460.56 Q1006.05 1457.8 1004.11 1456.07 Q1002.19 1454.33 999.084 1454.33 Q996.885 1454.33 994.431 1455.09 Q992 1455.86 989.223 1457.41 L989.223 1452.69 Q992.047 1451.55 994.5 1450.97 Q996.954 1450.39 998.991 1450.39 Q1004.36 1450.39 1007.56 1453.08 Q1010.75 1455.77 1010.75 1460.26 Q1010.75 1462.39 1009.94 1464.31 Q1009.15 1466.2 1007.05 1468.8 Q1006.47 1469.47 1003.37 1472.69 Q1000.26 1475.88 994.616 1481.64 Z" fill="#000000" fill-rule="nonzero" fill-opacity="1"></path><path clip-path="url(#clip280)" d="M1030.75 1454.1 Q1027.14 1454.1 1025.31 1457.66 Q1023.5 1461.2 1023.5 1468.33 Q1023.5 1475.44 1025.31 1479.01 Q1027.14 1482.55 1030.75 1482.55 Q1034.38 1482.55 1036.19 1479.01 Q1038.02 1475.44 1038.02 1468.33 Q1038.02 1461.2 1036.19 1457.66 Q1034.38 1454.1 1030.75 1454.1 M1030.75 1450.39 Q1036.56 1450.39 1039.62 1455 Q1042.69 1459.58 1042.69 1468.33 Q1042.69 1477.06 1039.62 1481.67 Q1036.56 1486.25 1030.75 1486.25 Q1024.94 1486.25 1021.86 1481.67 Q1018.81 1477.06 1018.81 1468.33 Q1018.81 1459.58 1021.86 1455 Q1024.94 1450.39 1030.75 1450.39 Z" fill="#000000" fill-rule="nonzero" fill-opacity="1"></path><path clip-path="url(#clip280)" d="M1417.57 1466.95 Q1420.92 1467.66 1422.8 1469.93 Q1424.7 1472.2 1424.7 1475.53 Q1424.7 1480.65 1421.18 1483.45 Q1417.66 1486.25 1411.18 1486.25 Q1409 1486.25 1406.69 1485.81 Q1404.4 1485.39 1401.94 1484.54 L1401.94 1480.02 Q1403.89 1481.16 1406.2 1481.74 Q1408.52 1482.32 1411.04 1482.32 Q1415.44 1482.32 1417.73 1480.58 Q1420.04 1478.84 1420.04 1475.53 Q1420.04 1472.48 1417.89 1470.77 Q1415.76 1469.03 1411.94 1469.03 L1407.92 1469.03 L1407.92 1465.19 L1412.13 1465.19 Q1415.58 1465.19 1417.41 1463.82 Q1419.23 1462.43 1419.23 1459.84 Q1419.23 1457.18 1417.34 1455.77 Q1415.46 1454.33 1411.94 1454.33 Q1410.02 1454.33 1407.82 1454.75 Q1405.62 1455.16 1402.98 1456.04 L1402.98 1451.88 Q1405.65 1451.14 1407.96 1450.77 Q1410.3 1450.39 1412.36 1450.39 Q1417.68 1450.39 1420.79 1452.83 Q1423.89 1455.23 1423.89 1459.35 Q1423.89 1462.22 1422.24 1464.21 Q1420.6 1466.18 1417.57 1466.95 Z" fill="#000000" fill-rule="nonzero" fill-opacity="1"></path><path clip-path="url(#clip280)" d="M1443.56 1454.1 Q1439.95 1454.1 1438.12 1457.66 Q1436.32 1461.2 1436.32 1468.33 Q1436.32 1475.44 1438.12 1479.01 Q1439.95 1482.55 1443.56 1482.55 Q1447.2 1482.55 1449 1479.01 Q1450.83 1475.44 1450.83 1468.33 Q1450.83 1461.2 1449 1457.66 Q1447.2 1454.1 1443.56 1454.1 M1443.56 1450.39 Q1449.37 1450.39 1452.43 1455 Q1455.51 1459.58 1455.51 1468.33 Q1455.51 1477.06 1452.43 1481.67 Q1449.37 1486.25 1443.56 1486.25 Q1437.75 1486.25 1434.67 1481.67 Q1431.62 1477.06 1431.62 1468.33 Q1431.62 1459.58 1434.67 1455 Q1437.75 1450.39 1443.56 1450.39 Z" fill="#000000" fill-rule="nonzero" fill-opacity="1"></path><path clip-path="url(#clip280)" d="M1829.78 1455.09 L1817.97 1473.54 L1829.78 1473.54 L1829.78 1455.09 M1828.55 1451.02 L1834.43 1451.02 L1834.43 1473.54 L1839.36 1473.54 L1839.36 1477.43 L1834.43 1477.43 L1834.43 1485.58 L1829.78 1485.58 L1829.78 1477.43 L1814.18 1477.43 L1814.18 1472.92 L1828.55 1451.02 Z" fill="#000000" fill-rule="nonzero" fill-opacity="1"></path><path clip-path="url(#clip280)" d="M1857.09 1454.1 Q1853.48 1454.1 1851.65 1457.66 Q1849.85 1461.2 1849.85 1468.33 Q1849.85 1475.44 1851.65 1479.01 Q1853.48 1482.55 1857.09 1482.55 Q1860.73 1482.55 1862.53 1479.01 Q1864.36 1475.44 1864.36 1468.33 Q1864.36 1461.2 1862.53 1457.66 Q1860.73 1454.1 1857.09 1454.1 M1857.09 1450.39 Q1862.9 1450.39 1865.96 1455 Q1869.04 1459.58 1869.04 1468.33 Q1869.04 1477.06 1865.96 1481.67 Q1862.9 1486.25 1857.09 1486.25 Q1851.28 1486.25 1848.2 1481.67 Q1845.15 1477.06 1845.15 1468.33 Q1845.15 1459.58 1848.2 1455 Q1851.28 1450.39 1857.09 1450.39 Z" fill="#000000" fill-rule="nonzero" fill-opacity="1"></path><path clip-path="url(#clip280)" d="M2229.19 1451.02 L2247.55 1451.02 L2247.55 1454.96 L2233.47 1454.96 L2233.47 1463.43 Q2234.49 1463.08 2235.51 1462.92 Q2236.53 1462.73 2237.55 1462.73 Q2243.33 1462.73 2246.71 1465.9 Q2250.09 1469.08 2250.09 1474.49 Q2250.09 1480.07 2246.62 1483.17 Q2243.15 1486.25 2236.83 1486.25 Q2234.65 1486.25 2232.38 1485.88 Q2230.14 1485.51 2227.73 1484.77 L2227.73 1480.07 Q2229.81 1481.2 2232.04 1481.76 Q2234.26 1482.32 2236.74 1482.32 Q2240.74 1482.32 2243.08 1480.21 Q2245.42 1478.1 2245.42 1474.49 Q2245.42 1470.88 2243.08 1468.77 Q2240.74 1466.67 2236.74 1466.67 Q2234.86 1466.67 2232.99 1467.08 Q2231.13 1467.5 2229.19 1468.38 L2229.19 1451.02 Z" fill="#000000" fill-rule="nonzero" fill-opacity="1"></path><path clip-path="url(#clip280)" d="M2269.3 1454.1 Q2265.69 1454.1 2263.86 1457.66 Q2262.06 1461.2 2262.06 1468.33 Q2262.06 1475.44 2263.86 1479.01 Q2265.69 1482.55 2269.3 1482.55 Q2272.94 1482.55 2274.74 1479.01 Q2276.57 1475.44 2276.57 1468.33 Q2276.57 1461.2 2274.74 1457.66 Q2272.94 1454.1 2269.3 1454.1 M2269.3 1450.39 Q2275.11 1450.39 2278.17 1455 Q2281.25 1459.58 2281.25 1468.33 Q2281.25 1477.06 2278.17 1481.67 Q2275.11 1486.25 2269.3 1486.25 Q2263.49 1486.25 2260.42 1481.67 Q2257.36 1477.06 2257.36 1468.33 Q2257.36 1459.58 2260.42 1455 Q2263.49 1450.39 2269.3 1450.39 Z" fill="#000000" fill-rule="nonzero" fill-opacity="1"></path><path clip-path="url(#clip280)" d="M1177.2 1545.76 Q1179.27 1546.46 1181.21 1548.76 Q1183.19 1551.05 1185.16 1555.06 L1191.68 1568.04 L1184.78 1568.04 L1178.7 1555.85 Q1176.34 1551.08 1174.12 1549.52 Q1171.92 1547.96 1168.1 1547.96 L1161.1 1547.96 L1161.1 1568.04 L1154.67 1568.04 L1154.67 1520.52 L1169.18 1520.52 Q1177.33 1520.52 1181.34 1523.93 Q1185.35 1527.34 1185.35 1534.21 Q1185.35 1538.7 1183.25 1541.66 Q1181.18 1544.62 1177.2 1545.76 M1161.1 1525.81 L1161.1 1542.68 L1169.18 1542.68 Q1173.83 1542.68 1176.18 1540.54 Q1178.57 1538.38 1178.57 1534.21 Q1178.57 1530.04 1176.18 1527.94 Q1173.83 1525.81 1169.18 1525.81 L1161.1 1525.81 Z" fill="#000000" fill-rule="nonzero" fill-opacity="1"></path><path clip-path="url(#clip280)" d="M1214.47 1550.12 Q1207.38 1550.12 1204.64 1551.75 Q1201.9 1553.37 1201.9 1557.29 Q1201.9 1560.4 1203.94 1562.25 Q1206.01 1564.07 1209.54 1564.07 Q1214.41 1564.07 1217.34 1560.63 Q1220.3 1557.16 1220.3 1551.43 L1220.3 1550.12 L1214.47 1550.12 M1226.16 1547.71 L1226.16 1568.04 L1220.3 1568.04 L1220.3 1562.63 Q1218.29 1565.88 1215.3 1567.44 Q1212.31 1568.97 1207.98 1568.97 Q1202.51 1568.97 1199.26 1565.91 Q1196.05 1562.82 1196.05 1557.67 Q1196.05 1551.65 1200.06 1548.6 Q1204.1 1545.54 1212.09 1545.54 L1220.3 1545.54 L1220.3 1544.97 Q1220.3 1540.93 1217.63 1538.73 Q1214.98 1536.5 1210.18 1536.5 Q1207.12 1536.5 1204.23 1537.23 Q1201.33 1537.97 1198.66 1539.43 L1198.66 1534.02 Q1201.87 1532.78 1204.89 1532.17 Q1207.92 1531.54 1210.78 1531.54 Q1218.52 1531.54 1222.34 1535.55 Q1226.16 1539.56 1226.16 1547.71 Z" fill="#000000" fill-rule="nonzero" fill-opacity="1"></path><path clip-path="url(#clip280)" d="M1261.68 1537.81 L1261.68 1518.52 L1267.53 1518.52 L1267.53 1568.04 L1261.68 1568.04 L1261.68 1562.7 Q1259.83 1565.88 1257 1567.44 Q1254.2 1568.97 1250.25 1568.97 Q1243.79 1568.97 1239.71 1563.81 Q1235.67 1558.65 1235.67 1550.25 Q1235.67 1541.85 1239.71 1536.69 Q1243.79 1531.54 1250.25 1531.54 Q1254.2 1531.54 1257 1533.1 Q1259.83 1534.62 1261.68 1537.81 M1241.72 1550.25 Q1241.72 1556.71 1244.36 1560.4 Q1247.03 1564.07 1251.68 1564.07 Q1256.33 1564.07 1259 1560.4 Q1261.68 1556.71 1261.68 1550.25 Q1261.68 1543.79 1259 1540.13 Q1256.33 1536.44 1251.68 1536.44 Q1247.03 1536.44 1244.36 1540.13 Q1241.72 1543.79 1241.72 1550.25 Z" fill="#000000" fill-rule="nonzero" fill-opacity="1"></path><path clip-path="url(#clip280)" d="M1279.6 1532.4 L1285.45 1532.4 L1285.45 1568.04 L1279.6 1568.04 L1279.6 1532.4 M1279.6 1518.52 L1285.45 1518.52 L1285.45 1525.93 L1279.6 1525.93 L1279.6 1518.52 Z" fill="#000000" fill-rule="nonzero" fill-opacity="1"></path><path clip-path="url(#clip280)" d="M1297.1 1553.98 L1297.1 1532.4 L1302.96 1532.4 L1302.96 1553.75 Q1302.96 1558.81 1304.93 1561.36 Q1306.9 1563.87 1310.85 1563.87 Q1315.59 1563.87 1318.33 1560.85 Q1321.1 1557.83 1321.1 1552.61 L1321.1 1532.4 L1326.96 1532.4 L1326.96 1568.04 L1321.1 1568.04 L1321.1 1562.57 Q1318.97 1565.82 1316.13 1567.41 Q1313.33 1568.97 1309.61 1568.97 Q1303.47 1568.97 1300.28 1565.15 Q1297.1 1561.33 1297.1 1553.98 M1311.84 1531.54 L1311.84 1531.54 Z" fill="#000000" fill-rule="nonzero" fill-opacity="1"></path><path clip-path="url(#clip280)" d="M1361.74 1533.45 L1361.74 1538.98 Q1359.26 1537.71 1356.59 1537.07 Q1353.91 1536.44 1351.05 1536.44 Q1346.69 1536.44 1344.49 1537.77 Q1342.33 1539.11 1342.33 1541.79 Q1342.33 1543.82 1343.89 1545 Q1345.45 1546.15 1350.16 1547.2 L1352.16 1547.64 Q1358.4 1548.98 1361.01 1551.43 Q1363.65 1553.85 1363.65 1558.21 Q1363.65 1563.17 1359.71 1566.07 Q1355.79 1568.97 1348.92 1568.97 Q1346.05 1568.97 1342.93 1568.39 Q1339.85 1567.85 1336.41 1566.74 L1336.41 1560.69 Q1339.66 1562.38 1342.81 1563.24 Q1345.96 1564.07 1349.05 1564.07 Q1353.18 1564.07 1355.41 1562.66 Q1357.64 1561.23 1357.64 1558.65 Q1357.64 1556.27 1356.02 1554.99 Q1354.42 1553.72 1348.98 1552.54 L1346.94 1552.07 Q1341.5 1550.92 1339.08 1548.56 Q1336.66 1546.18 1336.66 1542.04 Q1336.66 1537.01 1340.23 1534.27 Q1343.79 1531.54 1350.35 1531.54 Q1353.6 1531.54 1356.46 1532.01 Q1359.33 1532.49 1361.74 1533.45 Z" fill="#000000" fill-rule="nonzero" fill-opacity="1"></path><path clip-path="url(#clip280)" d="M1407.77 1518.58 Q1403.5 1525.9 1401.43 1533.06 Q1399.37 1540.23 1399.37 1547.58 Q1399.37 1554.93 1401.43 1562.16 Q1403.54 1569.35 1407.77 1576.64 L1402.68 1576.64 Q1397.9 1569.16 1395.51 1561.93 Q1393.16 1554.71 1393.16 1547.58 Q1393.16 1540.48 1395.51 1533.29 Q1397.87 1526.09 1402.68 1518.58 L1407.77 1518.58 Z" fill="#000000" fill-rule="nonzero" fill-opacity="1"></path><path clip-path="url(#clip280)" d="M1448.76 1546.53 L1448.76 1568.04 L1442.91 1568.04 L1442.91 1546.72 Q1442.91 1541.66 1440.93 1539.14 Q1438.96 1536.63 1435.01 1536.63 Q1430.27 1536.63 1427.53 1539.65 Q1424.8 1542.68 1424.8 1547.9 L1424.8 1568.04 L1418.91 1568.04 L1418.91 1532.4 L1424.8 1532.4 L1424.8 1537.93 Q1426.9 1534.72 1429.73 1533.13 Q1432.6 1531.54 1436.32 1531.54 Q1442.46 1531.54 1445.61 1535.36 Q1448.76 1539.14 1448.76 1546.53 Z" fill="#000000" fill-rule="nonzero" fill-opacity="1"></path><path clip-path="url(#clip280)" d="M1488.2 1539.24 Q1490.4 1535.29 1493.45 1533.41 Q1496.51 1531.54 1500.64 1531.54 Q1506.21 1531.54 1509.24 1535.45 Q1512.26 1539.33 1512.26 1546.53 L1512.26 1568.04 L1506.37 1568.04 L1506.37 1546.72 Q1506.37 1541.59 1504.56 1539.11 Q1502.75 1536.63 1499.02 1536.63 Q1494.47 1536.63 1491.83 1539.65 Q1489.19 1542.68 1489.19 1547.9 L1489.19 1568.04 L1483.3 1568.04 L1483.3 1546.72 Q1483.3 1541.56 1481.48 1539.11 Q1479.67 1536.63 1475.88 1536.63 Q1471.39 1536.63 1468.75 1539.68 Q1466.11 1542.71 1466.11 1547.9 L1466.11 1568.04 L1460.22 1568.04 L1460.22 1532.4 L1466.11 1532.4 L1466.11 1537.93 Q1468.12 1534.66 1470.92 1533.1 Q1473.72 1531.54 1477.57 1531.54 Q1481.45 1531.54 1484.16 1533.51 Q1486.89 1535.48 1488.2 1539.24 Z" fill="#000000" fill-rule="nonzero" fill-opacity="1"></path><path clip-path="url(#clip280)" d="M1523.02 1518.58 L1528.11 1518.58 Q1532.89 1526.09 1535.24 1533.29 Q1537.63 1540.48 1537.63 1547.58 Q1537.63 1554.71 1535.24 1561.93 Q1532.89 1569.16 1528.11 1576.64 L1523.02 1576.64 Q1527.25 1569.35 1529.32 1562.16 Q1531.42 1554.93 1531.42 1547.58 Q1531.42 1540.23 1529.32 1533.06 Q1527.25 1525.9 1523.02 1518.58 Z" fill="#000000" fill-rule="nonzero" fill-opacity="1"></path><polyline clip-path="url(#clip280)" style="stroke:#000000; stroke-linecap:round; stroke-linejoin:round; stroke-width:4; stroke-opacity:1; fill:none" points="339.542,1423.18 339.542,123.472 "></polyline>
<polyline clip-path="url(#clip280)" style="stroke:#000000; stroke-linecap:round; stroke-linejoin:round; stroke-width:4; stroke-opacity:1; fill:none" points="339.542,1386.4 358.439,1386.4 "></polyline>
<polyline clip-path="url(#clip280)" style="stroke:#000000; stroke-linecap:round; stroke-linejoin:round; stroke-width:4; stroke-opacity:1; fill:none" points="339.542,1030.5 358.439,1030.5 "></polyline>
<polyline clip-path="url(#clip280)" style="stroke:#000000; stroke-linecap:round; stroke-linejoin:round; stroke-width:4; stroke-opacity:1; fill:none" points="339.542,674.599 358.439,674.599 "></polyline>
<polyline clip-path="url(#clip280)" style="stroke:#000000; stroke-linecap:round; stroke-linejoin:round; stroke-width:4; stroke-opacity:1; fill:none" points="339.542,318.701 358.439,318.701 "></polyline>
<path clip-path="url(#clip280)" d="M291.597 1372.2 Q287.986 1372.2 286.157 1375.76 Q284.352 1379.3 284.352 1386.43 Q284.352 1393.54 286.157 1397.1 Q287.986 1400.64 291.597 1400.64 Q295.231 1400.64 297.037 1397.1 Q298.866 1393.54 298.866 1386.43 Q298.866 1379.3 297.037 1375.76 Q295.231 1372.2 291.597 1372.2 M291.597 1368.49 Q297.407 1368.49 300.463 1373.1 Q303.542 1377.68 303.542 1386.43 Q303.542 1395.16 300.463 1399.76 Q297.407 1404.35 291.597 1404.35 Q285.787 1404.35 282.708 1399.76 Q279.653 1395.16 279.653 1386.43 Q279.653 1377.68 282.708 1373.1 Q285.787 1368.49 291.597 1368.49 Z" fill="#000000" fill-rule="nonzero" fill-opacity="1"></path><path clip-path="url(#clip280)" d="M116.668 1050.29 L124.306 1050.29 L124.306 1023.92 L115.996 1025.59 L115.996 1021.33 L124.26 1019.67 L128.936 1019.67 L128.936 1050.29 L136.575 1050.29 L136.575 1054.23 L116.668 1054.23 L116.668 1050.29 Z" fill="#000000" fill-rule="nonzero" fill-opacity="1"></path><path clip-path="url(#clip280)" d="M146.019 1048.35 L150.903 1048.35 L150.903 1054.23 L146.019 1054.23 L146.019 1048.35 Z" fill="#000000" fill-rule="nonzero" fill-opacity="1"></path><path clip-path="url(#clip280)" d="M171.089 1022.74 Q167.477 1022.74 165.649 1026.31 Q163.843 1029.85 163.843 1036.98 Q163.843 1044.09 165.649 1047.65 Q167.477 1051.19 171.089 1051.19 Q174.723 1051.19 176.528 1047.65 Q178.357 1044.09 178.357 1036.98 Q178.357 1029.85 176.528 1026.31 Q174.723 1022.74 171.089 1022.74 M171.089 1019.04 Q176.899 1019.04 179.954 1023.65 Q183.033 1028.23 183.033 1036.98 Q183.033 1045.71 179.954 1050.31 Q176.899 1054.9 171.089 1054.9 Q165.278 1054.9 162.2 1050.31 Q159.144 1045.71 159.144 1036.98 Q159.144 1028.23 162.2 1023.65 Q165.278 1019.04 171.089 1019.04 Z" fill="#000000" fill-rule="nonzero" fill-opacity="1"></path><path clip-path="url(#clip280)" d="M219.422 1028.76 L208.843 1039.39 L219.422 1049.97 L216.667 1052.77 L206.042 1042.14 L195.417 1052.77 L192.686 1049.97 L203.241 1039.39 L192.686 1028.76 L195.417 1025.96 L206.042 1036.59 L216.667 1025.96 L219.422 1028.76 Z" fill="#000000" fill-rule="nonzero" fill-opacity="1"></path><path clip-path="url(#clip280)" d="M231.783 1050.29 L239.422 1050.29 L239.422 1023.92 L231.111 1025.59 L231.111 1021.33 L239.375 1019.67 L244.051 1019.67 L244.051 1050.29 L251.69 1050.29 L251.69 1054.23 L231.783 1054.23 L231.783 1050.29 Z" fill="#000000" fill-rule="nonzero" fill-opacity="1"></path><path clip-path="url(#clip280)" d="M271.134 1022.74 Q267.523 1022.74 265.695 1026.31 Q263.889 1029.85 263.889 1036.98 Q263.889 1044.09 265.695 1047.65 Q267.523 1051.19 271.134 1051.19 Q274.769 1051.19 276.574 1047.65 Q278.403 1044.09 278.403 1036.98 Q278.403 1029.85 276.574 1026.31 Q274.769 1022.74 271.134 1022.74 M271.134 1019.04 Q276.944 1019.04 280 1023.65 Q283.079 1028.23 283.079 1036.98 Q283.079 1045.71 280 1050.31 Q276.944 1054.9 271.134 1054.9 Q265.324 1054.9 262.245 1050.31 Q259.19 1045.71 259.19 1036.98 Q259.19 1028.23 262.245 1023.65 Q265.324 1019.04 271.134 1019.04 Z" fill="#000000" fill-rule="nonzero" fill-opacity="1"></path><path clip-path="url(#clip280)" d="M295.755 1002.05 L286.163 1017.04 L295.755 1017.04 L295.755 1002.05 M294.758 998.735 L299.535 998.735 L299.535 1017.04 L303.542 1017.04 L303.542 1020.19 L299.535 1020.19 L299.535 1026.82 L295.755 1026.82 L295.755 1020.19 L283.079 1020.19 L283.079 1016.53 L294.758 998.735 Z" fill="#000000" fill-rule="nonzero" fill-opacity="1"></path><path clip-path="url(#clip280)" d="M119.885 694.392 L136.204 694.392 L136.204 698.327 L114.26 698.327 L114.26 694.392 Q116.922 691.637 121.505 687.008 Q126.112 682.355 127.292 681.012 Q129.538 678.489 130.417 676.753 Q131.32 674.994 131.32 673.304 Q131.32 670.549 129.376 668.813 Q127.455 667.077 124.353 667.077 Q122.154 667.077 119.7 667.841 Q117.269 668.605 114.492 670.156 L114.492 665.434 Q117.316 664.299 119.769 663.721 Q122.223 663.142 124.26 663.142 Q129.63 663.142 132.825 665.827 Q136.019 668.512 136.019 673.003 Q136.019 675.133 135.209 677.054 Q134.422 678.952 132.316 681.545 Q131.737 682.216 128.635 685.433 Q125.533 688.628 119.885 694.392 Z" fill="#000000" fill-rule="nonzero" fill-opacity="1"></path><path clip-path="url(#clip280)" d="M146.019 692.447 L150.903 692.447 L150.903 698.327 L146.019 698.327 L146.019 692.447 Z" fill="#000000" fill-rule="nonzero" fill-opacity="1"></path><path clip-path="url(#clip280)" d="M171.089 666.846 Q167.477 666.846 165.649 670.41 Q163.843 673.952 163.843 681.082 Q163.843 688.188 165.649 691.753 Q167.477 695.295 171.089 695.295 Q174.723 695.295 176.528 691.753 Q178.357 688.188 178.357 681.082 Q178.357 673.952 176.528 670.41 Q174.723 666.846 171.089 666.846 M171.089 663.142 Q176.899 663.142 179.954 667.748 Q183.033 672.332 183.033 681.082 Q183.033 689.808 179.954 694.415 Q176.899 698.998 171.089 698.998 Q165.278 698.998 162.2 694.415 Q159.144 689.808 159.144 681.082 Q159.144 672.332 162.2 667.748 Q165.278 663.142 171.089 663.142 Z" fill="#000000" fill-rule="nonzero" fill-opacity="1"></path><path clip-path="url(#clip280)" d="M219.422 672.864 L208.843 683.489 L219.422 694.068 L216.667 696.869 L206.042 686.244 L195.417 696.869 L192.686 694.068 L203.241 683.489 L192.686 672.864 L195.417 670.063 L206.042 680.688 L216.667 670.063 L219.422 672.864 Z" fill="#000000" fill-rule="nonzero" fill-opacity="1"></path><path clip-path="url(#clip280)" d="M231.783 694.392 L239.422 694.392 L239.422 668.026 L231.111 669.693 L231.111 665.434 L239.375 663.767 L244.051 663.767 L244.051 694.392 L251.69 694.392 L251.69 698.327 L231.783 698.327 L231.783 694.392 Z" fill="#000000" fill-rule="nonzero" fill-opacity="1"></path><path clip-path="url(#clip280)" d="M271.134 666.846 Q267.523 666.846 265.695 670.41 Q263.889 673.952 263.889 681.082 Q263.889 688.188 265.695 691.753 Q267.523 695.295 271.134 695.295 Q274.769 695.295 276.574 691.753 Q278.403 688.188 278.403 681.082 Q278.403 673.952 276.574 670.41 Q274.769 666.846 271.134 666.846 M271.134 663.142 Q276.944 663.142 280 667.748 Q283.079 672.332 283.079 681.082 Q283.079 689.808 280 694.415 Q276.944 698.998 271.134 698.998 Q265.324 698.998 262.245 694.415 Q259.19 689.808 259.19 681.082 Q259.19 672.332 262.245 667.748 Q265.324 663.142 271.134 663.142 Z" fill="#000000" fill-rule="nonzero" fill-opacity="1"></path><path clip-path="url(#clip280)" d="M295.755 646.147 L286.163 661.136 L295.755 661.136 L295.755 646.147 M294.758 642.837 L299.535 642.837 L299.535 661.136 L303.542 661.136 L303.542 664.296 L299.535 664.296 L299.535 670.917 L295.755 670.917 L295.755 664.296 L283.079 664.296 L283.079 660.629 L294.758 642.837 Z" fill="#000000" fill-rule="nonzero" fill-opacity="1"></path><path clip-path="url(#clip280)" d="M130.024 323.794 Q133.38 324.512 135.255 326.78 Q137.154 329.049 137.154 332.382 Q137.154 337.498 133.635 340.299 Q130.117 343.1 123.635 343.1 Q121.459 343.1 119.144 342.66 Q116.853 342.243 114.399 341.387 L114.399 336.873 Q116.343 338.007 118.658 338.586 Q120.973 339.164 123.496 339.164 Q127.894 339.164 130.186 337.428 Q132.501 335.692 132.501 332.382 Q132.501 329.326 130.348 327.613 Q128.218 325.877 124.399 325.877 L120.371 325.877 L120.371 322.035 L124.584 322.035 Q128.033 322.035 129.862 320.669 Q131.691 319.28 131.691 316.688 Q131.691 314.026 129.792 312.614 Q127.917 311.178 124.399 311.178 Q122.478 311.178 120.279 311.595 Q118.08 312.012 115.441 312.891 L115.441 308.725 Q118.103 307.984 120.418 307.614 Q122.755 307.243 124.816 307.243 Q130.14 307.243 133.242 309.674 Q136.343 312.081 136.343 316.201 Q136.343 319.072 134.7 321.063 Q133.056 323.03 130.024 323.794 Z" fill="#000000" fill-rule="nonzero" fill-opacity="1"></path><path clip-path="url(#clip280)" d="M146.019 336.549 L150.903 336.549 L150.903 342.428 L146.019 342.428 L146.019 336.549 Z" fill="#000000" fill-rule="nonzero" fill-opacity="1"></path><path clip-path="url(#clip280)" d="M171.089 310.947 Q167.477 310.947 165.649 314.512 Q163.843 318.053 163.843 325.183 Q163.843 332.289 165.649 335.854 Q167.477 339.396 171.089 339.396 Q174.723 339.396 176.528 335.854 Q178.357 332.289 178.357 325.183 Q178.357 318.053 176.528 314.512 Q174.723 310.947 171.089 310.947 M171.089 307.243 Q176.899 307.243 179.954 311.85 Q183.033 316.433 183.033 325.183 Q183.033 333.91 179.954 338.516 Q176.899 343.1 171.089 343.1 Q165.278 343.1 162.2 338.516 Q159.144 333.91 159.144 325.183 Q159.144 316.433 162.2 311.85 Q165.278 307.243 171.089 307.243 Z" fill="#000000" fill-rule="nonzero" fill-opacity="1"></path><path clip-path="url(#clip280)" d="M219.422 316.965 L208.843 327.59 L219.422 338.169 L216.667 340.97 L206.042 330.345 L195.417 340.97 L192.686 338.169 L203.241 327.59 L192.686 316.965 L195.417 314.164 L206.042 324.789 L216.667 314.164 L219.422 316.965 Z" fill="#000000" fill-rule="nonzero" fill-opacity="1"></path><path clip-path="url(#clip280)" d="M231.783 338.493 L239.422 338.493 L239.422 312.127 L231.111 313.794 L231.111 309.535 L239.375 307.868 L244.051 307.868 L244.051 338.493 L251.69 338.493 L251.69 342.428 L231.783 342.428 L231.783 338.493 Z" fill="#000000" fill-rule="nonzero" fill-opacity="1"></path><path clip-path="url(#clip280)" d="M271.134 310.947 Q267.523 310.947 265.695 314.512 Q263.889 318.053 263.889 325.183 Q263.889 332.289 265.695 335.854 Q267.523 339.396 271.134 339.396 Q274.769 339.396 276.574 335.854 Q278.403 332.289 278.403 325.183 Q278.403 318.053 276.574 314.512 Q274.769 310.947 271.134 310.947 M271.134 307.243 Q276.944 307.243 280 311.85 Q283.079 316.433 283.079 325.183 Q283.079 333.91 280 338.516 Q276.944 343.1 271.134 343.1 Q265.324 343.1 262.245 338.516 Q259.19 333.91 259.19 325.183 Q259.19 316.433 262.245 311.85 Q265.324 307.243 271.134 307.243 Z" fill="#000000" fill-rule="nonzero" fill-opacity="1"></path><path clip-path="url(#clip280)" d="M295.755 290.248 L286.163 305.238 L295.755 305.238 L295.755 290.248 M294.758 286.938 L299.535 286.938 L299.535 305.238 L303.542 305.238 L303.542 308.397 L299.535 308.397 L299.535 315.018 L295.755 315.018 L295.755 308.397 L283.079 308.397 L283.079 304.73 L294.758 286.938 Z" fill="#000000" fill-rule="nonzero" fill-opacity="1"></path><path clip-path="url(#clip280)" d="M18.0438 1238.2 L24.314 1238.2 Q22.5634 1241.86 21.704 1245.1 Q20.8447 1248.35 20.8447 1251.37 Q20.8447 1256.63 22.8817 1259.49 Q24.9187 1262.32 28.6745 1262.32 Q31.8255 1262.32 33.4488 1260.45 Q35.0402 1258.54 36.0269 1253.25 L36.8226 1249.37 Q38.1912 1242.18 41.6605 1238.77 Q45.098 1235.33 50.8908 1235.33 Q57.7976 1235.33 61.3624 1239.98 Q64.9272 1244.6 64.9272 1253.54 Q64.9272 1256.91 64.1633 1260.73 Q63.3994 1264.52 61.9035 1268.59 L55.2831 1268.59 Q57.4793 1264.68 58.5933 1260.92 Q59.7073 1257.17 59.7073 1253.54 Q59.7073 1248.03 57.543 1245.04 Q55.3786 1242.05 51.3682 1242.05 Q47.8671 1242.05 45.8937 1244.21 Q43.9204 1246.35 42.9337 1251.25 L42.1698 1255.16 Q40.7375 1262.36 37.682 1265.57 Q34.6264 1268.78 29.1837 1268.78 Q22.8817 1268.78 19.2532 1264.36 Q15.6248 1259.9 15.6248 1252.11 Q15.6248 1248.76 16.2295 1245.3 Q16.8343 1241.83 18.0438 1238.2 Z" fill="#000000" fill-rule="nonzero" fill-opacity="1"></path><path clip-path="url(#clip280)" d="M29.7248 1199.91 L35.1993 1199.91 Q33.8307 1202.39 33.1623 1204.9 Q32.4621 1207.39 32.4621 1209.93 Q32.4621 1215.63 36.0905 1218.78 Q39.6872 1221.93 46.212 1221.93 Q52.7369 1221.93 56.3653 1218.78 Q59.9619 1215.63 59.9619 1209.93 Q59.9619 1207.39 59.2935 1204.9 Q58.5933 1202.39 57.2247 1199.91 L62.6355 1199.91 Q63.7814 1202.36 64.3543 1205 Q64.9272 1207.61 64.9272 1210.57 Q64.9272 1218.62 59.8664 1223.37 Q54.8057 1228.11 46.212 1228.11 Q37.491 1228.11 32.4939 1223.33 Q27.4968 1218.53 27.4968 1210.19 Q27.4968 1207.48 28.0697 1204.9 Q28.6108 1202.33 29.7248 1199.91 Z" fill="#000000" fill-rule="nonzero" fill-opacity="1"></path><path clip-path="url(#clip280)" d="M46.0847 1173.52 Q46.0847 1180.62 47.7079 1183.36 Q49.3312 1186.09 53.2461 1186.09 Q56.3653 1186.09 58.2114 1184.06 Q60.0256 1181.99 60.0256 1178.46 Q60.0256 1173.59 56.5881 1170.66 Q53.1188 1167.7 47.3897 1167.7 L46.0847 1167.7 L46.0847 1173.52 M43.6657 1161.84 L64.0042 1161.84 L64.0042 1167.7 L58.5933 1167.7 Q61.8398 1169.7 63.3994 1172.69 Q64.9272 1175.69 64.9272 1180.02 Q64.9272 1185.49 61.8716 1188.74 Q58.7843 1191.95 53.6281 1191.95 Q47.6125 1191.95 44.5569 1187.94 Q41.5014 1183.9 41.5014 1175.91 L41.5014 1167.7 L40.9285 1167.7 Q36.8862 1167.7 34.6901 1170.37 Q32.4621 1173.01 32.4621 1177.82 Q32.4621 1180.87 33.1941 1183.77 Q33.9262 1186.67 35.3903 1189.34 L29.9795 1189.34 Q28.7381 1186.13 28.1334 1183.1 Q27.4968 1180.08 27.4968 1177.21 Q27.4968 1169.48 31.5072 1165.66 Q35.5176 1161.84 43.6657 1161.84 Z" fill="#000000" fill-rule="nonzero" fill-opacity="1"></path><path clip-path="url(#clip280)" d="M18.2347 1143.99 L28.3562 1143.99 L28.3562 1131.92 L32.9077 1131.92 L32.9077 1143.99 L52.2594 1143.99 Q56.6199 1143.99 57.8613 1142.81 Q59.1026 1141.6 59.1026 1137.94 L59.1026 1131.92 L64.0042 1131.92 L64.0042 1137.94 Q64.0042 1144.72 61.4897 1147.3 Q58.9434 1149.87 52.2594 1149.87 L32.9077 1149.87 L32.9077 1154.17 L28.3562 1154.17 L28.3562 1149.87 L18.2347 1149.87 L18.2347 1143.99 Z" fill="#000000" fill-rule="nonzero" fill-opacity="1"></path><path clip-path="url(#clip280)" d="M18.2347 1118.43 L28.3562 1118.43 L28.3562 1106.36 L32.9077 1106.36 L32.9077 1118.43 L52.2594 1118.43 Q56.6199 1118.43 57.8613 1117.25 Q59.1026 1116.04 59.1026 1112.38 L59.1026 1106.36 L64.0042 1106.36 L64.0042 1112.38 Q64.0042 1119.16 61.4897 1121.74 Q58.9434 1124.32 52.2594 1124.32 L32.9077 1124.32 L32.9077 1128.61 L28.3562 1128.61 L28.3562 1124.32 L18.2347 1124.32 L18.2347 1118.43 Z" fill="#000000" fill-rule="nonzero" fill-opacity="1"></path><path clip-path="url(#clip280)" d="M44.7161 1068.17 L47.5806 1068.17 L47.5806 1095.1 Q53.6281 1094.71 56.8109 1091.47 Q59.9619 1088.19 59.9619 1082.37 Q59.9619 1078.99 59.1344 1075.84 Q58.3069 1072.66 56.6518 1069.54 L62.1899 1069.54 Q63.5267 1072.69 64.227 1076 Q64.9272 1079.31 64.9272 1082.72 Q64.9272 1091.25 59.9619 1096.24 Q54.9967 1101.21 46.5303 1101.21 Q37.7774 1101.21 32.6531 1096.5 Q27.4968 1091.75 27.4968 1083.73 Q27.4968 1076.54 32.1438 1072.37 Q36.7589 1068.17 44.7161 1068.17 M42.9973 1074.03 Q38.1912 1074.09 35.3266 1076.73 Q32.4621 1079.34 32.4621 1083.67 Q32.4621 1088.57 35.2312 1091.53 Q38.0002 1094.46 43.0292 1094.91 L42.9973 1074.03 Z" fill="#000000" fill-rule="nonzero" fill-opacity="1"></path><path clip-path="url(#clip280)" d="M33.8307 1037.9 Q33.2578 1038.89 33.0032 1040.07 Q32.7167 1041.21 32.7167 1042.61 Q32.7167 1047.58 35.9632 1050.25 Q39.1779 1052.89 45.2253 1052.89 L64.0042 1052.89 L64.0042 1058.78 L28.3562 1058.78 L28.3562 1052.89 L33.8944 1052.89 Q30.6479 1051.05 29.0883 1048.09 Q27.4968 1045.13 27.4968 1040.89 Q27.4968 1040.29 27.5923 1039.56 Q27.656 1038.82 27.8151 1037.93 L33.8307 1037.9 Z" fill="#000000" fill-rule="nonzero" fill-opacity="1"></path><path clip-path="url(#clip280)" d="M28.3562 1031.76 L28.3562 1025.9 L64.0042 1025.9 L64.0042 1031.76 L28.3562 1031.76 M14.479 1031.76 L14.479 1025.9 L21.895 1025.9 L21.895 1031.76 L14.479 1031.76 Z" fill="#000000" fill-rule="nonzero" fill-opacity="1"></path><path clip-path="url(#clip280)" d="M42.4881 984.015 L64.0042 984.015 L64.0042 989.871 L42.679 989.871 Q37.6183 989.871 35.1038 991.845 Q32.5894 993.818 32.5894 997.765 Q32.5894 1002.51 35.6131 1005.24 Q38.6368 1007.98 43.8567 1007.98 L64.0042 1007.98 L64.0042 1013.87 L28.3562 1013.87 L28.3562 1007.98 L33.8944 1007.98 Q30.6797 1005.88 29.0883 1003.05 Q27.4968 1000.18 27.4968 996.46 Q27.4968 990.317 31.3163 987.166 Q35.1038 984.015 42.4881 984.015 Z" fill="#000000" fill-rule="nonzero" fill-opacity="1"></path><path clip-path="url(#clip280)" d="M45.7664 948.876 Q39.4007 948.876 35.8996 951.518 Q32.3984 954.128 32.3984 958.87 Q32.3984 963.581 35.8996 966.223 Q39.4007 968.833 45.7664 968.833 Q52.1003 968.833 55.6014 966.223 Q59.1026 963.581 59.1026 958.87 Q59.1026 954.128 55.6014 951.518 Q52.1003 948.876 45.7664 948.876 M59.58 943.02 Q68.683 943.02 73.1071 947.062 Q77.5631 951.104 77.5631 959.443 Q77.5631 962.531 77.0857 965.268 Q76.6401 968.005 75.6852 970.583 L69.9879 970.583 Q71.3884 968.005 72.0568 965.491 Q72.7252 962.976 72.7252 960.366 Q72.7252 954.605 69.7015 951.741 Q66.7096 948.876 60.6303 948.876 L57.7339 948.876 Q60.885 950.69 62.4446 953.523 Q64.0042 956.356 64.0042 960.303 Q64.0042 966.859 59.0071 970.87 Q54.01 974.88 45.7664 974.88 Q37.491 974.88 32.4939 970.87 Q27.4968 966.859 27.4968 960.303 Q27.4968 956.356 29.0564 953.523 Q30.616 950.69 33.7671 948.876 L28.3562 948.876 L28.3562 943.02 L59.58 943.02 Z" fill="#000000" fill-rule="nonzero" fill-opacity="1"></path><path clip-path="url(#clip280)" d="M20.1444 874.397 L26.9239 874.397 Q23.9002 877.644 22.4043 881.336 Q20.9083 884.996 20.9083 889.134 Q20.9083 897.282 25.9054 901.611 Q30.8707 905.94 40.2919 905.94 Q49.6813 905.94 54.6784 901.611 Q59.6436 897.282 59.6436 889.134 Q59.6436 884.996 58.1477 881.336 Q56.6518 877.644 53.6281 874.397 L60.3439 874.397 Q62.6355 877.771 63.7814 881.559 Q64.9272 885.315 64.9272 889.516 Q64.9272 900.306 58.3387 906.512 Q51.7183 912.719 40.2919 912.719 Q28.8336 912.719 22.2451 906.512 Q15.6248 900.306 15.6248 889.516 Q15.6248 885.251 16.7706 881.495 Q17.8846 877.708 20.1444 874.397 Z" fill="#000000" fill-rule="nonzero" fill-opacity="1"></path><path clip-path="url(#clip280)" d="M33.8307 844.065 Q33.2578 845.052 33.0032 846.229 Q32.7167 847.375 32.7167 848.776 Q32.7167 853.741 35.9632 856.414 Q39.1779 859.056 45.2253 859.056 L64.0042 859.056 L64.0042 864.944 L28.3562 864.944 L28.3562 859.056 L33.8944 859.056 Q30.6479 857.21 29.0883 854.25 Q27.4968 851.29 27.4968 847.057 Q27.4968 846.452 27.5923 845.72 Q27.656 844.988 27.8151 844.097 L33.8307 844.065 Z" fill="#000000" fill-rule="nonzero" fill-opacity="1"></path><path clip-path="url(#clip280)" d="M32.4621 825.541 Q32.4621 830.251 36.1542 832.989 Q39.8145 835.726 46.212 835.726 Q52.6095 835.726 56.3017 833.02 Q59.9619 830.283 59.9619 825.541 Q59.9619 820.862 56.2698 818.125 Q52.5777 815.387 46.212 815.387 Q39.8781 815.387 36.186 818.125 Q32.4621 820.862 32.4621 825.541 M27.4968 825.541 Q27.4968 817.902 32.4621 813.541 Q37.4273 809.181 46.212 809.181 Q54.9649 809.181 59.9619 813.541 Q64.9272 817.902 64.9272 825.541 Q64.9272 833.211 59.9619 837.572 Q54.9649 841.901 46.212 841.901 Q37.4273 841.901 32.4621 837.572 Q27.4968 833.211 27.4968 825.541 Z" fill="#000000" fill-rule="nonzero" fill-opacity="1"></path><path clip-path="url(#clip280)" d="M29.4065 776.748 L34.9447 776.748 Q33.6716 779.23 33.035 781.904 Q32.3984 784.577 32.3984 787.442 Q32.3984 791.802 33.7352 793.999 Q35.072 796.163 37.7456 796.163 Q39.7826 796.163 40.9603 794.603 Q42.1061 793.044 43.1565 788.333 L43.6021 786.328 Q44.9389 780.09 47.3897 777.48 Q49.8086 774.838 54.1691 774.838 Q59.1344 774.838 62.0308 778.785 Q64.9272 782.699 64.9272 789.574 Q64.9272 792.439 64.3543 795.558 Q63.8132 798.646 62.6992 802.083 L56.6518 802.083 Q58.3387 798.837 59.198 795.686 Q60.0256 792.535 60.0256 789.447 Q60.0256 785.309 58.6251 783.081 Q57.1929 780.853 54.6147 780.853 Q52.2276 780.853 50.9545 782.477 Q49.6813 784.068 48.5037 789.511 L48.0262 791.548 Q46.8804 796.99 44.5251 799.409 Q42.138 801.828 38.0002 801.828 Q32.9713 801.828 30.2341 798.264 Q27.4968 794.699 27.4968 788.142 Q27.4968 784.896 27.9743 782.031 Q28.4517 779.167 29.4065 776.748 Z" fill="#000000" fill-rule="nonzero" fill-opacity="1"></path><path clip-path="url(#clip280)" d="M29.4065 742.787 L34.9447 742.787 Q33.6716 745.269 33.035 747.943 Q32.3984 750.616 32.3984 753.481 Q32.3984 757.841 33.7352 760.038 Q35.072 762.202 37.7456 762.202 Q39.7826 762.202 40.9603 760.642 Q42.1061 759.083 43.1565 754.372 L43.6021 752.367 Q44.9389 746.129 47.3897 743.519 Q49.8086 740.877 54.1691 740.877 Q59.1344 740.877 62.0308 744.824 Q64.9272 748.738 64.9272 755.613 Q64.9272 758.478 64.3543 761.597 Q63.8132 764.685 62.6992 768.122 L56.6518 768.122 Q58.3387 764.876 59.198 761.724 Q60.0256 758.573 60.0256 755.486 Q60.0256 751.348 58.6251 749.12 Q57.1929 746.892 54.6147 746.892 Q52.2276 746.892 50.9545 748.516 Q49.6813 750.107 48.5037 755.55 L48.0262 757.587 Q46.8804 763.029 44.5251 765.448 Q42.138 767.867 38.0002 767.867 Q32.9713 767.867 30.2341 764.303 Q27.4968 760.738 27.4968 754.181 Q27.4968 750.935 27.9743 748.07 Q28.4517 745.205 29.4065 742.787 Z" fill="#000000" fill-rule="nonzero" fill-opacity="1"></path><path clip-path="url(#clip280)" d="M18.0438 682.089 L24.314 682.089 Q22.5634 685.75 21.704 688.996 Q20.8447 692.243 20.8447 695.267 Q20.8447 700.518 22.8817 703.383 Q24.9187 706.216 28.6745 706.216 Q31.8255 706.216 33.4488 704.338 Q35.0402 702.428 36.0269 697.144 L36.8226 693.261 Q38.1912 686.068 41.6605 682.662 Q45.098 679.225 50.8908 679.225 Q57.7976 679.225 61.3624 683.872 Q64.9272 688.487 64.9272 697.431 Q64.9272 700.805 64.1633 704.624 Q63.3994 708.412 61.9035 712.486 L55.2831 712.486 Q57.4793 708.571 58.5933 704.815 Q59.7073 701.059 59.7073 697.431 Q59.7073 691.925 57.543 688.933 Q55.3786 685.941 51.3682 685.941 Q47.8671 685.941 45.8937 688.105 Q43.9204 690.238 42.9337 695.139 L42.1698 699.054 Q40.7375 706.247 37.682 709.462 Q34.6264 712.677 29.1837 712.677 Q22.8817 712.677 19.2532 708.253 Q15.6248 703.797 15.6248 695.999 Q15.6248 692.657 16.2295 689.187 Q16.8343 685.718 18.0438 682.089 Z" fill="#000000" fill-rule="nonzero" fill-opacity="1"></path><path clip-path="url(#clip280)" d="M44.7161 638.962 L47.5806 638.962 L47.5806 665.889 Q53.6281 665.507 56.8109 662.26 Q59.9619 658.982 59.9619 653.157 Q59.9619 649.784 59.1344 646.633 Q58.3069 643.45 56.6518 640.33 L62.1899 640.33 Q63.5267 643.481 64.227 646.792 Q64.9272 650.102 64.9272 653.507 Q64.9272 662.038 59.9619 667.035 Q54.9967 672 46.5303 672 Q37.7774 672 32.6531 667.289 Q27.4968 662.547 27.4968 654.526 Q27.4968 647.333 32.1438 643.163 Q36.7589 638.962 44.7161 638.962 M42.9973 644.818 Q38.1912 644.882 35.3266 647.524 Q32.4621 650.134 32.4621 654.462 Q32.4621 659.364 35.2312 662.324 Q38.0002 665.252 43.0292 665.698 L42.9973 644.818 Z" fill="#000000" fill-rule="nonzero" fill-opacity="1"></path><path clip-path="url(#clip280)" d="M29.7248 603.696 L35.1993 603.696 Q33.8307 606.178 33.1623 608.693 Q32.4621 611.176 32.4621 613.722 Q32.4621 619.419 36.0905 622.57 Q39.6872 625.721 46.212 625.721 Q52.7369 625.721 56.3653 622.57 Q59.9619 619.419 59.9619 613.722 Q59.9619 611.176 59.2935 608.693 Q58.5933 606.178 57.2247 603.696 L62.6355 603.696 Q63.7814 606.147 64.3543 608.788 Q64.9272 611.398 64.9272 614.358 Q64.9272 622.411 59.8664 627.153 Q54.8057 631.896 46.212 631.896 Q37.491 631.896 32.4939 627.122 Q27.4968 622.316 27.4968 613.976 Q27.4968 611.271 28.0697 608.693 Q28.6108 606.115 29.7248 603.696 Z" fill="#000000" fill-rule="nonzero" fill-opacity="1"></path><path clip-path="url(#clip280)" d="M18.2347 587.718 L28.3562 587.718 L28.3562 575.655 L32.9077 575.655 L32.9077 587.718 L52.2594 587.718 Q56.6199 587.718 57.8613 586.54 Q59.1026 585.331 59.1026 581.67 L59.1026 575.655 L64.0042 575.655 L64.0042 581.67 Q64.0042 588.45 61.4897 591.028 Q58.9434 593.606 52.2594 593.606 L32.9077 593.606 L32.9077 597.903 L28.3562 597.903 L28.3562 593.606 L18.2347 593.606 L18.2347 587.718 Z" fill="#000000" fill-rule="nonzero" fill-opacity="1"></path><path clip-path="url(#clip280)" d="M28.3562 567.952 L28.3562 562.096 L64.0042 562.096 L64.0042 567.952 L28.3562 567.952 M14.479 567.952 L14.479 562.096 L21.895 562.096 L21.895 567.952 L14.479 567.952 Z" fill="#000000" fill-rule="nonzero" fill-opacity="1"></path><path clip-path="url(#clip280)" d="M32.4621 536.028 Q32.4621 540.739 36.1542 543.476 Q39.8145 546.213 46.212 546.213 Q52.6095 546.213 56.3017 543.508 Q59.9619 540.771 59.9619 536.028 Q59.9619 531.35 56.2698 528.612 Q52.5777 525.875 46.212 525.875 Q39.8781 525.875 36.186 528.612 Q32.4621 531.35 32.4621 536.028 M27.4968 536.028 Q27.4968 528.39 32.4621 524.029 Q37.4273 519.668 46.212 519.668 Q54.9649 519.668 59.9619 524.029 Q64.9272 528.39 64.9272 536.028 Q64.9272 543.699 59.9619 548.06 Q54.9649 552.388 46.212 552.388 Q37.4273 552.388 32.4621 548.06 Q27.4968 543.699 27.4968 536.028 Z" fill="#000000" fill-rule="nonzero" fill-opacity="1"></path><path clip-path="url(#clip280)" d="M42.4881 480.328 L64.0042 480.328 L64.0042 486.185 L42.679 486.185 Q37.6183 486.185 35.1038 488.158 Q32.5894 490.132 32.5894 494.078 Q32.5894 498.821 35.6131 501.558 Q38.6368 504.295 43.8567 504.295 L64.0042 504.295 L64.0042 510.184 L28.3562 510.184 L28.3562 504.295 L33.8944 504.295 Q30.6797 502.195 29.0883 499.362 Q27.4968 496.497 27.4968 492.773 Q27.4968 486.63 31.3163 483.479 Q35.1038 480.328 42.4881 480.328 Z" fill="#000000" fill-rule="nonzero" fill-opacity="1"></path><path clip-path="url(#clip280)" d="M14.5426 433.859 Q21.8632 438.124 29.0246 440.193 Q36.186 442.261 43.5384 442.261 Q50.8908 442.261 58.1159 440.193 Q65.3091 438.092 72.5979 433.859 L72.5979 438.951 Q65.1182 443.726 57.8931 446.113 Q50.668 448.468 43.5384 448.468 Q36.4406 448.468 29.2474 446.113 Q22.0542 443.757 14.5426 438.951 L14.5426 433.859 Z" fill="#000000" fill-rule="nonzero" fill-opacity="1"></path><path clip-path="url(#clip280)" d="M42.4881 392.864 L64.0042 392.864 L64.0042 398.72 L42.679 398.72 Q37.6183 398.72 35.1038 400.693 Q32.5894 402.667 32.5894 406.614 Q32.5894 411.356 35.6131 414.093 Q38.6368 416.83 43.8567 416.83 L64.0042 416.83 L64.0042 422.719 L28.3562 422.719 L28.3562 416.83 L33.8944 416.83 Q30.6797 414.73 29.0883 411.897 Q27.4968 409.033 27.4968 405.309 Q27.4968 399.166 31.3163 396.015 Q35.1038 392.864 42.4881 392.864 Z" fill="#000000" fill-rule="nonzero" fill-opacity="1"></path><path clip-path="url(#clip280)" d="M35.1993 353.428 Q31.2526 351.232 29.3747 348.176 Q27.4968 345.121 27.4968 340.983 Q27.4968 335.413 31.4117 332.389 Q35.2948 329.366 42.4881 329.366 L64.0042 329.366 L64.0042 335.254 L42.679 335.254 Q37.5546 335.254 35.072 337.068 Q32.5894 338.882 32.5894 342.606 Q32.5894 347.158 35.6131 349.8 Q38.6368 352.441 43.8567 352.441 L64.0042 352.441 L64.0042 358.33 L42.679 358.33 Q37.5228 358.33 35.072 360.144 Q32.5894 361.958 32.5894 365.746 Q32.5894 370.234 35.6449 372.875 Q38.6686 375.517 43.8567 375.517 L64.0042 375.517 L64.0042 381.405 L28.3562 381.405 L28.3562 375.517 L33.8944 375.517 Q30.616 373.512 29.0564 370.711 Q27.4968 367.91 27.4968 364.059 Q27.4968 360.176 29.4702 357.47 Q31.4436 354.733 35.1993 353.428 Z" fill="#000000" fill-rule="nonzero" fill-opacity="1"></path><path clip-path="url(#clip280)" d="M39.1142 315.297 L39.1142 301.802 L42.7427 301.802 L42.7427 320.836 L39.2416 320.836 Q38.2549 319.753 36.4725 317.748 Q26.7648 306.799 23.7729 306.799 Q21.6722 306.799 20.3991 308.454 Q19.0941 310.109 19.0941 312.815 Q19.0941 314.47 19.667 316.411 Q20.2081 318.353 21.3221 320.645 L17.4072 320.645 Q16.516 318.194 16.0704 316.093 Q15.6248 313.961 15.6248 312.146 Q15.6248 307.531 17.7255 304.762 Q19.8262 301.993 23.2636 301.993 Q27.6878 301.993 36.7271 312.528 Q38.2549 314.311 39.1142 315.297 Z" fill="#000000" fill-rule="nonzero" fill-opacity="1"></path><path clip-path="url(#clip280)" d="M14.5426 292.476 L14.5426 287.384 Q22.0542 282.61 29.2474 280.254 Q36.4406 277.867 43.5384 277.867 Q50.668 277.867 57.8931 280.254 Q65.1182 282.61 72.5979 287.384 L72.5979 292.476 Q65.3091 288.243 58.1159 286.174 Q50.8908 284.074 43.5384 284.074 Q36.186 284.074 29.0246 286.174 Q21.8632 288.243 14.5426 292.476 Z" fill="#000000" fill-rule="nonzero" fill-opacity="1"></path><path clip-path="url(#clip280)" d="M627.518 14.0809 L627.518 22.0612 Q622.86 19.8332 618.728 18.7395 Q614.596 17.6457 610.748 17.6457 Q604.064 17.6457 600.418 20.2383 Q596.812 22.8309 596.812 27.611 Q596.812 31.6214 599.202 33.6873 Q601.633 35.7128 608.358 36.9686 L613.3 37.9813 Q622.455 39.7232 626.789 44.1387 Q631.164 48.5136 631.164 55.8863 Q631.164 64.6767 625.25 69.2137 Q619.376 73.7508 607.993 73.7508 Q603.699 73.7508 598.838 72.7785 Q594.017 71.8063 588.832 69.9024 L588.832 61.4765 Q593.815 64.2716 598.595 65.6895 Q603.375 67.1073 607.993 67.1073 Q615.001 67.1073 618.809 64.3527 Q622.617 61.598 622.617 56.4939 Q622.617 52.0379 619.862 49.5264 Q617.148 47.0148 610.91 45.759 L605.927 44.7868 Q596.772 42.9639 592.681 39.075 Q588.589 35.1862 588.589 28.2591 Q588.589 20.2383 594.22 15.6203 Q599.891 11.0023 609.816 11.0023 Q614.069 11.0023 618.485 11.7719 Q622.9 12.5416 627.518 14.0809 Z" fill="#000000" fill-rule="nonzero" fill-opacity="1"></path><path clip-path="url(#clip280)" d="M676.251 28.9478 L676.251 35.9153 Q673.091 34.1734 669.891 33.3227 Q666.731 32.4315 663.49 32.4315 Q656.239 32.4315 652.229 37.0496 Q648.218 41.6271 648.218 49.9314 Q648.218 58.2358 652.229 62.8538 Q656.239 67.4314 663.49 67.4314 Q666.731 67.4314 669.891 66.5807 Q673.091 65.6895 676.251 63.9476 L676.251 70.8341 Q673.132 72.2924 669.769 73.0216 Q666.448 73.7508 662.68 73.7508 Q652.431 73.7508 646.396 67.3098 Q640.36 60.8689 640.36 49.9314 Q640.36 38.832 646.436 32.472 Q652.553 26.1121 663.166 26.1121 Q666.61 26.1121 669.891 26.8413 Q673.172 27.5299 676.251 28.9478 Z" fill="#000000" fill-rule="nonzero" fill-opacity="1"></path><path clip-path="url(#clip280)" d="M709.833 49.7694 Q700.799 49.7694 697.315 51.8354 Q693.832 53.9013 693.832 58.8839 Q693.832 62.8538 696.424 65.2034 Q699.057 67.5124 703.554 67.5124 Q709.752 67.5124 713.479 63.1374 Q717.246 58.7219 717.246 51.4303 L717.246 49.7694 L709.833 49.7694 M724.7 46.6907 L724.7 72.576 L717.246 72.576 L717.246 65.6895 Q714.694 69.8214 710.886 71.8063 Q707.078 73.7508 701.569 73.7508 Q694.601 73.7508 690.469 69.8619 Q686.378 65.9325 686.378 59.3701 Q686.378 51.7138 691.482 47.825 Q696.627 43.9361 706.795 43.9361 L717.246 43.9361 L717.246 43.2069 Q717.246 38.0623 713.843 35.2672 Q710.481 32.4315 704.364 32.4315 Q700.475 32.4315 696.789 33.3632 Q693.102 34.295 689.7 36.1584 L689.7 29.2718 Q693.791 27.692 697.639 26.9223 Q701.488 26.1121 705.134 26.1121 Q714.977 26.1121 719.838 31.2163 Q724.7 36.3204 724.7 46.6907 Z" fill="#000000" fill-rule="nonzero" fill-opacity="1"></path><path clip-path="url(#clip280)" d="M747.425 14.324 L747.425 27.2059 L762.778 27.2059 L762.778 32.9987 L747.425 32.9987 L747.425 57.6282 Q747.425 63.1779 748.924 64.7578 Q750.463 66.3376 755.122 66.3376 L762.778 66.3376 L762.778 72.576 L755.122 72.576 Q746.493 72.576 743.212 69.3758 Q739.931 66.1351 739.931 57.6282 L739.931 32.9987 L734.462 32.9987 L734.462 27.2059 L739.931 27.2059 L739.931 14.324 L747.425 14.324 Z" fill="#000000" fill-rule="nonzero" fill-opacity="1"></path><path clip-path="url(#clip280)" d="M779.954 14.324 L779.954 27.2059 L795.307 27.2059 L795.307 32.9987 L779.954 32.9987 L779.954 57.6282 Q779.954 63.1779 781.453 64.7578 Q782.992 66.3376 787.651 66.3376 L795.307 66.3376 L795.307 72.576 L787.651 72.576 Q779.022 72.576 775.741 69.3758 Q772.46 66.1351 772.46 57.6282 L772.46 32.9987 L766.991 32.9987 L766.991 27.2059 L772.46 27.2059 L772.46 14.324 L779.954 14.324 Z" fill="#000000" fill-rule="nonzero" fill-opacity="1"></path><path clip-path="url(#clip280)" d="M843.918 48.0275 L843.918 51.6733 L809.647 51.6733 Q810.133 59.3701 814.265 63.421 Q818.437 67.4314 825.851 67.4314 Q830.145 67.4314 834.155 66.3781 Q838.206 65.3249 842.176 63.2184 L842.176 70.267 Q838.165 71.9684 833.952 72.8596 Q829.739 73.7508 825.405 73.7508 Q814.549 73.7508 808.189 67.4314 Q801.869 61.1119 801.869 50.3365 Q801.869 39.1965 807.865 32.6746 Q813.9 26.1121 824.109 26.1121 Q833.264 26.1121 838.57 32.0264 Q843.918 37.9003 843.918 48.0275 M836.464 45.84 Q836.383 39.7232 833.021 36.0774 Q829.699 32.4315 824.19 32.4315 Q817.951 32.4315 814.184 35.9558 Q810.457 39.4801 809.89 45.8805 L836.464 45.84 Z" fill="#000000" fill-rule="nonzero" fill-opacity="1"></path><path clip-path="url(#clip280)" d="M882.442 34.1734 Q881.186 33.4443 879.687 33.1202 Q878.229 32.7556 876.446 32.7556 Q870.127 32.7556 866.724 36.8875 Q863.362 40.9789 863.362 48.6757 L863.362 72.576 L855.868 72.576 L855.868 27.2059 L863.362 27.2059 L863.362 34.2544 Q865.711 30.1225 869.479 28.1376 Q873.246 26.1121 878.634 26.1121 Q879.404 26.1121 880.335 26.2337 Q881.267 26.3147 882.401 26.5172 L882.442 34.1734 Z" fill="#000000" fill-rule="nonzero" fill-opacity="1"></path><path clip-path="url(#clip280)" d="M890.26 27.2059 L897.714 27.2059 L897.714 72.576 L890.26 72.576 L890.26 27.2059 M890.26 9.54393 L897.714 9.54393 L897.714 18.9825 L890.26 18.9825 L890.26 9.54393 Z" fill="#000000" fill-rule="nonzero" fill-opacity="1"></path><path clip-path="url(#clip280)" d="M951.024 45.1919 L951.024 72.576 L943.57 72.576 L943.57 45.4349 Q943.57 38.994 941.058 35.7938 Q938.547 32.5936 933.524 32.5936 Q927.488 32.5936 924.004 36.4419 Q920.52 40.2903 920.52 46.9338 L920.52 72.576 L913.026 72.576 L913.026 27.2059 L920.52 27.2059 L920.52 34.2544 Q923.194 30.163 926.799 28.1376 Q930.445 26.1121 935.184 26.1121 Q943.003 26.1121 947.013 30.9732 Q951.024 35.7938 951.024 45.1919 Z" fill="#000000" fill-rule="nonzero" fill-opacity="1"></path><path clip-path="url(#clip280)" d="M995.746 49.3643 Q995.746 41.2625 992.383 36.8065 Q989.062 32.3505 983.026 32.3505 Q977.03 32.3505 973.668 36.8065 Q970.346 41.2625 970.346 49.3643 Q970.346 57.4256 973.668 61.8816 Q977.03 66.3376 983.026 66.3376 Q989.062 66.3376 992.383 61.8816 Q995.746 57.4256 995.746 49.3643 M1003.2 66.9452 Q1003.2 78.5308 998.055 84.1616 Q992.91 89.8329 982.297 89.8329 Q978.367 89.8329 974.883 89.2252 Q971.4 88.6581 968.118 87.4428 L968.118 80.1917 Q971.4 81.9741 974.6 82.8248 Q977.8 83.6755 981.122 83.6755 Q988.454 83.6755 992.1 79.8271 Q995.746 76.0193 995.746 68.282 L995.746 64.5957 Q993.436 68.6061 989.831 70.5911 Q986.226 72.576 981.203 72.576 Q972.858 72.576 967.754 66.2161 Q962.65 59.8562 962.65 49.3643 Q962.65 38.832 967.754 32.472 Q972.858 26.1121 981.203 26.1121 Q986.226 26.1121 989.831 28.0971 Q993.436 30.082 995.746 34.0924 L995.746 27.2059 L1003.2 27.2059 L1003.2 66.9452 Z" fill="#000000" fill-rule="nonzero" fill-opacity="1"></path><path clip-path="url(#clip280)" d="M1077.57 28.9478 L1077.57 35.9153 Q1074.41 34.1734 1071.21 33.3227 Q1068.05 32.4315 1064.81 32.4315 Q1057.56 32.4315 1053.55 37.0496 Q1049.54 41.6271 1049.54 49.9314 Q1049.54 58.2358 1053.55 62.8538 Q1057.56 67.4314 1064.81 67.4314 Q1068.05 67.4314 1071.21 66.5807 Q1074.41 65.6895 1077.57 63.9476 L1077.57 70.8341 Q1074.45 72.2924 1071.09 73.0216 Q1067.77 73.7508 1064 73.7508 Q1053.75 73.7508 1047.72 67.3098 Q1041.68 60.8689 1041.68 49.9314 Q1041.68 38.832 1047.76 32.472 Q1053.88 26.1121 1064.49 26.1121 Q1067.93 26.1121 1071.21 26.8413 Q1074.5 27.5299 1077.57 28.9478 Z" fill="#000000" fill-rule="nonzero" fill-opacity="1"></path><path clip-path="url(#clip280)" d="M1116.83 34.1734 Q1115.57 33.4443 1114.07 33.1202 Q1112.61 32.7556 1110.83 32.7556 Q1104.51 32.7556 1101.11 36.8875 Q1097.75 40.9789 1097.75 48.6757 L1097.75 72.576 L1090.25 72.576 L1090.25 27.2059 L1097.75 27.2059 L1097.75 34.2544 Q1100.1 30.1225 1103.86 28.1376 Q1107.63 26.1121 1113.02 26.1121 Q1113.79 26.1121 1114.72 26.2337 Q1115.65 26.3147 1116.79 26.5172 L1116.83 34.1734 Z" fill="#000000" fill-rule="nonzero" fill-opacity="1"></path><path clip-path="url(#clip280)" d="M1140.4 32.4315 Q1134.41 32.4315 1130.92 37.1306 Q1127.44 41.7891 1127.44 49.9314 Q1127.44 58.0738 1130.88 62.7728 Q1134.37 67.4314 1140.4 67.4314 Q1146.36 67.4314 1149.84 62.7323 Q1153.33 58.0333 1153.33 49.9314 Q1153.33 41.8701 1149.84 37.1711 Q1146.36 32.4315 1140.4 32.4315 M1140.4 26.1121 Q1150.13 26.1121 1155.68 32.4315 Q1161.22 38.7509 1161.22 49.9314 Q1161.22 61.0714 1155.68 67.4314 Q1150.13 73.7508 1140.4 73.7508 Q1130.64 73.7508 1125.09 67.4314 Q1119.58 61.0714 1119.58 49.9314 Q1119.58 38.7509 1125.09 32.4315 Q1130.64 26.1121 1140.4 26.1121 Z" fill="#000000" fill-rule="nonzero" fill-opacity="1"></path><path clip-path="url(#clip280)" d="M1202.5 28.5427 L1202.5 35.5912 Q1199.34 33.9709 1195.94 33.1607 Q1192.54 32.3505 1188.89 32.3505 Q1183.34 32.3505 1180.55 34.0519 Q1177.79 35.7533 1177.79 39.156 Q1177.79 41.7486 1179.78 43.2475 Q1181.76 44.7058 1187.76 46.0426 L1190.31 46.6097 Q1198.25 48.3111 1201.57 51.4303 Q1204.93 54.509 1204.93 60.0587 Q1204.93 66.3781 1199.91 70.0644 Q1194.93 73.7508 1186.18 73.7508 Q1182.53 73.7508 1178.56 73.0216 Q1174.63 72.3329 1170.26 70.9151 L1170.26 63.2184 Q1174.39 65.3654 1178.4 66.4591 Q1182.41 67.5124 1186.34 67.5124 Q1191.61 67.5124 1194.44 65.73 Q1197.28 63.9071 1197.28 60.6258 Q1197.28 57.5877 1195.21 55.9673 Q1193.19 54.3469 1186.26 52.8481 L1183.67 52.2405 Q1176.74 50.7821 1173.66 47.7845 Q1170.58 44.7463 1170.58 39.4801 Q1170.58 33.0797 1175.12 29.5959 Q1179.66 26.1121 1188 26.1121 Q1192.13 26.1121 1195.78 26.7198 Q1199.42 27.3274 1202.5 28.5427 Z" fill="#000000" fill-rule="nonzero" fill-opacity="1"></path><path clip-path="url(#clip280)" d="M1245.73 28.5427 L1245.73 35.5912 Q1242.57 33.9709 1239.16 33.1607 Q1235.76 32.3505 1232.12 32.3505 Q1226.57 32.3505 1223.77 34.0519 Q1221.02 35.7533 1221.02 39.156 Q1221.02 41.7486 1223 43.2475 Q1224.99 44.7058 1230.98 46.0426 L1233.53 46.6097 Q1241.47 48.3111 1244.8 51.4303 Q1248.16 54.509 1248.16 60.0587 Q1248.16 66.3781 1243.13 70.0644 Q1238.15 73.7508 1229.4 73.7508 Q1225.76 73.7508 1221.79 73.0216 Q1217.86 72.3329 1213.48 70.9151 L1213.48 63.2184 Q1217.61 65.3654 1221.62 66.4591 Q1225.63 67.5124 1229.56 67.5124 Q1234.83 67.5124 1237.67 65.73 Q1240.5 63.9071 1240.5 60.6258 Q1240.5 57.5877 1238.44 55.9673 Q1236.41 54.3469 1229.48 52.8481 L1226.89 52.2405 Q1219.96 50.7821 1216.88 47.7845 Q1213.81 44.7463 1213.81 39.4801 Q1213.81 33.0797 1218.34 29.5959 Q1222.88 26.1121 1231.22 26.1121 Q1235.36 26.1121 1239 26.7198 Q1242.65 27.3274 1245.73 28.5427 Z" fill="#000000" fill-rule="nonzero" fill-opacity="1"></path><path clip-path="url(#clip280)" d="M1315.32 28.5427 L1315.32 35.5912 Q1312.16 33.9709 1308.76 33.1607 Q1305.36 32.3505 1301.71 32.3505 Q1296.16 32.3505 1293.37 34.0519 Q1290.61 35.7533 1290.61 39.156 Q1290.61 41.7486 1292.6 43.2475 Q1294.58 44.7058 1300.58 46.0426 L1303.13 46.6097 Q1311.07 48.3111 1314.39 51.4303 Q1317.75 54.509 1317.75 60.0587 Q1317.75 66.3781 1312.73 70.0644 Q1307.75 73.7508 1299 73.7508 Q1295.35 73.7508 1291.38 73.0216 Q1287.45 72.3329 1283.08 70.9151 L1283.08 63.2184 Q1287.21 65.3654 1291.22 66.4591 Q1295.23 67.5124 1299.16 67.5124 Q1304.42 67.5124 1307.26 65.73 Q1310.1 63.9071 1310.1 60.6258 Q1310.1 57.5877 1308.03 55.9673 Q1306 54.3469 1299.08 52.8481 L1296.48 52.2405 Q1289.56 50.7821 1286.48 47.7845 Q1283.4 44.7463 1283.4 39.4801 Q1283.4 33.0797 1287.94 29.5959 Q1292.47 26.1121 1300.82 26.1121 Q1304.95 26.1121 1308.6 26.7198 Q1312.24 27.3274 1315.32 28.5427 Z" fill="#000000" fill-rule="nonzero" fill-opacity="1"></path><path clip-path="url(#clip280)" d="M1368.43 48.0275 L1368.43 51.6733 L1334.16 51.6733 Q1334.64 59.3701 1338.78 63.421 Q1342.95 67.4314 1350.36 67.4314 Q1354.66 67.4314 1358.67 66.3781 Q1362.72 65.3249 1366.69 63.2184 L1366.69 70.267 Q1362.68 71.9684 1358.46 72.8596 Q1354.25 73.7508 1349.92 73.7508 Q1339.06 73.7508 1332.7 67.4314 Q1326.38 61.1119 1326.38 50.3365 Q1326.38 39.1965 1332.38 32.6746 Q1338.41 26.1121 1348.62 26.1121 Q1357.77 26.1121 1363.08 32.0264 Q1368.43 37.9003 1368.43 48.0275 M1360.98 45.84 Q1360.89 39.7232 1357.53 36.0774 Q1354.21 32.4315 1348.7 32.4315 Q1342.46 32.4315 1338.7 35.9558 Q1334.97 39.4801 1334.4 45.8805 L1360.98 45.84 Z" fill="#000000" fill-rule="nonzero" fill-opacity="1"></path><path clip-path="url(#clip280)" d="M1413.31 28.9478 L1413.31 35.9153 Q1410.15 34.1734 1406.95 33.3227 Q1403.79 32.4315 1400.55 32.4315 Q1393.3 32.4315 1389.29 37.0496 Q1385.28 41.6271 1385.28 49.9314 Q1385.28 58.2358 1389.29 62.8538 Q1393.3 67.4314 1400.55 67.4314 Q1403.79 67.4314 1406.95 66.5807 Q1410.15 65.6895 1413.31 63.9476 L1413.31 70.8341 Q1410.19 72.2924 1406.83 73.0216 Q1403.51 73.7508 1399.74 73.7508 Q1389.49 73.7508 1383.46 67.3098 Q1377.42 60.8689 1377.42 49.9314 Q1377.42 38.832 1383.5 32.472 Q1389.61 26.1121 1400.23 26.1121 Q1403.67 26.1121 1406.95 26.8413 Q1410.23 27.5299 1413.31 28.9478 Z" fill="#000000" fill-rule="nonzero" fill-opacity="1"></path><path clip-path="url(#clip280)" d="M1433.65 14.324 L1433.65 27.2059 L1449 27.2059 L1449 32.9987 L1433.65 32.9987 L1433.65 57.6282 Q1433.65 63.1779 1435.15 64.7578 Q1436.69 66.3376 1441.34 66.3376 L1449 66.3376 L1449 72.576 L1441.34 72.576 Q1432.72 72.576 1429.44 69.3758 Q1426.15 66.1351 1426.15 57.6282 L1426.15 32.9987 L1420.69 32.9987 L1420.69 27.2059 L1426.15 27.2059 L1426.15 14.324 L1433.65 14.324 Z" fill="#000000" fill-rule="nonzero" fill-opacity="1"></path><path clip-path="url(#clip280)" d="M1458.8 27.2059 L1466.26 27.2059 L1466.26 72.576 L1458.8 72.576 L1458.8 27.2059 M1458.8 9.54393 L1466.26 9.54393 L1466.26 18.9825 L1458.8 18.9825 L1458.8 9.54393 Z" fill="#000000" fill-rule="nonzero" fill-opacity="1"></path><path clip-path="url(#clip280)" d="M1499.43 32.4315 Q1493.44 32.4315 1489.96 37.1306 Q1486.47 41.7891 1486.47 49.9314 Q1486.47 58.0738 1489.92 62.7728 Q1493.4 67.4314 1499.43 67.4314 Q1505.39 67.4314 1508.87 62.7323 Q1512.36 58.0333 1512.36 49.9314 Q1512.36 41.8701 1508.87 37.1711 Q1505.39 32.4315 1499.43 32.4315 M1499.43 26.1121 Q1509.16 26.1121 1514.71 32.4315 Q1520.26 38.7509 1520.26 49.9314 Q1520.26 61.0714 1514.71 67.4314 Q1509.16 73.7508 1499.43 73.7508 Q1489.67 73.7508 1484.12 67.4314 Q1478.61 61.0714 1478.61 49.9314 Q1478.61 38.7509 1484.12 32.4315 Q1489.67 26.1121 1499.43 26.1121 Z" fill="#000000" fill-rule="nonzero" fill-opacity="1"></path><path clip-path="url(#clip280)" d="M1570.33 45.1919 L1570.33 72.576 L1562.87 72.576 L1562.87 45.4349 Q1562.87 38.994 1560.36 35.7938 Q1557.85 32.5936 1552.83 32.5936 Q1546.79 32.5936 1543.31 36.4419 Q1539.82 40.2903 1539.82 46.9338 L1539.82 72.576 L1532.33 72.576 L1532.33 27.2059 L1539.82 27.2059 L1539.82 34.2544 Q1542.5 30.163 1546.1 28.1376 Q1549.75 26.1121 1554.49 26.1121 Q1562.3 26.1121 1566.32 30.9732 Q1570.33 35.7938 1570.33 45.1919 Z" fill="#000000" fill-rule="nonzero" fill-opacity="1"></path><path clip-path="url(#clip280)" d="M1632.18 49.7694 Q1623.15 49.7694 1619.67 51.8354 Q1616.18 53.9013 1616.18 58.8839 Q1616.18 62.8538 1618.77 65.2034 Q1621.41 67.5124 1625.9 67.5124 Q1632.1 67.5124 1635.83 63.1374 Q1639.6 58.7219 1639.6 51.4303 L1639.6 49.7694 L1632.18 49.7694 M1647.05 46.6907 L1647.05 72.576 L1639.6 72.576 L1639.6 65.6895 Q1637.04 69.8214 1633.24 71.8063 Q1629.43 73.7508 1623.92 73.7508 Q1616.95 73.7508 1612.82 69.8619 Q1608.73 65.9325 1608.73 59.3701 Q1608.73 51.7138 1613.83 47.825 Q1618.98 43.9361 1629.14 43.9361 L1639.6 43.9361 L1639.6 43.2069 Q1639.6 38.0623 1636.19 35.2672 Q1632.83 32.4315 1626.71 32.4315 Q1622.83 32.4315 1619.14 33.3632 Q1615.45 34.295 1612.05 36.1584 L1612.05 29.2718 Q1616.14 27.692 1619.99 26.9223 Q1623.84 26.1121 1627.48 26.1121 Q1637.33 26.1121 1642.19 31.2163 Q1647.05 36.3204 1647.05 46.6907 Z" fill="#000000" fill-rule="nonzero" fill-opacity="1"></path><path clip-path="url(#clip280)" d="M1669.78 14.324 L1669.78 27.2059 L1685.13 27.2059 L1685.13 32.9987 L1669.78 32.9987 L1669.78 57.6282 Q1669.78 63.1779 1671.27 64.7578 Q1672.81 66.3376 1677.47 66.3376 L1685.13 66.3376 L1685.13 72.576 L1677.47 72.576 Q1668.84 72.576 1665.56 69.3758 Q1662.28 66.1351 1662.28 57.6282 L1662.28 32.9987 L1656.81 32.9987 L1656.81 27.2059 L1662.28 27.2059 L1662.28 14.324 L1669.78 14.324 Z" fill="#000000" fill-rule="nonzero" fill-opacity="1"></path><path clip-path="url(#clip280)" d="M1744.84 19.2256 L1724.18 51.5113 L1744.84 51.5113 L1744.84 19.2256 M1742.69 12.096 L1752.98 12.096 L1752.98 51.5113 L1761.61 51.5113 L1761.61 58.3168 L1752.98 58.3168 L1752.98 72.576 L1744.84 72.576 L1744.84 58.3168 L1717.54 58.3168 L1717.54 50.4176 L1742.69 12.096 Z" fill="#000000" fill-rule="nonzero" fill-opacity="1"></path><path clip-path="url(#clip280)" d="M1792.64 17.4837 Q1786.32 17.4837 1783.12 23.7221 Q1779.96 29.92 1779.96 42.3968 Q1779.96 54.833 1783.12 61.0714 Q1786.32 67.2693 1792.64 67.2693 Q1799 67.2693 1802.16 61.0714 Q1805.36 54.833 1805.36 42.3968 Q1805.36 29.92 1802.16 23.7221 Q1799 17.4837 1792.64 17.4837 M1792.64 11.0023 Q1802.81 11.0023 1808.15 19.0636 Q1813.54 27.0843 1813.54 42.3968 Q1813.54 57.6687 1808.15 65.73 Q1802.81 73.7508 1792.64 73.7508 Q1782.47 73.7508 1777.08 65.73 Q1771.74 57.6687 1771.74 42.3968 Q1771.74 27.0843 1777.08 19.0636 Q1782.47 11.0023 1792.64 11.0023 Z" fill="#000000" fill-rule="nonzero" fill-opacity="1"></path><path clip-path="url(#clip280)" d="M1845.42 17.4837 Q1839.1 17.4837 1835.9 23.7221 Q1832.74 29.92 1832.74 42.3968 Q1832.74 54.833 1835.9 61.0714 Q1839.1 67.2693 1845.42 67.2693 Q1851.78 67.2693 1854.94 61.0714 Q1858.14 54.833 1858.14 42.3968 Q1858.14 29.92 1854.94 23.7221 Q1851.78 17.4837 1845.42 17.4837 M1845.42 11.0023 Q1855.59 11.0023 1860.94 19.0636 Q1866.33 27.0843 1866.33 42.3968 Q1866.33 57.6687 1860.94 65.73 Q1855.59 73.7508 1845.42 73.7508 Q1835.25 73.7508 1829.87 65.73 Q1824.52 57.6687 1824.52 42.3968 Q1824.52 27.0843 1829.87 19.0636 Q1835.25 11.0023 1845.42 11.0023 Z" fill="#000000" fill-rule="nonzero" fill-opacity="1"></path><path clip-path="url(#clip280)" d="M1880.71 62.2867 L1889.25 62.2867 L1889.25 72.576 L1880.71 72.576 L1880.71 62.2867 Z" fill="#000000" fill-rule="nonzero" fill-opacity="1"></path><path clip-path="url(#clip280)" d="M1924.58 17.4837 Q1918.26 17.4837 1915.06 23.7221 Q1911.9 29.92 1911.9 42.3968 Q1911.9 54.833 1915.06 61.0714 Q1918.26 67.2693 1924.58 67.2693 Q1930.94 67.2693 1934.1 61.0714 Q1937.3 54.833 1937.3 42.3968 Q1937.3 29.92 1934.1 23.7221 Q1930.94 17.4837 1924.58 17.4837 M1924.58 11.0023 Q1934.75 11.0023 1940.09 19.0636 Q1945.48 27.0843 1945.48 42.3968 Q1945.48 57.6687 1940.09 65.73 Q1934.75 73.7508 1924.58 73.7508 Q1914.41 73.7508 1909.02 65.73 Q1903.67 57.6687 1903.67 42.3968 Q1903.67 27.0843 1909.02 19.0636 Q1914.41 11.0023 1924.58 11.0023 Z" fill="#000000" fill-rule="nonzero" fill-opacity="1"></path><path clip-path="url(#clip280)" d="M2022.89 45.1919 L2022.89 72.576 L2015.44 72.576 L2015.44 45.4349 Q2015.44 38.994 2012.93 35.7938 Q2010.42 32.5936 2005.39 32.5936 Q1999.36 32.5936 1995.87 36.4419 Q1992.39 40.2903 1992.39 46.9338 L1992.39 72.576 L1984.9 72.576 L1984.9 27.2059 L1992.39 27.2059 L1992.39 34.2544 Q1995.06 30.163 1998.67 28.1376 Q2002.31 26.1121 2007.05 26.1121 Q2014.87 26.1121 2018.88 30.9732 Q2022.89 35.7938 2022.89 45.1919 Z" fill="#000000" fill-rule="nonzero" fill-opacity="1"></path><path clip-path="url(#clip280)" d="M2073.08 35.9153 Q2075.88 30.8922 2079.77 28.5022 Q2083.66 26.1121 2088.92 26.1121 Q2096.01 26.1121 2099.86 31.0947 Q2103.71 36.0368 2103.71 45.1919 L2103.71 72.576 L2096.21 72.576 L2096.21 45.4349 Q2096.21 38.913 2093.91 35.7533 Q2091.6 32.5936 2086.86 32.5936 Q2081.06 32.5936 2077.7 36.4419 Q2074.34 40.2903 2074.34 46.9338 L2074.34 72.576 L2066.85 72.576 L2066.85 45.4349 Q2066.85 38.8725 2064.54 35.7533 Q2062.23 32.5936 2057.41 32.5936 Q2051.69 32.5936 2048.33 36.4824 Q2044.97 40.3308 2044.97 46.9338 L2044.97 72.576 L2037.48 72.576 L2037.48 27.2059 L2044.97 27.2059 L2044.97 34.2544 Q2047.52 30.082 2051.09 28.0971 Q2054.65 26.1121 2059.55 26.1121 Q2064.5 26.1121 2067.94 28.6237 Q2071.42 31.1352 2073.08 35.9153 Z" fill="#000000" fill-rule="nonzero" fill-opacity="1"></path><polyline clip-path="url(#clip282)" style="stroke:#009af9; stroke-linecap:round; stroke-linejoin:round; stroke-width:4; stroke-opacity:1; fill:none" points="396.519,1386.4 437.808,1386.39 479.096,1386.39 520.384,1386.38 561.672,1386.36 602.96,1386.33 644.249,1386.27 685.537,1386.19 726.825,1386.06 768.113,1385.87 809.402,1385.6 850.69,1385.23 891.978,1384.71 933.266,1384.03 974.555,1383.12 1015.84,1381.94 1057.13,1380.42 1098.42,1378.5 1139.71,1376.08 1181,1373.08 1222.28,1369.38 1263.57,1364.87 1304.86,1359.4 1346.15,1352.82 1387.44,1344.95 1428.73,1335.6 1470.01,1324.55 1511.3,1311.58 1552.59,1296.4 1593.88,1278.75 1635.17,1258.3 1676.45,1234.71 1717.74,1207.61 1759.03,1176.59 1800.32,1141.2 1841.61,1100.98 1882.9,1055.4 1924.18,1003.91 1965.47,945.913 2006.76,880.764 2048.05,807.776 2089.34,726.211 2130.63,635.282 2171.91,534.148 2213.2,421.911 2254.49,297.619 2295.78,160.256 "></polyline>
<circle clip-path="url(#clip282)" cx="1015.84" cy="1381.94" r="14.4" fill="#ff0000" fill-rule="evenodd" fill-opacity="1" stroke="#000000" stroke-opacity="1" stroke-width="3.2"></circle>
<circle clip-path="url(#clip282)" cx="1428.73" cy="1335.6" r="14.4" fill="#008000" fill-rule="evenodd" fill-opacity="1" stroke="#000000" stroke-opacity="1" stroke-width="3.2"></circle>
<circle clip-path="url(#clip282)" cx="2254.49" cy="297.619" r="14.4" fill="#0000ff" fill-rule="evenodd" fill-opacity="1" stroke="#000000" stroke-opacity="1" stroke-width="3.2"></circle>
<path clip-path="url(#clip280)" d="M406.649 425.996 L1090.33 425.996 L1090.33 166.796 L406.649 166.796  Z" fill="#ffffff" fill-rule="evenodd" fill-opacity="1"></path>
<polyline clip-path="url(#clip280)" style="stroke:#000000; stroke-linecap:round; stroke-linejoin:round; stroke-width:4; stroke-opacity:1; fill:none" points="406.649,425.996 1090.33,425.996 1090.33,166.796 406.649,166.796 406.649,425.996 "></polyline>
<polyline clip-path="url(#clip280)" style="stroke:#009af9; stroke-linecap:round; stroke-linejoin:round; stroke-width:4; stroke-opacity:1; fill:none" points="429.018,218.636 563.232,218.636 "></polyline>
<path clip-path="url(#clip280)" d="M601.434 205.962 L595.092 223.161 L607.8 223.161 L601.434 205.962 M598.795 201.356 L604.096 201.356 L617.268 235.916 L612.406 235.916 L609.258 227.05 L593.68 227.05 L590.532 235.916 L585.601 235.916 L598.795 201.356 Z" fill="#000000" fill-rule="nonzero" fill-opacity="1"></path><path clip-path="url(#clip280)" d="M622.129 199.897 L626.388 199.897 L626.388 235.916 L622.129 235.916 L622.129 199.897 Z" fill="#000000" fill-rule="nonzero" fill-opacity="1"></path><path clip-path="url(#clip280)" d="M635.3 199.897 L639.559 199.897 L639.559 235.916 L635.3 235.916 L635.3 199.897 Z" fill="#000000" fill-rule="nonzero" fill-opacity="1"></path><path clip-path="url(#clip280)" d="M678.564 213.971 Q677.846 213.555 676.989 213.37 Q676.156 213.161 675.138 213.161 Q671.527 213.161 669.582 215.522 Q667.661 217.86 667.661 222.258 L667.661 235.916 L663.378 235.916 L663.378 209.99 L667.661 209.99 L667.661 214.018 Q669.003 211.657 671.156 210.522 Q673.309 209.365 676.388 209.365 Q676.827 209.365 677.36 209.434 Q677.892 209.481 678.54 209.596 L678.564 213.971 Z" fill="#000000" fill-rule="nonzero" fill-opacity="1"></path><path clip-path="url(#clip280)" d="M694.813 222.883 Q689.651 222.883 687.661 224.064 Q685.67 225.244 685.67 228.092 Q685.67 230.36 687.151 231.703 Q688.656 233.022 691.226 233.022 Q694.767 233.022 696.897 230.522 Q699.05 227.999 699.05 223.832 L699.05 222.883 L694.813 222.883 M703.309 221.124 L703.309 235.916 L699.05 235.916 L699.05 231.981 Q697.591 234.342 695.415 235.476 Q693.239 236.587 690.091 236.587 Q686.11 236.587 683.749 234.365 Q681.411 232.119 681.411 228.369 Q681.411 223.994 684.327 221.772 Q687.267 219.55 693.077 219.55 L699.05 219.55 L699.05 219.133 Q699.05 216.194 697.105 214.596 Q695.184 212.976 691.688 212.976 Q689.466 212.976 687.36 213.508 Q685.253 214.041 683.309 215.106 L683.309 211.17 Q685.647 210.268 687.846 209.828 Q690.045 209.365 692.128 209.365 Q697.753 209.365 700.531 212.282 Q703.309 215.198 703.309 221.124 Z" fill="#000000" fill-rule="nonzero" fill-opacity="1"></path><path clip-path="url(#clip280)" d="M729.142 213.925 L729.142 199.897 L733.401 199.897 L733.401 235.916 L729.142 235.916 L729.142 232.027 Q727.799 234.342 725.739 235.476 Q723.702 236.587 720.832 236.587 Q716.133 236.587 713.17 232.837 Q710.23 229.087 710.23 222.976 Q710.23 216.865 713.17 213.115 Q716.133 209.365 720.832 209.365 Q723.702 209.365 725.739 210.499 Q727.799 211.61 729.142 213.925 M714.628 222.976 Q714.628 227.675 716.549 230.36 Q718.494 233.022 721.874 233.022 Q725.253 233.022 727.198 230.36 Q729.142 227.675 729.142 222.976 Q729.142 218.277 727.198 215.615 Q725.253 212.93 721.874 212.93 Q718.494 212.93 716.549 215.615 Q714.628 218.277 714.628 222.976 Z" fill="#000000" fill-rule="nonzero" fill-opacity="1"></path><path clip-path="url(#clip280)" d="M742.174 209.99 L746.434 209.99 L746.434 235.916 L742.174 235.916 L742.174 209.99 M742.174 199.897 L746.434 199.897 L746.434 205.291 L742.174 205.291 L742.174 199.897 Z" fill="#000000" fill-rule="nonzero" fill-opacity="1"></path><path clip-path="url(#clip280)" d="M755.346 209.99 L759.605 209.99 L759.605 235.916 L755.346 235.916 L755.346 209.99 M755.346 199.897 L759.605 199.897 L759.605 205.291 L755.346 205.291 L755.346 199.897 Z" fill="#000000" fill-rule="nonzero" fill-opacity="1"></path><circle clip-path="url(#clip280)" cx="496.125" cy="270.476" r="20.48" fill="#ff0000" fill-rule="evenodd" fill-opacity="1" stroke="#000000" stroke-opacity="1" stroke-width="4.55111"></circle>
<path clip-path="url(#clip280)" d="M591.226 283.821 L607.545 283.821 L607.545 287.756 L585.601 287.756 L585.601 283.821 Q588.263 281.066 592.846 276.436 Q597.453 271.784 598.633 270.441 Q600.879 267.918 601.758 266.182 Q602.661 264.423 602.661 262.733 Q602.661 259.978 600.717 258.242 Q598.795 256.506 595.694 256.506 Q593.495 256.506 591.041 257.27 Q588.61 258.034 585.833 259.585 L585.833 254.862 Q588.657 253.728 591.11 253.149 Q593.564 252.571 595.601 252.571 Q600.971 252.571 604.166 255.256 Q607.36 257.941 607.36 262.432 Q607.36 264.561 606.55 266.483 Q605.763 268.381 603.657 270.973 Q603.078 271.645 599.976 274.862 Q596.874 278.057 591.226 283.821 Z" fill="#000000" fill-rule="nonzero" fill-opacity="1"></path><path clip-path="url(#clip280)" d="M627.36 256.274 Q623.749 256.274 621.92 259.839 Q620.115 263.381 620.115 270.51 Q620.115 277.617 621.92 281.182 Q623.749 284.723 627.36 284.723 Q630.994 284.723 632.8 281.182 Q634.629 277.617 634.629 270.51 Q634.629 263.381 632.8 259.839 Q630.994 256.274 627.36 256.274 M627.36 252.571 Q633.17 252.571 636.226 257.177 Q639.304 261.76 639.304 270.51 Q639.304 279.237 636.226 283.844 Q633.17 288.427 627.36 288.427 Q621.55 288.427 618.471 283.844 Q615.416 279.237 615.416 270.51 Q615.416 261.76 618.471 257.177 Q621.55 252.571 627.36 252.571 Z" fill="#000000" fill-rule="nonzero" fill-opacity="1"></path><path clip-path="url(#clip280)" d="M683.54 272.108 L683.54 287.756 L679.281 287.756 L679.281 272.247 Q679.281 268.566 677.846 266.737 Q676.411 264.909 673.54 264.909 Q670.091 264.909 668.101 267.108 Q666.11 269.307 666.11 273.103 L666.11 287.756 L661.828 287.756 L661.828 261.83 L666.11 261.83 L666.11 265.858 Q667.638 263.52 669.698 262.362 Q671.781 261.205 674.489 261.205 Q678.957 261.205 681.249 263.983 Q683.54 266.737 683.54 272.108 Z" fill="#000000" fill-rule="nonzero" fill-opacity="1"></path><path clip-path="url(#clip280)" d="M712.221 266.807 Q713.818 263.936 716.04 262.571 Q718.262 261.205 721.272 261.205 Q725.323 261.205 727.522 264.052 Q729.721 266.876 729.721 272.108 L729.721 287.756 L725.438 287.756 L725.438 272.247 Q725.438 268.52 724.119 266.714 Q722.799 264.909 720.091 264.909 Q716.781 264.909 714.86 267.108 Q712.938 269.307 712.938 273.103 L712.938 287.756 L708.656 287.756 L708.656 272.247 Q708.656 268.497 707.337 266.714 Q706.017 264.909 703.262 264.909 Q699.999 264.909 698.077 267.131 Q696.156 269.33 696.156 273.103 L696.156 287.756 L691.874 287.756 L691.874 261.83 L696.156 261.83 L696.156 265.858 Q697.614 263.473 699.651 262.339 Q701.688 261.205 704.489 261.205 Q707.313 261.205 709.281 262.64 Q711.272 264.075 712.221 266.807 Z" fill="#000000" fill-rule="nonzero" fill-opacity="1"></path><path clip-path="url(#clip280)" d="M739.304 281.876 L744.188 281.876 L744.188 287.756 L739.304 287.756 L739.304 281.876 M739.304 263.242 L744.188 263.242 L744.188 269.122 L739.304 269.122 L739.304 263.242 Z" fill="#000000" fill-rule="nonzero" fill-opacity="1"></path><path clip-path="url(#clip280)" d="M770.67 283.821 L778.308 283.821 L778.308 257.455 L769.998 259.122 L769.998 254.862 L778.262 253.196 L782.938 253.196 L782.938 283.821 L790.577 283.821 L790.577 287.756 L770.67 287.756 L770.67 283.821 Z" fill="#000000" fill-rule="nonzero" fill-opacity="1"></path><path clip-path="url(#clip280)" d="M804.049 283.821 L820.368 283.821 L820.368 287.756 L798.424 287.756 L798.424 283.821 Q801.086 281.066 805.669 276.436 Q810.276 271.784 811.456 270.441 Q813.702 267.918 814.581 266.182 Q815.484 264.423 815.484 262.733 Q815.484 259.978 813.54 258.242 Q811.618 256.506 808.517 256.506 Q806.317 256.506 803.864 257.27 Q801.433 258.034 798.655 259.585 L798.655 254.862 Q801.48 253.728 803.933 253.149 Q806.387 252.571 808.424 252.571 Q813.794 252.571 816.989 255.256 Q820.183 257.941 820.183 262.432 Q820.183 264.561 819.373 266.483 Q818.586 268.381 816.479 270.973 Q815.901 271.645 812.799 274.862 Q809.697 278.057 804.049 283.821 Z" fill="#000000" fill-rule="nonzero" fill-opacity="1"></path><path clip-path="url(#clip280)" d="M830.229 253.196 L848.586 253.196 L848.586 257.131 L834.512 257.131 L834.512 265.603 Q835.53 265.256 836.549 265.094 Q837.567 264.909 838.586 264.909 Q844.373 264.909 847.752 268.08 Q851.132 271.251 851.132 276.668 Q851.132 282.246 847.66 285.348 Q844.188 288.427 837.868 288.427 Q835.692 288.427 833.424 288.057 Q831.178 287.686 828.771 286.946 L828.771 282.246 Q830.854 283.381 833.077 283.936 Q835.299 284.492 837.776 284.492 Q841.78 284.492 844.118 282.385 Q846.456 280.279 846.456 276.668 Q846.456 273.057 844.118 270.95 Q841.78 268.844 837.776 268.844 Q835.901 268.844 834.026 269.26 Q832.174 269.677 830.229 270.557 L830.229 253.196 Z" fill="#000000" fill-rule="nonzero" fill-opacity="1"></path><path clip-path="url(#clip280)" d="M860.345 281.876 L865.229 281.876 L865.229 287.756 L860.345 287.756 L860.345 281.876 Z" fill="#000000" fill-rule="nonzero" fill-opacity="1"></path><path clip-path="url(#clip280)" d="M885.414 256.274 Q881.803 256.274 879.975 259.839 Q878.169 263.381 878.169 270.51 Q878.169 277.617 879.975 281.182 Q881.803 284.723 885.414 284.723 Q889.049 284.723 890.854 281.182 Q892.683 277.617 892.683 270.51 Q892.683 263.381 890.854 259.839 Q889.049 256.274 885.414 256.274 M885.414 252.571 Q891.224 252.571 894.28 257.177 Q897.359 261.76 897.359 270.51 Q897.359 279.237 894.28 283.844 Q891.224 288.427 885.414 288.427 Q879.604 288.427 876.525 283.844 Q873.47 279.237 873.47 270.51 Q873.47 261.76 876.525 257.177 Q879.604 252.571 885.414 252.571 Z" fill="#000000" fill-rule="nonzero" fill-opacity="1"></path><path clip-path="url(#clip280)" d="M941.595 272.108 L941.595 287.756 L937.335 287.756 L937.335 272.247 Q937.335 268.566 935.9 266.737 Q934.465 264.909 931.595 264.909 Q928.146 264.909 926.155 267.108 Q924.164 269.307 924.164 273.103 L924.164 287.756 L919.882 287.756 L919.882 261.83 L924.164 261.83 L924.164 265.858 Q925.692 263.52 927.752 262.362 Q929.835 261.205 932.544 261.205 Q937.011 261.205 939.303 263.983 Q941.595 266.737 941.595 272.108 Z" fill="#000000" fill-rule="nonzero" fill-opacity="1"></path><path clip-path="url(#clip280)" d="M970.275 266.807 Q971.872 263.936 974.094 262.571 Q976.317 261.205 979.326 261.205 Q983.377 261.205 985.576 264.052 Q987.775 266.876 987.775 272.108 L987.775 287.756 L983.492 287.756 L983.492 272.247 Q983.492 268.52 982.173 266.714 Q980.854 264.909 978.145 264.909 Q974.835 264.909 972.914 267.108 Q970.993 269.307 970.993 273.103 L970.993 287.756 L966.71 287.756 L966.71 272.247 Q966.71 268.497 965.391 266.714 Q964.071 264.909 961.317 264.909 Q958.053 264.909 956.132 267.131 Q954.21 269.33 954.21 273.103 L954.21 287.756 L949.928 287.756 L949.928 261.83 L954.21 261.83 L954.21 265.858 Q955.669 263.473 957.706 262.339 Q959.743 261.205 962.544 261.205 Q965.368 261.205 967.335 262.64 Q969.326 264.075 970.275 266.807 Z" fill="#000000" fill-rule="nonzero" fill-opacity="1"></path><path clip-path="url(#clip280)" d="M998.006 269.654 L1007.82 269.654 L1007.82 272.293 L993.979 272.293 L993.979 269.747 Q994.766 269.029 996.224 267.733 Q1004.19 260.673 1004.19 258.497 Q1004.19 256.969 1002.98 256.043 Q1001.78 255.094 999.812 255.094 Q998.608 255.094 997.196 255.511 Q995.784 255.904 994.117 256.714 L994.117 253.867 Q995.9 253.219 997.428 252.895 Q998.978 252.571 1000.3 252.571 Q1003.65 252.571 1005.67 254.098 Q1007.68 255.626 1007.68 258.126 Q1007.68 261.344 1000.02 267.918 Q998.724 269.029 998.006 269.654 Z" fill="#000000" fill-rule="nonzero" fill-opacity="1"></path><circle clip-path="url(#clip280)" cx="496.125" cy="322.316" r="20.48" fill="#008000" fill-rule="evenodd" fill-opacity="1" stroke="#000000" stroke-opacity="1" stroke-width="4.55111"></circle>
<path clip-path="url(#clip280)" d="M601.226 320.962 Q604.582 321.679 606.457 323.948 Q608.356 326.216 608.356 329.549 Q608.356 334.665 604.837 337.466 Q601.319 340.267 594.837 340.267 Q592.661 340.267 590.346 339.827 Q588.055 339.411 585.601 338.554 L585.601 334.04 Q587.546 335.174 589.86 335.753 Q592.175 336.332 594.698 336.332 Q599.096 336.332 601.388 334.596 Q603.703 332.86 603.703 329.549 Q603.703 326.494 601.55 324.781 Q599.42 323.045 595.601 323.045 L591.573 323.045 L591.573 319.202 L595.786 319.202 Q599.235 319.202 601.064 317.837 Q602.893 316.448 602.893 313.855 Q602.893 311.193 600.995 309.781 Q599.12 308.346 595.601 308.346 Q593.68 308.346 591.481 308.763 Q589.282 309.179 586.643 310.059 L586.643 305.892 Q589.305 305.151 591.62 304.781 Q593.958 304.411 596.018 304.411 Q601.342 304.411 604.444 306.841 Q607.545 309.249 607.545 313.369 Q607.545 316.239 605.902 318.23 Q604.258 320.198 601.226 320.962 Z" fill="#000000" fill-rule="nonzero" fill-opacity="1"></path><path clip-path="url(#clip280)" d="M627.221 308.114 Q623.61 308.114 621.781 311.679 Q619.976 315.221 619.976 322.35 Q619.976 329.457 621.781 333.022 Q623.61 336.563 627.221 336.563 Q630.855 336.563 632.661 333.022 Q634.49 329.457 634.49 322.35 Q634.49 315.221 632.661 311.679 Q630.855 308.114 627.221 308.114 M627.221 304.411 Q633.031 304.411 636.087 309.017 Q639.166 313.6 639.166 322.35 Q639.166 331.077 636.087 335.684 Q633.031 340.267 627.221 340.267 Q621.411 340.267 618.332 335.684 Q615.277 331.077 615.277 322.35 Q615.277 313.6 618.332 309.017 Q621.411 304.411 627.221 304.411 Z" fill="#000000" fill-rule="nonzero" fill-opacity="1"></path><path clip-path="url(#clip280)" d="M683.401 323.948 L683.401 339.596 L679.142 339.596 L679.142 324.087 Q679.142 320.406 677.707 318.577 Q676.272 316.749 673.402 316.749 Q669.952 316.749 667.962 318.948 Q665.971 321.147 665.971 324.943 L665.971 339.596 L661.689 339.596 L661.689 313.67 L665.971 313.67 L665.971 317.698 Q667.499 315.36 669.559 314.202 Q671.642 313.045 674.351 313.045 Q678.818 313.045 681.11 315.823 Q683.401 318.577 683.401 323.948 Z" fill="#000000" fill-rule="nonzero" fill-opacity="1"></path><path clip-path="url(#clip280)" d="M712.082 318.647 Q713.679 315.776 715.901 314.411 Q718.124 313.045 721.133 313.045 Q725.184 313.045 727.383 315.892 Q729.582 318.716 729.582 323.948 L729.582 339.596 L725.299 339.596 L725.299 324.087 Q725.299 320.36 723.98 318.554 Q722.661 316.749 719.952 316.749 Q716.642 316.749 714.721 318.948 Q712.799 321.147 712.799 324.943 L712.799 339.596 L708.517 339.596 L708.517 324.087 Q708.517 320.337 707.198 318.554 Q705.878 316.749 703.124 316.749 Q699.86 316.749 697.938 318.971 Q696.017 321.17 696.017 324.943 L696.017 339.596 L691.735 339.596 L691.735 313.67 L696.017 313.67 L696.017 317.698 Q697.475 315.313 699.513 314.179 Q701.55 313.045 704.35 313.045 Q707.175 313.045 709.142 314.48 Q711.133 315.915 712.082 318.647 Z" fill="#000000" fill-rule="nonzero" fill-opacity="1"></path><path clip-path="url(#clip280)" d="M739.165 333.716 L744.049 333.716 L744.049 339.596 L739.165 339.596 L739.165 333.716 M739.165 315.082 L744.049 315.082 L744.049 320.962 L739.165 320.962 L739.165 315.082 Z" fill="#000000" fill-rule="nonzero" fill-opacity="1"></path><path clip-path="url(#clip280)" d="M770.531 335.661 L778.169 335.661 L778.169 309.295 L769.859 310.962 L769.859 306.702 L778.123 305.036 L782.799 305.036 L782.799 335.661 L790.438 335.661 L790.438 339.596 L770.531 339.596 L770.531 335.661 Z" fill="#000000" fill-rule="nonzero" fill-opacity="1"></path><path clip-path="url(#clip280)" d="M812.729 309.11 L800.924 327.559 L812.729 327.559 L812.729 309.11 M811.503 305.036 L817.382 305.036 L817.382 327.559 L822.313 327.559 L822.313 331.448 L817.382 331.448 L817.382 339.596 L812.729 339.596 L812.729 331.448 L797.128 331.448 L797.128 326.934 L811.503 305.036 Z" fill="#000000" fill-rule="nonzero" fill-opacity="1"></path><path clip-path="url(#clip280)" d="M844.211 320.962 Q847.567 321.679 849.442 323.948 Q851.34 326.216 851.34 329.549 Q851.34 334.665 847.822 337.466 Q844.303 340.267 837.822 340.267 Q835.646 340.267 833.331 339.827 Q831.04 339.411 828.586 338.554 L828.586 334.04 Q830.53 335.174 832.845 335.753 Q835.16 336.332 837.683 336.332 Q842.081 336.332 844.373 334.596 Q846.688 332.86 846.688 329.549 Q846.688 326.494 844.535 324.781 Q842.405 323.045 838.586 323.045 L834.558 323.045 L834.558 319.202 L838.771 319.202 Q842.22 319.202 844.049 317.837 Q845.877 316.448 845.877 313.855 Q845.877 311.193 843.979 309.781 Q842.104 308.346 838.586 308.346 Q836.665 308.346 834.465 308.763 Q832.266 309.179 829.628 310.059 L829.628 305.892 Q832.29 305.151 834.604 304.781 Q836.942 304.411 839.003 304.411 Q844.327 304.411 847.428 306.841 Q850.53 309.249 850.53 313.369 Q850.53 316.239 848.887 318.23 Q847.243 320.198 844.211 320.962 Z" fill="#000000" fill-rule="nonzero" fill-opacity="1"></path><path clip-path="url(#clip280)" d="M870.206 308.114 Q866.595 308.114 864.766 311.679 Q862.961 315.221 862.961 322.35 Q862.961 329.457 864.766 333.022 Q866.595 336.563 870.206 336.563 Q873.84 336.563 875.646 333.022 Q877.475 329.457 877.475 322.35 Q877.475 315.221 875.646 311.679 Q873.84 308.114 870.206 308.114 M870.206 304.411 Q876.016 304.411 879.072 309.017 Q882.15 313.6 882.15 322.35 Q882.15 331.077 879.072 335.684 Q876.016 340.267 870.206 340.267 Q864.396 340.267 861.317 335.684 Q858.262 331.077 858.262 322.35 Q858.262 313.6 861.317 309.017 Q864.396 304.411 870.206 304.411 Z" fill="#000000" fill-rule="nonzero" fill-opacity="1"></path><path clip-path="url(#clip280)" d="M890.368 333.716 L895.252 333.716 L895.252 339.596 L890.368 339.596 L890.368 333.716 Z" fill="#000000" fill-rule="nonzero" fill-opacity="1"></path><path clip-path="url(#clip280)" d="M915.437 308.114 Q911.826 308.114 909.997 311.679 Q908.192 315.221 908.192 322.35 Q908.192 329.457 909.997 333.022 Q911.826 336.563 915.437 336.563 Q919.072 336.563 920.877 333.022 Q922.706 329.457 922.706 322.35 Q922.706 315.221 920.877 311.679 Q919.072 308.114 915.437 308.114 M915.437 304.411 Q921.247 304.411 924.303 309.017 Q927.382 313.6 927.382 322.35 Q927.382 331.077 924.303 335.684 Q921.247 340.267 915.437 340.267 Q909.627 340.267 906.548 335.684 Q903.493 331.077 903.493 322.35 Q903.493 313.6 906.548 309.017 Q909.627 304.411 915.437 304.411 Z" fill="#000000" fill-rule="nonzero" fill-opacity="1"></path><path clip-path="url(#clip280)" d="M971.618 323.948 L971.618 339.596 L967.358 339.596 L967.358 324.087 Q967.358 320.406 965.923 318.577 Q964.488 316.749 961.618 316.749 Q958.169 316.749 956.178 318.948 Q954.187 321.147 954.187 324.943 L954.187 339.596 L949.905 339.596 L949.905 313.67 L954.187 313.67 L954.187 317.698 Q955.715 315.36 957.775 314.202 Q959.858 313.045 962.567 313.045 Q967.034 313.045 969.326 315.823 Q971.618 318.577 971.618 323.948 Z" fill="#000000" fill-rule="nonzero" fill-opacity="1"></path><path clip-path="url(#clip280)" d="M1000.3 318.647 Q1001.9 315.776 1004.12 314.411 Q1006.34 313.045 1009.35 313.045 Q1013.4 313.045 1015.6 315.892 Q1017.8 318.716 1017.8 323.948 L1017.8 339.596 L1013.52 339.596 L1013.52 324.087 Q1013.52 320.36 1012.2 318.554 Q1010.88 316.749 1008.17 316.749 Q1004.86 316.749 1002.94 318.948 Q1001.02 321.147 1001.02 324.943 L1001.02 339.596 L996.733 339.596 L996.733 324.087 Q996.733 320.337 995.414 318.554 Q994.094 316.749 991.34 316.749 Q988.076 316.749 986.154 318.971 Q984.233 321.17 984.233 324.943 L984.233 339.596 L979.951 339.596 L979.951 313.67 L984.233 313.67 L984.233 317.698 Q985.692 315.313 987.729 314.179 Q989.766 313.045 992.566 313.045 Q995.391 313.045 997.358 314.48 Q999.349 315.915 1000.3 318.647 Z" fill="#000000" fill-rule="nonzero" fill-opacity="1"></path><path clip-path="url(#clip280)" d="M1028.03 321.494 L1037.84 321.494 L1037.84 324.133 L1024 324.133 L1024 321.587 Q1024.79 320.869 1026.25 319.573 Q1034.21 312.513 1034.21 310.337 Q1034.21 308.809 1033.01 307.883 Q1031.8 306.934 1029.83 306.934 Q1028.63 306.934 1027.22 307.351 Q1025.81 307.744 1024.14 308.554 L1024.14 305.707 Q1025.92 305.059 1027.45 304.735 Q1029 304.411 1030.32 304.411 Q1033.68 304.411 1035.69 305.938 Q1037.71 307.466 1037.71 309.966 Q1037.71 313.184 1030.04 319.758 Q1028.75 320.869 1028.03 321.494 Z" fill="#000000" fill-rule="nonzero" fill-opacity="1"></path><circle clip-path="url(#clip280)" cx="496.125" cy="374.156" r="20.48" fill="#0000ff" fill-rule="evenodd" fill-opacity="1" stroke="#000000" stroke-opacity="1" stroke-width="4.55111"></circle>
<path clip-path="url(#clip280)" d="M587.059 356.876 L605.416 356.876 L605.416 360.811 L591.342 360.811 L591.342 369.283 Q592.36 368.936 593.379 368.774 Q594.397 368.589 595.416 368.589 Q601.203 368.589 604.582 371.76 Q607.962 374.931 607.962 380.348 Q607.962 385.926 604.49 389.028 Q601.018 392.107 594.698 392.107 Q592.522 392.107 590.254 391.737 Q588.008 391.366 585.601 390.626 L585.601 385.926 Q587.684 387.061 589.907 387.616 Q592.129 388.172 594.606 388.172 Q598.61 388.172 600.948 386.065 Q603.286 383.959 603.286 380.348 Q603.286 376.737 600.948 374.63 Q598.61 372.524 594.606 372.524 Q592.731 372.524 590.856 372.94 Q589.004 373.357 587.059 374.237 L587.059 356.876 Z" fill="#000000" fill-rule="nonzero" fill-opacity="1"></path><path clip-path="url(#clip280)" d="M627.175 359.954 Q623.564 359.954 621.735 363.519 Q619.93 367.061 619.93 374.19 Q619.93 381.297 621.735 384.862 Q623.564 388.403 627.175 388.403 Q630.809 388.403 632.615 384.862 Q634.443 381.297 634.443 374.19 Q634.443 367.061 632.615 363.519 Q630.809 359.954 627.175 359.954 M627.175 356.251 Q632.985 356.251 636.041 360.857 Q639.119 365.44 639.119 374.19 Q639.119 382.917 636.041 387.524 Q632.985 392.107 627.175 392.107 Q621.365 392.107 618.286 387.524 Q615.231 382.917 615.231 374.19 Q615.231 365.44 618.286 360.857 Q621.365 356.251 627.175 356.251 Z" fill="#000000" fill-rule="nonzero" fill-opacity="1"></path><path clip-path="url(#clip280)" d="M683.355 375.788 L683.355 391.436 L679.096 391.436 L679.096 375.927 Q679.096 372.246 677.661 370.417 Q676.226 368.589 673.355 368.589 Q669.906 368.589 667.915 370.788 Q665.925 372.987 665.925 376.783 L665.925 391.436 L661.642 391.436 L661.642 365.51 L665.925 365.51 L665.925 369.538 Q667.452 367.2 669.513 366.042 Q671.596 364.885 674.304 364.885 Q678.772 364.885 681.064 367.663 Q683.355 370.417 683.355 375.788 Z" fill="#000000" fill-rule="nonzero" fill-opacity="1"></path><path clip-path="url(#clip280)" d="M712.036 370.487 Q713.633 367.616 715.855 366.251 Q718.077 364.885 721.086 364.885 Q725.137 364.885 727.336 367.732 Q729.535 370.556 729.535 375.788 L729.535 391.436 L725.253 391.436 L725.253 375.927 Q725.253 372.2 723.934 370.394 Q722.614 368.589 719.906 368.589 Q716.596 368.589 714.674 370.788 Q712.753 372.987 712.753 376.783 L712.753 391.436 L708.471 391.436 L708.471 375.927 Q708.471 372.177 707.151 370.394 Q705.832 368.589 703.077 368.589 Q699.813 368.589 697.892 370.811 Q695.971 373.01 695.971 376.783 L695.971 391.436 L691.688 391.436 L691.688 365.51 L695.971 365.51 L695.971 369.538 Q697.429 367.153 699.466 366.019 Q701.503 364.885 704.304 364.885 Q707.128 364.885 709.096 366.32 Q711.087 367.755 712.036 370.487 Z" fill="#000000" fill-rule="nonzero" fill-opacity="1"></path><path clip-path="url(#clip280)" d="M739.119 385.556 L744.003 385.556 L744.003 391.436 L739.119 391.436 L739.119 385.556 M739.119 366.922 L744.003 366.922 L744.003 372.802 L739.119 372.802 L739.119 366.922 Z" fill="#000000" fill-rule="nonzero" fill-opacity="1"></path><path clip-path="url(#clip280)" d="M783.841 372.802 Q787.197 373.519 789.072 375.788 Q790.97 378.056 790.97 381.389 Q790.97 386.505 787.452 389.306 Q783.933 392.107 777.452 392.107 Q775.276 392.107 772.961 391.667 Q770.67 391.251 768.216 390.394 L768.216 385.88 Q770.16 387.014 772.475 387.593 Q774.79 388.172 777.313 388.172 Q781.711 388.172 784.003 386.436 Q786.318 384.7 786.318 381.389 Q786.318 378.334 784.165 376.621 Q782.035 374.885 778.216 374.885 L774.188 374.885 L774.188 371.042 L778.401 371.042 Q781.85 371.042 783.679 369.677 Q785.507 368.288 785.507 365.695 Q785.507 363.033 783.609 361.621 Q781.734 360.186 778.216 360.186 Q776.295 360.186 774.095 360.603 Q771.896 361.019 769.258 361.899 L769.258 357.732 Q771.92 356.991 774.234 356.621 Q776.572 356.251 778.632 356.251 Q783.957 356.251 787.058 358.681 Q790.16 361.089 790.16 365.209 Q790.16 368.079 788.517 370.07 Q786.873 372.038 783.841 372.802 Z" fill="#000000" fill-rule="nonzero" fill-opacity="1"></path><path clip-path="url(#clip280)" d="M809.836 359.954 Q806.225 359.954 804.396 363.519 Q802.591 367.061 802.591 374.19 Q802.591 381.297 804.396 384.862 Q806.225 388.403 809.836 388.403 Q813.47 388.403 815.276 384.862 Q817.104 381.297 817.104 374.19 Q817.104 367.061 815.276 363.519 Q813.47 359.954 809.836 359.954 M809.836 356.251 Q815.646 356.251 818.702 360.857 Q821.78 365.44 821.78 374.19 Q821.78 382.917 818.702 387.524 Q815.646 392.107 809.836 392.107 Q804.026 392.107 800.947 387.524 Q797.892 382.917 797.892 374.19 Q797.892 365.44 800.947 360.857 Q804.026 356.251 809.836 356.251 Z" fill="#000000" fill-rule="nonzero" fill-opacity="1"></path><path clip-path="url(#clip280)" d="M840.577 372.292 Q837.428 372.292 835.577 374.445 Q833.748 376.598 833.748 380.348 Q833.748 384.075 835.577 386.251 Q837.428 388.403 840.577 388.403 Q843.725 388.403 845.553 386.251 Q847.405 384.075 847.405 380.348 Q847.405 376.598 845.553 374.445 Q843.725 372.292 840.577 372.292 M849.859 357.64 L849.859 361.899 Q848.1 361.066 846.294 360.626 Q844.512 360.186 842.752 360.186 Q838.123 360.186 835.669 363.311 Q833.239 366.436 832.891 372.755 Q834.257 370.741 836.317 369.677 Q838.378 368.589 840.854 368.589 Q846.063 368.589 849.072 371.76 Q852.104 374.908 852.104 380.348 Q852.104 385.672 848.956 388.889 Q845.808 392.107 840.577 392.107 Q834.581 392.107 831.41 387.524 Q828.239 382.917 828.239 374.19 Q828.239 365.996 832.128 361.135 Q836.016 356.251 842.567 356.251 Q844.327 356.251 846.109 356.598 Q847.914 356.945 849.859 357.64 Z" fill="#000000" fill-rule="nonzero" fill-opacity="1"></path><path clip-path="url(#clip280)" d="M870.16 359.954 Q866.549 359.954 864.72 363.519 Q862.914 367.061 862.914 374.19 Q862.914 381.297 864.72 384.862 Q866.549 388.403 870.16 388.403 Q873.794 388.403 875.6 384.862 Q877.428 381.297 877.428 374.19 Q877.428 367.061 875.6 363.519 Q873.794 359.954 870.16 359.954 M870.16 356.251 Q875.97 356.251 879.025 360.857 Q882.104 365.44 882.104 374.19 Q882.104 382.917 879.025 387.524 Q875.97 392.107 870.16 392.107 Q864.35 392.107 861.271 387.524 Q858.215 382.917 858.215 374.19 Q858.215 365.44 861.271 360.857 Q864.35 356.251 870.16 356.251 Z" fill="#000000" fill-rule="nonzero" fill-opacity="1"></path><path clip-path="url(#clip280)" d="M900.322 359.954 Q896.711 359.954 894.882 363.519 Q893.076 367.061 893.076 374.19 Q893.076 381.297 894.882 384.862 Q896.711 388.403 900.322 388.403 Q903.956 388.403 905.761 384.862 Q907.59 381.297 907.59 374.19 Q907.59 367.061 905.761 363.519 Q903.956 359.954 900.322 359.954 M900.322 356.251 Q906.132 356.251 909.187 360.857 Q912.266 365.44 912.266 374.19 Q912.266 382.917 909.187 387.524 Q906.132 392.107 900.322 392.107 Q894.511 392.107 891.433 387.524 Q888.377 382.917 888.377 374.19 Q888.377 365.44 891.433 360.857 Q894.511 356.251 900.322 356.251 Z" fill="#000000" fill-rule="nonzero" fill-opacity="1"></path><path clip-path="url(#clip280)" d="M920.484 385.556 L925.368 385.556 L925.368 391.436 L920.484 391.436 L920.484 385.556 Z" fill="#000000" fill-rule="nonzero" fill-opacity="1"></path><path clip-path="url(#clip280)" d="M945.553 359.954 Q941.942 359.954 940.113 363.519 Q938.308 367.061 938.308 374.19 Q938.308 381.297 940.113 384.862 Q941.942 388.403 945.553 388.403 Q949.187 388.403 950.993 384.862 Q952.821 381.297 952.821 374.19 Q952.821 367.061 950.993 363.519 Q949.187 359.954 945.553 359.954 M945.553 356.251 Q951.363 356.251 954.419 360.857 Q957.497 365.44 957.497 374.19 Q957.497 382.917 954.419 387.524 Q951.363 392.107 945.553 392.107 Q939.743 392.107 936.664 387.524 Q933.608 382.917 933.608 374.19 Q933.608 365.44 936.664 360.857 Q939.743 356.251 945.553 356.251 Z" fill="#000000" fill-rule="nonzero" fill-opacity="1"></path><path clip-path="url(#clip280)" d="M1001.73 375.788 L1001.73 391.436 L997.474 391.436 L997.474 375.927 Q997.474 372.246 996.039 370.417 Q994.604 368.589 991.733 368.589 Q988.284 368.589 986.293 370.788 Q984.303 372.987 984.303 376.783 L984.303 391.436 L980.02 391.436 L980.02 365.51 L984.303 365.51 L984.303 369.538 Q985.83 367.2 987.891 366.042 Q989.974 364.885 992.682 364.885 Q997.15 364.885 999.441 367.663 Q1001.73 370.417 1001.73 375.788 Z" fill="#000000" fill-rule="nonzero" fill-opacity="1"></path><path clip-path="url(#clip280)" d="M1030.41 370.487 Q1032.01 367.616 1034.23 366.251 Q1036.46 364.885 1039.46 364.885 Q1043.52 364.885 1045.71 367.732 Q1047.91 370.556 1047.91 375.788 L1047.91 391.436 L1043.63 391.436 L1043.63 375.927 Q1043.63 372.2 1042.31 370.394 Q1040.99 368.589 1038.28 368.589 Q1034.97 368.589 1033.05 370.788 Q1031.13 372.987 1031.13 376.783 L1031.13 391.436 L1026.85 391.436 L1026.85 375.927 Q1026.85 372.177 1025.53 370.394 Q1024.21 368.589 1021.46 368.589 Q1018.19 368.589 1016.27 370.811 Q1014.35 373.01 1014.35 376.783 L1014.35 391.436 L1010.07 391.436 L1010.07 365.51 L1014.35 365.51 L1014.35 369.538 Q1015.81 367.153 1017.84 366.019 Q1019.88 364.885 1022.68 364.885 Q1025.51 364.885 1027.47 366.32 Q1029.46 367.755 1030.41 370.487 Z" fill="#000000" fill-rule="nonzero" fill-opacity="1"></path><path clip-path="url(#clip280)" d="M1058.14 373.334 L1067.96 373.334 L1067.96 375.973 L1054.12 375.973 L1054.12 373.427 Q1054.9 372.709 1056.36 371.413 Q1064.33 364.353 1064.33 362.177 Q1064.33 360.649 1063.12 359.723 Q1061.92 358.774 1059.95 358.774 Q1058.75 358.774 1057.33 359.191 Q1055.92 359.584 1054.26 360.394 L1054.26 357.547 Q1056.04 356.899 1057.57 356.575 Q1059.12 356.251 1060.44 356.251 Q1063.79 356.251 1065.81 357.778 Q1067.82 359.306 1067.82 361.806 Q1067.82 365.024 1060.16 371.598 Q1058.86 372.709 1058.14 373.334 Z" fill="#000000" fill-rule="nonzero" fill-opacity="1"></path></svg>